<mxfile host="Electron" modified="2024-09-28T22:08:02.087Z" agent="Mozilla/5.0 (Macintosh; Intel Mac OS X 10_15_7) AppleWebKit/537.36 (KHTML, like Gecko) draw.io/23.0.2 Chrome/120.0.6099.109 Electron/28.1.0 Safari/537.36" etag="0MZRD7Lvm-c3DRvLJ4tc" version="23.0.2" type="device" pages="2">
  <diagram name="A-0" id="OlsN9FPiCuLugKzYcsad">
    <mxGraphModel dx="942" dy="508" grid="1" gridSize="10" guides="1" tooltips="1" connect="1" arrows="1" fold="1" page="1" pageScale="1" pageWidth="4681" pageHeight="3300" math="0" shadow="0">
      <root>
        <mxCell id="0" />
        <mxCell id="1" parent="0" />
        <mxCell id="4Ulf56FvuCfk-EnvV8hD-4" value="Управлять бронированием билетов в музей" style="shape=ellipse;html=1;dashed=0;whiteSpace=wrap;aspect=fixed;perimeter=ellipsePerimeter;" vertex="1" parent="1">
          <mxGeometry x="485" y="640" width="170" height="170" as="geometry" />
        </mxCell>
        <mxCell id="4Ulf56FvuCfk-EnvV8hD-18" style="edgeStyle=orthogonalEdgeStyle;rounded=0;orthogonalLoop=1;jettySize=auto;html=1;exitX=0;exitY=0;exitDx=0;exitDy=25;exitPerimeter=0;entryX=0.894;entryY=0.206;entryDx=0;entryDy=0;entryPerimeter=0;" edge="1" parent="1" source="4Ulf56FvuCfk-EnvV8hD-5" target="4Ulf56FvuCfk-EnvV8hD-4">
          <mxGeometry relative="1" as="geometry" />
        </mxCell>
        <mxCell id="4Ulf56FvuCfk-EnvV8hD-19" value="Запрос на бронирование" style="edgeLabel;html=1;align=center;verticalAlign=middle;resizable=0;points=[];" vertex="1" connectable="0" parent="4Ulf56FvuCfk-EnvV8hD-18">
          <mxGeometry x="0.2125" y="-2" relative="1" as="geometry">
            <mxPoint x="18" y="-14" as="offset" />
          </mxGeometry>
        </mxCell>
        <mxCell id="4Ulf56FvuCfk-EnvV8hD-5" value="Посетитель" style="html=1;dashed=0;whiteSpace=wrap;shape=mxgraph.dfd.externalEntity" vertex="1" parent="1">
          <mxGeometry x="960" y="650" width="140" height="160" as="geometry" />
        </mxCell>
        <mxCell id="4Ulf56FvuCfk-EnvV8hD-6" value="3" style="autosize=1;part=1;resizable=0;strokeColor=inherit;fillColor=inherit;gradientColor=inherit;" vertex="1" parent="4Ulf56FvuCfk-EnvV8hD-5">
          <mxGeometry width="30" height="30" relative="1" as="geometry">
            <mxPoint x="10" y="10" as="offset" />
          </mxGeometry>
        </mxCell>
        <mxCell id="4Ulf56FvuCfk-EnvV8hD-7" value="Экскурсовод" style="html=1;dashed=0;whiteSpace=wrap;shape=mxgraph.dfd.externalEntity" vertex="1" parent="1">
          <mxGeometry x="500" y="370" width="140" height="170" as="geometry" />
        </mxCell>
        <mxCell id="4Ulf56FvuCfk-EnvV8hD-8" value="2" style="autosize=1;part=1;resizable=0;strokeColor=inherit;fillColor=inherit;gradientColor=inherit;" vertex="1" parent="4Ulf56FvuCfk-EnvV8hD-7">
          <mxGeometry width="30" height="30" relative="1" as="geometry">
            <mxPoint x="10" y="10" as="offset" />
          </mxGeometry>
        </mxCell>
        <mxCell id="4Ulf56FvuCfk-EnvV8hD-9" value="Администратор" style="html=1;dashed=0;whiteSpace=wrap;shape=mxgraph.dfd.externalEntity" vertex="1" parent="1">
          <mxGeometry x="110" y="650" width="140" height="160" as="geometry" />
        </mxCell>
        <mxCell id="4Ulf56FvuCfk-EnvV8hD-10" value="1" style="autosize=1;part=1;resizable=0;strokeColor=inherit;fillColor=inherit;gradientColor=inherit;" vertex="1" parent="4Ulf56FvuCfk-EnvV8hD-9">
          <mxGeometry width="30" height="30" relative="1" as="geometry">
            <mxPoint x="10" y="10" as="offset" />
          </mxGeometry>
        </mxCell>
        <mxCell id="1DmmBXhhXXTSi6__4Dvt-1" value="" style="shape=image;verticalLabelPosition=bottom;labelBackgroundColor=default;verticalAlign=top;aspect=fixed;imageAspect=0;image=data:image/png,iVBORw0KGgoAAAANSUhEUgAABLsAAAETCAIAAABRE5OIAAAAKnRFWHRjb3B5bGVmdABHZW5lcmF0ZWQgYnkgaHR0cHM6Ly9wbGFudHVtbC5jb212zsofAAAC7WlUWHRwbGFudHVtbAABAAAAeJztVF1PE0EUfZ9fcdMX4aGkVDBmHwwtCAnQaGzhfdkd2wm7s2R2tkiMCQXxIyRiFCKJ8v3qAxKqFaH8hdl/5J1dC21wo0KMD9Jkd6cz55x77tyZO+BLU8jAdaDo4gCKnsVMB3LpDPGnGZ8xhemCTR+agSNL9JHMOazMXcolWPiigrTBBLWkycsOhccE8Jf3hE3FoOd4AqYc05pumy1VmDXNqe9DljxpF7E8x0Ed5nH/D2WiWVwuCy/gdoyfrTBJo5WcEN5sPJmPRDDqDVBv1Imqhy/w3VB1CGvhYvgS/zRxtKAapN3NJPOZRLrpQ0ptqU21o9bUrlrHZ029Vx9THeic7TIeY1+rVfUBcRv47CB6G2d2kb/dyRgJmE1jxltErqYig5thTftRB9H7K6jTcB7tPUPXtbBGzvc8pfaitX2EflP1s4xUI8qlro5j/ifN16vR9wDxeryS0pHznoeFKBfnfEndKPwWxlpA3JFqgDqMwCfhcrhEWruRtr1Znr7TSQUD7bxDdGy2BkjbTwit6inSSU4HMyjYCmBEu91Uh+jjALOeV5/RSCu/xHQuZVDneqy1w8UrmTrXWf61zp5WQHYTKWeFw+KT+Agl+0+odxP3ZFmf3nAFFRsXDAhWrkgUjOW10DoafYqm5xG/j0cLmZhDh5bWuYyfpPpczVmSarik9y2+SMk+V+PrHS6qU1BHoD1jqqf6ovwQevXzqsXCWmIDgV/0mQmfR6lioS9sPloZoNzG3oqD/7nN/uMm+ldb5HUbvG6D123wd9vgfcfkcqIwDlUqfLyv0NuTzWT7em52lSoBDNMp6O2HbNboyxiZfigUx0Avd5Oukfvj1Sz4XiAsCjbzpWBTgb7x3WTUrJrwIOCSudSAezOUjw6NtSbgLq8y4UWtlIxOFs4Bt/rSeYaNmAr0ApMFMhR3X2RYno0pGzBRGk7fJuPYOwKzjNqUk0HseVLMGTCSJ98BzL11fMCw2joAAIAASURBVHhe7L13XBTLtv6tO96z9+/EfY5H3WZFcjKhmEDMimJAjAQVMCcEEQUDKmYRBRUxoxtBxEAwC5gxI2LEnDOgCBLmfe7Utd/ZNdPDIAMMsL5/8Ompqq5uKqy1ng7VVSQEQRAEQRAEQRAEoYgqfAJBEARBEARBEARBSCHFSBAEQRAEQRAEQSiGFCNBEARBEARBEAShGFKMBEEQBEEQBEEQhGJIMRIEQRAEQRAEQRCKIcVYNF68eLFt27bZZYGvr+/OnTu/fPnCnxNBEARBEKUFHDHcMZwy76cJ1UAchWiKb1aCIDQYUoxFYMaMGT/88EOVMqVp06Y5OTn8mREEQRAEUfLABcMR876ZKCKIphBT8Y1LEISmQopRVQ4ePMhsXL9+/fjLZaWFlpYWziE8PJw/OYIgCIIgSh64YDhiuGPeQxMqgziKXX9HZMW3L0EQGgkpRlWZN28erNuUKVP4jFLE29sb54Az4TMIgiAIgih5WDAAd8xnEEUB0RTFMwRRjiDFqCqzZ8+GdcNfPqMUYedgYWFB7zQSBEEQROmjCcFABUCIZ+idRoIoF5BiVBVNcBLsHATonUaCIAiCKE00IRioAMjGM/ROI0FoPqQYVUUTnIRwTW42vdNIEARBEKWOJgQDFQAhnqF3GgmiXECKUVU0wUnIngO900gQBEEQpYwmBAMVANlmpHcaCULzIcWoKprgJGTPQRPOhyAIgiAqFeR81QLFMwRRviDFqCqaYNHIwhIEQRBEGULOVy1QPEMQ5QtSjKqiCRaNLCxBEARBlCHkfNUCxTMEUb4gxagqmmDRyMISBEEQRBmiFuf74cOHq1evfvz4kc/4yqdPn5KTkx88eJCXl8fnVQgoniGI8gUpRlUp1KK1bt36uz8DZ4BEExMT2WKdO3dG1p07d4SU4cOHy+7122+/yRT/E2RhCYIgCKIMUe585SMBxrt371iBK1euGBkZVZGC9DZt2ty/f1+2BhRo2rRp1apVWZkffvihcePGLEu+8qysrL/+9a9cIsPU1JTtIhaEFLojl45jsRqWLFnCZY0aNYplyR9ODIpnCKJ8QYpRVQq1aK1atfr99983ypCXl4dEQ0NDoUxMTAzzAbdv3xYSBw8eXLNmzQgpKP+Pf/xDyOIgC0sQBEEQZYhy5wsnXqtWre0y9OzZE+Xfvn2L3OTk5L/85S/VqlXbvXs3hOKWLVt+/fXXf/7zn8+fP2e7X7p06aeffoKW27Rp08OHD6EeIc9atGghVnl+fn54eDjbdnV1xYF8fHzYz9jYWLaLWBBS6I7yx2KV+Pn5/fjjjyxoAdjXxcWFZXGHUwLFMwRRviDFqCqFWjSFhlI2MTc3V09PTzDWQhkbG5tmzZqxbTs7O1KMBEEQBKGZKHe+8pGAp6dnla+K0dbWtmrVqhcvXhRy9+zZg1w3Nzf2s3fv3vgZHx8vFJBFvnJZoD+x76lTp2QTVQlCCt2RY/78+b/88ovwswopRoKoBJBiVJVCLZpCQymbGBQU9N133w0ePJgz1p06dbK0tGTbpBgJgiAIQmNR7nzlIwFBMQLEAN27d5fNBSj/t7/9DRuvX7+GnrSysuIKCMhXLkuhwk8sCCl0R445c+bIBipVSDESRCWAFKOqFGrRFBpKITE9Pf0///mPs7Pz0qVLOWPduHFjBwcHtk2KkSAIgiA0FuXOVz4SEBTj2bNnsbFo0SLZXDB27FikP3v2jBVYsGABV0AAlWtpad36SmZmpmyucuGnJAgR21HsWNOnT69Ro4bws8qfFSNCmocPHypZ1IdB8QxBlC9IMapKoRZN3k/IJk6bNu3vf//7q1evOGP9+fPn77//HonsJylGgiAIgtBYlDtf+UhAUIxhYWHY2LZtm2yuRPqQJ9JPnz7NCmzdupUrIIDKq8gQGhoqmysm/JQHIRLxHcWONWnSJB0dHeFnlT8rRmGX//73v6tXrxaKcagez0CsxsTECOvuEARRJpBiVBXlFk2iyE8Iiffv3//5559XrFiBFM5Yh4eH4+eVK1fYT1KMBEEQBFFW3LlzZ+3atey1Q4Uod77ykYCgGA8fPowNeRHl4eGB9Fu3bh06dAgbK1eu5AoIoHJtbe1HX+FElJjwUx6ESMR3FDuWvb09coWfVeTuMSYnJwcHB+O4VcTfySw0noFQjIiI6N27NyqEnJbNIgii9CHFqCoKLZos8n5CSIQO1NXVzc3NlcgZ65YtWwrLoElIMRIEQRBEmQJ9oqOjM3nyZFlZJaDc+cpHAoJifPDgATZGjx4tmwt69Ojx/ffff/nyJS0tDQWgx7gCAvKVyyIm/JQHIRKlO8qmCLRv397Gxkb4WUXkPcaDBw8ia86cOUJJWcTiGSYUBw0aVK9evVq1atWtW5fkIkFoAqQYVUW5k5CImFck/vDDD9gRppOlyBpr2EFsh4SECOVJMRIEQRBE2QLvXKdOnerVq3fv3p27S6bc+cpHArJrpZqZmf31r3+VvYF5584dyMW+fftiOz8/38DAADHDjRs3hAKyyFcui5jwUxKEMMR2VHis+/fv//TTT4GBgUJKFRHFuHnzZmQtX75cKCkLF89UrVp18ODBUMsNGjQwNjb+/fffoRi1tbVJLhKEhkCKUVWUOwmJiHltJX2mv1evXkKKYKxBt27dsL1v376jX7GwsPj111+x8fr1a5lq/g/Owio/H4IgCIIgvg1olfr169esWbN27doQcitXrszJyZEU5nzlIwFZxXjixAnoNyiiM2fOvHv3Diqubt26f/nLXwT9hhRop99++w0q7t69e6mpqcHBwcL3t1A5dJQQMIBXr14JBxITfmJBiJAitqP8sf744w8TExOc3rNnz4SSVf6sGNFoUVFRHh4eUH1oupcvXwolZZFtRldX12rVqtWoUaNx48bVpUAr6ujokFwkCM2BFKOqKHcSwNzc3MjISD7xp59+unv3rpCybNky1HPnzp1x48ZVESciIkKmmv+DFCNBEARBfAPv379nr+Rdv379lBSooJ1SQkNDl35l4lcGDx7csWPHWrVqQTQyGQNJw/4qcb7ykcD06dNRHvqQ/cRxGzZsKPh6qEGcj2z5Y8eOaWlpsVyoRz09vVGjRrEsVC7syJANFbZu3VpFuoKOkCJRGoQIKWI7yh9LX1+/d+/ewsoLDJwkJJ/sXjgiWgklr169KltSFi6egZBGuwlNDamJGiA+m0tBVX379nVyckK/uLm5sZ7CaaPv9u/fjya9ePEielZMnRIEUXxIMaqK2hUaFCNMJJ8qdSfMNPMZchZWvedDEARBEJpGfn4+U3ppaWlM6R05coQpvfXr1zPxMGPGDCbz7O3t+0qxtLRkYgPqS7htxVKQxcoAR0fHQYMG9e/fHxv4aW1t3atXrw4dOrRp08bQ0LBx48ZMt7AaALtv9uOPPxbT+T579uzcuXMQsXzGV968eYMCShbgKe8ojGcuXboEzYlGRlPXrVs3Pj6edf358+dlFT5ELzrd09MTPT5y5Eh0XPfu3dGz0JzYsU6dOthGPUi3s7MTROaKFSuw7549e1AVVDqq/fLlC39aBEGIQIpRVdSu0MaPHw+vw6d+VYy7du3iM0QsLF+IIAiCIDSGV69eITq/f/8+03txcXEs7vf390ccv2jRIib2WOgPLCwsmLSrVasW02nsZ6tWrVgBaDy2i5eXF1OMkI6szgMHDrCjJCQkHD9+PCoqatu2bSEhISgzadIkJycn7I6q2NOP2Gjfvj1SnJ2dURvKBAYGohIoUtSAc378+DEO2qBBAxTW1dXFho+PD1valJxvMVESz8TGxkKuQ6tjAHzDg6nZ2dnou7t376IToTl3fr2H7Ofnh152cXHp+/WCAuqHOsUGhpwwDDAgV65cib0wUNkwSE9P549BEJUPUoyqMlv6ZrYanUReXp7C61sFBQVIx18+Q6mFJQiCIIgS4unTpwidU1NTmR4LDw/fKXOLj+k3dpsOmJmZIQo3MDBgek9PT49JPpZrb2/Pys+bN4/tzsQeu/lz6uv9H+W3gD5+/Mgk6O7du4ODg5kYsLW1hRKA2MBBjY2N27Vrh8ONGTOGCcvt27fHxMRgl4cPH3748IGvURGurq7169dv1KgR/np7e7OXBsn5qgXl8QwCpA0bNjRs2LBOnTrfIBpVB2Ps0dcHlTECMQ4xVDAyMZwcHBxsbGwwbjEAatasiY3OnTtjjCFrzpw5/v7+KHz06NELFy6gBvaOK0FUYEgxFk5aWhp79bxatWrwGXx2KaLcwhIEQRCEEt68eSPEx4mJiUyqrVq1ClEyvAlC4fHjxzNdB7mFEFlfX5+pPggw/Gzbti3LhQxD4enTpzPJBzGGeqKjo5nkg9PEUV68eMEfvigUFBSgknPnziGOX7NmjY+PD7s7hNOAfmvQoEGLFi3wE6JuxowZLHyPj49PSUlR18tsoaGh1aUv1M2cOVN2gRlyvmpBlXgmMzPT19dXT0+vREWjKuTm5mI0Xr58md20XL169fz58zEFBg4c2K1bN4xJjBPoW3YbfOzYsZCUQUFBu3btwnS4d+8e/hG+RoIob5BiVExOTg7sAvwE5r+pqambm5uDg4N67zF+A6pYWIIgCKLCAyeFEBbBKBNpTPux5zzZS33sIc9evXqx+3vs3TD2Lh+7+QagD1ESfgR7QTeySk6cOCHc6Cum6iuU/Pz8hw8f4nAREREBAQFeXl5OTk5du3Y1MTHB2TZr1sza2trZ2RlyEaIxKioKJR88ePDx40e+InVz69atxo0bQxLLakUGOV+1oHo88+zZM09Pz7Nnz/IZGkZ6ejp71TY8PBySctasWWPGjOkrveXOrnG0bNmSXW1BVmBgIMZzUlKS7KqzBKHJkGL8Ex8+fIDfcnFx0dLS6t27N7yvsIiZcotWOqhuYQmCIIhyBFvJ88qVK4g49+7dC+UGBbX06/IeDg4OiDU7duwo3Pdj71+BPn36sNsaKDZ37lzssm7dOuy+e/duJibZE55l+9Rcbm7u/fv3ExMTt2/fvmjRonHjxsHDNm3alL1MiH8BYbSvr+/69eujo6MvXLhQtmF0Xl5eaGiovFZkkPNVC0WNZyDGsrOz+dTyQ2ZmJtOTCDIhF/HPOjs79+jRw8TEpEaNGmwWYBb7+flt2bLlyJEjqamp9P4koVGQYvxf4E3hYuF0IRQdHR3DwsLevHnDlVHFopU0RbWwBEEQRJnAHqpk79qxJ9m2bt0KOQddJNwA7NSpU/Ovq7DA+2DbysoK6cOHD2fvSqF8cHAw9mUv4F26dAl1Pn/+nD+YJvHy5ctz585BGSL2hQ60trY2NTVFTNyiRYt+/fpNlC4wg/+ISVl+5/IAOV+1QPGMQF5eHrvTjnmxYsUKNze3QYMGtWvXrlGjRjALFhYWgwcPnjZt2po1a+Li4q5fv/7p0ye+CoIoeSq1Yrx3756/v3+XLl0MDAymTJly6NChz58/84W+snDhQlg0Dw8PPqMUmTlzJs4BAYek0ltYgiCI0gdqjT0IevDgQfY6E/SPu7s7hJCdnR3EXsuWLSH82If7mjRpwm4dMKUEL4PC7I079oAlU4Dl9wsKaA38F6GhofBKI0aMgNxt0KAB/GnPnj3Hjx+/fPny8PDwM2fOPHnyhN+zPIN/Fs4X7pjPIIoCW3IWkZWE4hlxPnz4AImI6HTDhg0+Pj4ODg4QkPXq1TM0NLS2th47dixMSmRk5Pnz51+/fs3vTBBqpTIqxlu3bmGOWVpaGhsbe3p6wuHl5+fzheQ4duwYLFrt2rXLcFoOGDAA57Bp0yYJWViCIAg1gbAMyi0pKYktBoPgTHgctO/XT72xz/ohUGMLrgwZMgS5s2bNQsmNGzfulK6aCG9y9+7dR0oX+SynpKenQ9/u2LFjzpw5jo6OcKAIW42MjBC2Tp48eeXKlfv27bt27VpGRga/Z4UDLhjOF+6YzyBUBnEUoik0IyIrCcUzRef58+fnzp0LCwvz8/MbPXp0t27d9PT0GjZsaGVl5eTkhEkaGhp64cIFFdcEJghVqESKEV7c39/fwsKiSZMm3t7eZ8+eVfgFCzGgKjEVYdTq1Kkzbdq02aXOlClTfpDCFoKbTRaWIAhCnLy8PJj9lJSUU9JvMEDtQN0hloLSg96D6oP2Y5/8Zk+EQhkiEbmw8CgZEhICHZiQkAAliXqUfGy94vH27dvTp09DGs2cOdPOzg6thGC0c+fOY8eOXbVqVXR0NFq1FJaf0UzggpkvhlPm3DShCphfiKMQwCCmYtfrZ1M8ow7S09OvXbu2f//+1atXT5gwoWvXrrBsBgYG/fr1mz59OgxafHx8Sa9lRVRgKr5ifPXqFeZJz5499fX1YaeKs9wW/AQTjWXIjBkz2MmQhSUIotLC7gpC1bCnQ/39/dn7gYMGDYK1h/xjX13HhqWlJXSgi4sLcpcsWcJWBGXfeb93756GvxNYOkAMQxgHBwd7eHhYW1vr6urq6OigGd3d3detW3f06NEK9lhp8YEj5n0zUUQQTQnfQVElnnn27NmVK1fu37/PZxBKgUSEUEQYDNEI6QgBCRkJMQlJGRgYCEt49+5dfh+CUESFVYzZ2dmRkZF2dnaYG+PGjYPPy83N5QsVnfz8/GPHjnXr1g3WrXXr1sI1s1Jg7ty5hw8fFs5E9p1GgiCICgOsN9Tg+fPnYfHYUhA+Pj7sAVFEmWyBzcaNG0MN9u7de+jQochasGBBQEAACh85cuTcuXPYvTI8HvnNIEaMjo5Go9nb25uYmKAxbWxsoII2btx48uRJ+YXfCHkwOOGUO3ToAEfcrl073mET4ixcuBBxlOzbQOydRkQ10IQ7duxYvHgxJnWfPn3at29vbGysq6tbt27dsWPHYmrL9ADxjaSnp1+8eDE0NBR9MWzYMPbxjy5duri5ua1fv/706dO0RiuhkAqoGBFnTJ06VVtbe+DAgVFRUUoWs/lmNO2dRoIgiPJCZmbmgwcPTp06tWfPHkiUJUuWIDpE4GJtbd1c+nH2OnXqYKNHjx6DBw9Glp+f35o1a9h3AlNSUh4/fszXSCglKysLgfjmzZunT5+OVm3YsGGLFi0cHR2XLl0aFxdXThcs1RDoncbigziqVq1a//3vf6v/GbZ8VMuWLYODgyvVM+GlD2wyNCQGs5eXF+ywlpaWqampg4MDjPOBAwfoQQyCUXEUI8Z0QEBA69atzc3NV65cWaJDXBPeafxRivBQB0EQhCbA3h5MSkqKjY0NDQ2FLHFzc3NycmKfkofNbNSoEVs8xsXFxdPTEwXCwsIOHjzI7g3SwvHFJycnBxIxJCRkwoQJlpaWdevW7dSpE7zG+vXrz549SzcQ1IhGvdPo7e3NJ2k8wjuNCN709PSwzeRi7dq17ezs6KZiWfHw4cO4uDg/P79hw4YZGBiga4YOHYqfSCzR6JrQZCqCYkxISBgxYoS2tjbiEoQpfHbJUObvNH7//fcwqR06dMB/vXHjxqtXr5btB5oJgqgkfPnyBdIOwdz+/fs3bNiwcOHCiRMnDhgwwMLCQl9fn31Z3traGioR1gmCELoR6pEJwnL9DW5NJi0tLTw8fPr06RCHcA3oi0mTJm3ZsiUlJQUani9NqA8Neafxu+++q1atWtWqVfmM8gB7p/Hp06ctW7ZkorFbt24NGzYcOXIkJErFW3m43PHixYuDBw8uW7bMwcEB6tHU1HT48OFBQUGnT5+ma3yVh3KsGN+/f79u3Tpzc3Oops2bN5f+um3snUZES/xFs5KHvdOIgKBGjRomJiYwsvgLO4sogQQkQRDF582bNxAbR44cYfcJ2fcG27dvr6urC0HC3iF0dnb28vJiHxhMTEy8ceNG+f20YLnj8+fPp06dCggIQAyHTjEwMHB0dFy5cmVCQgK9w1nKsHcaeT9dumA+Wlpa8qkaD/dOY2ZmprW1NSyMsbFx69att2/f3rdvXwxvDw+PUrsfQBTKw4cP9+7d6+Pjg85q0KABBD8cQVRUFDQ/X5SoQJRLxXjt2jWEL40bNx4zZkxlNiKwrfXr15d97h/8/vvvbAMCEu0DW0zX5wiCUMiLFy8uXrwYHR29fv16X19fWAz2zQlEbFAgHTt2HDp06NSpU5ctW8a+M3H79m16oagMgRSEhp83bx4CtYYNG/bs2RNB2759++hdxEpOXl5es2bNbty4wWeUQ/C/jB49GiYI4Q1b3B46JCAgoF27dtCQq1evppdxNIrc3NyrV68GBwePGDHCyMgI4xB+ZNOmTTdv3uSLEuWccqYYDx8+3L9/f1NTU1gNWs8NrF27Foa1uvQdcUR4iPYQ9iGASE1NJaFIEAT4+PEjlN7x48dDQ0MXLVo0YcIEGAozM7NatWrBlkJ1uLi4QHgEBQXt3r379OnTkB9qWVmaUAvoPqjEWbNmQcBDJQ4YMGD58uWnTp0qiUXdiHJKdHR0BVt9Z/HixYhqxo0bJ5t44cIFNzc3bW1tBweHAwcO0OPWGsj9+/d37tyJbjI3N0dQ6urqunXr1rS0NL4cUQ4pH4oxJydn+/bt7dq1s7Ky2rVrF2khAVhMY2Pj6tK15k1MTEJCQgoKCvhCBEFUAtjnm2NjY9etWzdjxgx7e3sYTB0dHRgHCwuLIUOGuLu7+/v7R0REMFkou7o9oVHAx6GPIO/ZuoUQAytXrrx48SIpeUIhGCeHDh3iU8s5EB6wXfIPNWRlZYWFhfXs2bNJkyaYF2W4ZD2hnOfPn8PdTJo0qXnz5qamptD/+En9VX7RdMWYmZkJi2BkZIRwJyEhgc8mJBL4ifr162tra69fvx5uo3///rT6PEFUYD59+nTjxg1M/JCQkFmzZjk5OXXs2BGhlZ6eXpcuXUaOHDlnzpxNmzYdOXIExWhhzHIETPe2bdscHR2hEhEQL1y48OTJk/RGOqGcCxcumJubV8iLxVevXt27dy+f+pWUlJSpU6fC9I0ePfrixYt8NqFJPHz4cMeOHa6urugv+Ck/P7+zZ8/SJbDyheYqxo8fPwYEBBgYGIwZM4aeh1ZO9+7da9asuWjRovz8/MDAQH19/dDQUL4QQRDljXfv3l26dGn37t3Lly8fO3YsVARMIjyulZUVhKKPj8/69esPHjyYmpqamZnJ70yUB/Ly8k6fPj179uw2bdoYGxtPnDgxKirqw4cPfDmCEAGmYOPGjXxqRaFQUZGenh4cHGxmZmZtbR0XF0ePTmg46KCkpKTFixf36NEDvszFxWXXrl10ZbNcoImK8dOnT6tXrzY0NIRWvHPnDp9NyJGSklKjRo2BAweynxDYnTt3HjJkCH02hyDKC2/evIEfDQsL8/Pzc3V17dKli7a2NswgwqDx48evWLECQuLy5cvyz2gR5ZGsrKyYmJgJEybo6up2797d39//2rVrfCGCKIwbN24YGxvTS615eXnR0dHdunUzNzffunUrvbtULnj37l14ePjIkSMhHfv37x8SEkKPyGkymqUYMcnXrFmDIGnUqFG3b9/mswlxoK6bNWsm/MzNzV22bJmBgUFkZKRMKYIgyh5Mz1u3bsXFxa1evXrixIkQDBCHCPvgMt3d3QMDA6ElUlJSSv+LQURJ8+nTJ9hkBwcHREiDBg3atm0bXdcjisPo0aNhMfjUSsy5c+eGDRvWpEmTTZs2kW4sL2RnZx89etTNzQ1+sHPnzqtWrSLpqIFokGJE/NSqVStHR0fEUnweURjPnj3T0tLi7OO1a9csLS2HDx9OrxoTRFmRnp5+8eLF0NDQ2bNn29vbt2nThn3AytnZeeHChbt377569So9U1qxycrK2rNnD0wxhCJ8HEQjXQ4gik9aWpqBgQGNJXlgVKEbTU1NSTeWO86ePTt9+nQjIyNra+vg4GC6pqY5aIRivH79er9+/Tp06HDixAk+j1AZRJ/yn2OCrZw/f76hoeGuXbu4LIIg1M6nT58uX74Mfejt7T148GBjY2MdHR0bGxu4wPXr1x87dowunVYeCgoK4NQmTJigra2N+DUiIoIuDRBqZPLkycuWLeNTia9AN8IIm5ubR0dH83mEZpOfnw/j6ebmpq+vb2trGxkZmZ2dzRciSpcyVoxv376dOnWqkZERAiz6tE4xQSxy6tQpPlVKcnJyx44dBw0aRNEqQaiXtLS0mJiYhQsXOjo6IjTR0tLq1q0bzFpwcHB8fDzd3q+c3Lt3D0OiadOmXbt23bBhw7t37/gSBFE8njx5oqurS0uGFEpiYqKVlVWvXr1oPdXyyJcvX2JjY+3t7THa3d3dqRPLkLJUjPv27TM2Np49ezaZPHWhRHXn5uYGBATo6+uHhITQYmIE8W3Ae6WkpISGhs6YMcPa2rpRo0bt2rVzdXUNCgo6fPgwYjh+B6IyATPLvqUO1zZv3jx6G58oOaZOnern58enEopAzBMWFmZiYuLh4UEBZznl5cuX8LNwuO3bt9+0adOnT5/4EkQJUzaK8c2bNyNHjrSwsLhy5QqfR5QkaWlpNjY2iHQplCEIVUCoAYm4bdu2adOmde7cWUtLq1OnTm5ubhs2bLhw4QI5LYLx/PnzxYsXIyS1tbXdv38/vTpFlCh37941MDAg8VMkMjIypk+fjkmq5BuPhOaTlJTk6uqqp6fn7e2NmJbPJkqMMlCMmKvGxsZ+fn7kU8uEgoKCLVu26Ovrr1ixgrqAIORB9I+gf9asWb169dLR0enatevMmTN37twJ6Vjox8GIysb169fHjx+P8MXHx4fCF6J0GD58eFBQEJ9KqMCFCxc6dOjg5OREXyoq17x48WLJkiVQE0OGDBF7IYtQL6WqGDMzM0eNGmVlZZWcnMznEaXLs2fP7O3tLS0tYT35PIKoZBQUFFy7dm39+vWurq5NmzZt2bLl2LFjN2zYcPXqVbqqQoiRkJAwaNCgJk2arF27NiMjg88miJIBXhtmihYC+WZg1WfPno02PH36NJ9HlCvQlREREe3atbO2tj58+DCfTaiV0lOMqamprVu3njJlSk5ODp9HlBF79uwxMTFxc3Oji21EZSMvLw+B16pVq4YMGaKrq9ujR4+5c+fGxcW9efOGL0oQfyYxMREBSocOHSIjI+maAlHK9OnT548//uBTiSISHx+P+IcWm60AFBQUxMbGdu7c2crKav/+/Xw2oSZKSTHGxMRoa2tv27aNzyDKmoyMDG9vb0NDwx07dmDW8dkEUbG4efNmcHDwsGHD9PT0EHgtWbIE0X9WVhZfjiAUcfr0aQyb9u3b79u3jwwmUfocPnzYwsKClq9TC69evbK2th49ejTdyagYHD9+vGfPnl26dDl58iSfRxSb0lCMAQEBpqam9PSjJpOSkoJpBtOJDT6PIMo5GRkZiO+nTJkCQ9S5c+d58+bFx8eTSiSKRFpa2tChQ1u3br17926K14kyITc3F3Lx4MGDfAbxrWRnZ48aNQrBz9u3b/k8onwSHR1tbm4+ZMiQmzdv8nlEMShZxVhQUODt7d2xY8eXL1/yeYSGgc7avn27oaEhuozeySEqAI8fPw4JCenfv7+BgcGYMWPCw8NfvXrFFyKIwkhPT581axZGUXBwMC19RJQhGIF2dnZ8KlE8EPzMnz+/Q4cO9HpOhQGGesuWLcbGxtOmTaMlhdVFCSpGTEI3NzfIRZqE5Yh3795NmTLFxMQkKiqKzyOI8sCjR49WrVrVuXNnMzMzHx+fU6dOKflOKUEoJzIyEmGHp6cnbCOfRxClyPPnz/X19Wk93hLC19e3S5cupC4qEhkZGV5eXqampvv27ePziKJTgopx5syZnTp1IrlYHjl//ryVlZWtrS3d0yfKCzA1Gzdu7NGjR4sWLebPn08LMhPFBAG6vb09LOG1a9f4PIIodUaNGrVw4UI+lVAfM2bMsLGxoecIKhiXLl2CGR86dOiTJ0/4PKIolJRi9Pf3J7lYrsnLy0P8bWho6O7uTs/3E5pMfHy8s7MzxqqHhwe9L02ohfDwcAMDAzgyCh8JTSAxMdHMzOzz5898BqE+CgoKhgwZMmfOHD6DKOfAjK9evRomPTY2ls8jVKZEFOOhQ4eaN29Oi9RXANLT0318fPT19QMDA2kReUKj+PTpU0hISJs2baytraOioujrZIRaQFA+adIkCwsLesKC0BDgfFu3bk2fmysF3r1717RpU1pbqEJy9erVVq1aTZs2jaKFb0P9ivHRo0dGRkboGD6DKLekpaU5Ojq2bNkyJiaGzyOIUuf9+/dLly41NjaePHkyre5LqBHYug4dOowfP56W0iU0B39/f7hgPpUoGc6dO2diYvLp0yc+gyj/ZGZmjh071tLS8uHDh3weURjqV4x2dnZr1qzhU4nyz8mTJ62srPr06UNviBFlxefPn1euXGlgYODt7f3s2TM+myCKwenTpw0NDbdv385nEETZcePGDX19fXoFqzRxdXVdtmwZn0pUFDZv3mxiYnLp0iU+g1CKmhVjREREjx496FtVFRX0bGhoqLGx8aRJk168eMFnE0RJEhcX16xZswkTJjx9+pTPI4jiER0dDbl46tQpPoMgyo4vX75YWVmFhYXxGURJ8uDBA11dXXq1qgJz5MgRAwMDBBV8BiGOOhUjTFuLFi3Onz/PZxAVi8zMzAULFsCe+vn50VLURCnw4cOHkSNHWlpaXrx4kc8jiGKzbds2U1PT69ev8xkEUabMmzfPycmJTyVKnjFjxoSEhPCpRAUiOTkZZj88PJzPIERQp2Lcvn370KFD+VSigvL06VM3Nzd9ff2VK1fSE/9EyXHt2rUWLVr4+vrS2ktESRAVFdWkSRN6rYXQNM6ePWtiYkJrlZcJBw8etLa25lOJikVaWpqxsTEtoKoi6lSMPXv2PHr0KJ9KVGgw30aPHm1kZBQSEkIBPaF2zp07RytiEyXH8ePHYb5oWVRC08jIyGjRosWRI0f4DKJUQDyjra396tUrPoOoWKSkpBgaGsbHx/MZhBxqU4wPHjyAUs/Ly+MziEpAamqqvb19s2bNduzYQWOAUBfJycmQiydOnOAzCEId3L59W19fn77hSWggEydO9PDw4FOJUsTa2vrkyZN8KlHhSEpKQqQBd8BnEH9GbYoxLCxszJgxfCpRmUDg1b9//9atW+/Zs6egoIDPJoii8PTpU1NTU3oxnSghsrOzLS0t//jjDz6DIMqayMhIeFJ63aNsgWgPDQ3lU4mKCCSMhYXF58+f+QxCBrUpRnd3940bN/KpROUjMTGxe/fuVlZWBw4c4PMIQjUyMzMxhNatW8dnEISa8PDwoKuchAZy48YNY2NjuuNR5iyWwqcSFZRx48Z5e3vzqYQMalOMw4YNO3jwIJ9KVFYgFzt16mRhYREZGZmbm8tnE5pEdnZ2cnLy9u3bNefxvOHDh7u7u/OpFQsNbPbKA9rc1NQ0MzOTzyCKB43qYpKent66dWuKpjQBX1/fVatW8alEBeX9+/f6+vr37t3jM4ivqE0x9ujRQ7mHWLhw4VQZbty4wZcgKhzx8fF9+/Y1MzPbsmVLTk4On61WMMB27twp/ETggmFGX1dTzsePH/v16/fDDz/88ssvJiYmMTExfImyYN26dd26dZNdSOns2bNTpkxBopWV1YIFC8q7TdfMZq885Ofnd+nSJTIyUjaR81AMMiCqQ6O6+GBkDh061N/fn/2sYHav3OHu7o7QhSxD5WHVqlXswZPY2Fj08suXL4WsDx8+ICU5Ofn/L135UJtihDBQPoXq1atnbGxsb2/fs2fPKlWqREdH8yWICsr58+cdHByMjIyCgoJK7qJ+w4YNZb9bhemNYUYXCJUzYsSIf//73ydOnNCc904xWjBUnjx5Ipu4fPlyhPhz585F/FStWrXq1atnZGTIFihfaGCzVyoiIiJ69erFJcKAwEkN+go8GhmQIkGjuvh4e3s7OzsLDVjB7F65A3FLTEwMWYbKQ3p6euPGjRGmpqSkVK1aVfZBp3nz5v3nP//5+PGjTPFKh9oUo6Ojo/IV8NHWgYGB2Lh69SopxkpIamrqmDFj9PX1Fy1aVBIfmNIoxVjSMZNa6s/Kyvrb3/7m6+vLZ5QdOKVWrVopfyJr5cqV6NnExEQ+o5yggc1eVqhlGBcVHLR9+/by46dsDUgpNIVaDiFWCY3q4rN582YrKyux1W7Ku91TL2LjUI3k5+fr6uq+fPmSLIMqqKWSQimFozg4OERFRWHD1tb2119/ffPmjUS6sMJvv/2G2JUv/WdK4fTEUMuhC61EbYrRz89v6dKlfKoM//M//8NUIqcYHz9+3KdPn39K6dev39OnT1n6kydPBgwYAJ35888/Q/RnZ2cjlGz8Z/r27du2bVvhn4RJtbS0lEjXRJYtZmxszArIgjJz586VSNto0qRJY8eOlS/g7e0NS/GPf/yjdu3amzZtYulwimZmZjgrIyOjw4cPs0T5s2U1KDwNpAvmxtnZWUhXWInCw6EGwTdv2bKl0JqF8o8ePerevfsvv/zy+++/z5o1q/S/hPHgwQMPDw9tbW20rdDXakG5WZdvxr1796KRf/zxxxo1akyZMoUVE2tY+d3nz5/fo0cPljtw4EBhGXT8g507d8Zor1evHrM7EvFqVUmXSBdCwKleuXJFIlK/LApHkcJZdvHiRTTRzp07hw8fbmpqigGDRmOViJ2A/ByMiYkRG3UpKSm9e/dGi6GYl5eXUJsSZs6cOWHCBD71zwwePPi7777DfyRR1C8SpfNO4YxW2DgSkZaURaz7FJ6VgPJmL9IZip2AWI98Q/2sDSGxjh07xhIV/ndFPZNCh3HJcejQIRyaTy3MgIg1kUTaILLjjfkjsZnCtmXbU2FTKOyps2fPYkKlp6dj28DAYOvWrdgICQkZP34820vhmSg5hBq7jEa15JssnkBcXBzqYWZNIeXd7klEjig2Uzp16iTs6O/vj3SMf4nIOFR4SlOnTlUYH6oIehO7S8gyFDbsFVYii8ImEmuH4vc7ly75cwRVKIGBgXPmzJFIP+5VtWpVNpEXL17873//m91gVL2zJOItr7BNJNLKxVogLS1NtqoNGzawMgoPraRlvq0TGWpTjLB3gwYN4lO/AhuEOXbt2jXJnxUjFAu8i66u7p49e3CW2GjatGl+fn5ubq6Jicm//vWvZcuWpaamIrhHyYSEBJghBweHv//974el7NixA1Ux24S96tat6+PjI5HOmV69erEyo0aN+stf/vLn0/lfUIapRGhdyKdz587JF4CBdnFxCQ8Pt7Cw+Omnn9gTlSi/a9eu69evt2nThhkghWfLalB4GkiHWsMGGgHnz9LFKpE/HKth3LhxbHvFihXKa5YtP2TIEH19fcRM2AtiCTaUFShlXr58iTmJ7h4xYoTyh5lVB2a9RYsW/l9Bu8madflmhBFBv9y9e3fp0qXCKBJrWPndJ06cqKenx3LNzc2HDRsmkQ5CzMCOHTteuHABxrp69eqsgFi1qqSDy5cv4wzPnDkjVr+AwlEkNsswZ1FttWrVMDjREfD0wtKRYicgPwdfvHghNuoQN2BKRkRE4IiyHleMpKSkJk2aMLcnz9u3b/Ev48xxwtu3b2eJ8v0iUTrv5Ge0WOMobElWj4BY9yk8KwHlza76GbLyCk9ArEe+oX7EjjhhQ0NDlGGVKPzvinQmhQ7jEsXOzm737t18qtK4UEkTgf79+3ft2hWj19PTE7uwmEBspnDtKdYUCnvq1atX2trasDwogBRYb8QQ8PHr169XciZKDqHGLqNRLSm6xRM4efIkToYFSBwVxu6JHVFspqBhT58+LZFe069Tpw5+IjoXG4cKTyk2NraKovhQRRBFzJgxQ0KWQemwF6tEQKyJxNqh+P3OpUtkAhghRQkY82hett23b9+//e1vkHOYfRjeLFH1zpKItLxYm7DKFbaA5Kt0Cg0NRVvhP12yZImSQytpmW/oRAG1KUaMWqje9+/f8xlS0CgY5ewRfFnFCOmMbWEN/TVr1uDn+fPn0bXYmDp1qmwlDOjm//znP2ybWQFbW1ts79u37/vvv2evP4k1liwGUsWIjsQEU/iOPgowGSCRXm3C+cjGGR8/fpw+ffpf//pXbIudrdhpsD5Di2E0QOSwdLFKGLKHk3w9tzQpMGrKa2bpOBPoNPyzq1evZokoIPjLMuHTp0+bN2+2kIINsadxVARmHf9136+w12UFxcjgmhFcunRp2rRp/+///T+0pES8YRmyu8P3YIPNf0Exsk6EZYEMhkHHNrusJVatknRoeyQyby3YO7H6BRSOIrFZhvgDG0ePHmXpCDJq167NtsVOgOXKzkFWWOGog6Lu0qULNpo3bz58+HChvELQkigMA8pnfAXuxNraGseFg/Hy8hKu1UnkulXJvJOf0WKNo7AlOcS6jyE/2BjKm131MxTKy5+AWI98Q/0wknfv3kUQCR/JCjDk21z1Myl0GJccsIE6Ojryt00kSuNCJU0kkQ5vNIVEumJTla8xAUN+pnDtKdYUCntKIr2q8uuvv2I+wpIjYrCxscE8FepXeCbKD6GuLqNRLSmixRNAS6JCsXC2wtg9sSOyn/IzBblsPmJQ/fe//60ijZvFxqHCUxKLD1UBjg9BPJpLQpZB6bAXq0RAeRPJt0OVYvc7S1cSwCgHUtDR0ZFt4yhVq1bV0tL67bffMr+uwaF6Z0lEWl5Jm4i1gLAXe0oW84spRrFDK2mZb+hEAbUpRjB69GjE/XyqFCsrK2GlAVnFGBYWhu2LFy+yLDQZfkZERLB0he86ciNs7ty5P/74I+IA6Pg+ffqwRDHTKQvKYCjgKAqfUJL8uZLc3Fwo3hnSC05BQUHwhejIBg0aMLModrZip8H6bOLEiWZmZmgxli5WifzhJNIafv7559+k/PLLL8prZukwlzAlOMTx48dZ4siRI7E72y5bTp48Cf+qq6vr7e2dJlVu34ASsy4RaUZ0KxJRrH///ux5A7GGld+dXaEZMWLE7Nmz//3vfzMjzjoRZfS/smvXLiXVKknH9g8//ICaMYEFeydWv4DCUSQ2y9htAeFxiODgYPy8J12OT+wEWEl5K69w1B05cgT/FxoNnqzQ+Gnnzp3yi5EoBNEMTubQoUMSRf0iUTrv5Ge0WOMobEkOse5TeFYCyptd9TNk5RWegFiPfEP9MBoohsoxBlgBhf9dkc6k0GFccqC12ZV4eZQYECVNhGb817/+xa7lqxIXcu0p1hQKe0oivbACY8U8F0CbC0Gw2JkoOYQau4xGtaSIFo9x6dIlQ0NDdh9MOeXd7okdkf2Unyn9+vVD5enp6YMGDYJUriKNm8XGodgpKYwPVQEKE0KdbZNlYPUoHPZilQgoaSKJonZQS78bKA1glIN/bdq0acJPaG/sO3/+fCFF9c5S3vIK20SsBZCFfwQHZWvIC4pR7NBKWuYbOlFAnYoxKSkJmlV2TXzGuXPnqny1dJI/K8bExERss6euwcaNG6tIb8gCbLCZwMGNMMwKaCEXFxdMFcHsiplOWQykEhx9iQOhvfjsP1eSnJyMYmvWrImPj8dGSEgIEtFhzCyKna3YaSC9W7du6E40xbZt21i6wkoUHo7VoHrNLB0mDwMUA064sNGuXTuks21N4NmzZwsWLMApDR48GKNF1ryqghKzLtaMDMx5NAt7p1lhwyrcHaeHMTx06FB3d/e6desyxcgu1QiPgggorLbQ9E+fPqE369evj6iiisw9Rvn6BRSOIrFZduPGDWwcOHCApY8fPx6TKCsrSyJ+AqykvJVXOOpSUlLQVpMnT9bS0lL+jBYMa/PmzXEUPkMRqampOJnp06cr7BdJYa3KtoUZLdY4CluSQ+GBxM5KoNBmZ+mFniFXXkU7UNT6J0yY8ObNG/gweL6cnByx/65IZ1LoMC45EDUKb55wKDEgSppox44dCElfvHghUS0u5NpTrCkU9hS2ly5dijAoISEBB128eLGlpaW2tvbnz58l4meiyiGK32U0qiVFsXgMhEyoSrgxq5zybvfEjsh+ys8URGX/+Mc/5s2bV61aNRbxC/ea5MehwlOSiMSHhYIg1tzcHLOM/STLIKTLD3uxSgSUNJFEUTuopd9ZulgAoxw3NzfZA2HGoUdk1yhWvbPEWl5Jm4i1gES6kDJEHdtFUIxih1bSMt/QiQLqVIwS6cvZ3G1GNGvPnj1r1KiRlpZ2T0pMTEwVqWVBVnZ2NpqgTZs2169fv3LlSsuWLRs1aoRERJBGRkbVq1dHm6K59+3bJzyyyI0wifRVTlQo+1KpWGPJIpQZO3bs3/72t/v378sX0NXVxVB7/fq1vb09KoGkiYqKwrH27NmDLsdpwxhhJImdrdhpGEjvO3t6emJb6DOFlSg8XFFrli2PvoApvHPnzv79+5FbpMf6SwdMv4iICIxpMzMzmEI0Pl9CBCVmXWEz3rp1Cz4Ygw1NAXcCsSoRaViFuwsHksg8lZorfQkEQ/HgwYOoGUP64cOHEpFqlaePGDHi/PnzpqamtWrVEq6QidUvoHAUic0ylG/atClO/t27d8ePH69Zs2b//v2VnwDLlbfy8qMOTldHR8fCwiI/P7/QZ7R27drFnh0S49ChQ4hIMjMzHz165ODg8D//8z+wJ2L9oqRV5We0WOMobEnhfIQK5Q8kdlayKGl21c+QlZc/AZYu3yPfVr+zs/Pt27dHjRrFLtWL/XdFOpNCh3EJgR7Ev8ZkjDxKDIhYE8GFYYIgOGOuDT4eu2BkstaTKJopXHuKNYXCnsKAQSQBQSL5+rYSDgrfv2jRIiVnouQQ6u2ySj6qi2TxJNL32VAPzBqfIUNFsntiR2S58jMFhx4/fjzqdHV1hbOuIo2bxcahwlNiyMeHhYLoVHZVDrIMwknKD3uxSgTEmojlyreDWvrdQGkAo4S8vDzsy27PYvxjJHz33XdBQUGyZVTsLCUtr6RNxFoAugkyCmqWnYOgGBUemtUj1jLf0IkCalaM+P8NDQ2fP38upIwcObKKCGhuifRBYX19fZZibGwM4ct2hKqB2WXpcD9MpkukH0WB8hbql0hfVEWZ5cuXCyk4h/FfF4ny9/f/5ZdfhCwBoQwaCCYSnccVQMs2adIEoxly4u9//zv73DNa1srKCoeDyJw/fz5qhpOQiJyt2GkgHTaIBS7oMyFdvhKxwxW1ZqE8mhdDExViGkDeiwVPmgAm+aRJkzCIIcYwhQQTI4ZCs85e2lTYjJCI8GpIxDwcPXo0ykhEGlbh7sKBQOvWrYVXC+7fv9++fXsUxrD55z//icEpEalWeTpqqF27NvzW2bNnMUfw86x0vSyF9csiP4ok4rPs5s2benp6VaVApQv6XMkJSOTmoMJRt3jxYjQvDIJE+sas8vgJzStc0FUIOggjlp3/b7/9FhoaKhHvF7FWVTijJeKNo7AlZVF4ILGzkkWs2Yt6hgpPgKXL94jkm+pniZiGzMCK/XdFPZNCh3FJAL+r5Mk0JQZEItJEYt5NuI0pP1NYAaE9JSJNobCnEC4gLmSLBSAcZOuWTZ06FQVgf/50Bl9hZ6LwEGrvsko+qotk8cLDwxF1yK+3x1HB7J7YESWKZgqcPs4Eoe2NGzcQnVf5psEsURQfKufBgwc4ybt37wopZBnYtsJhL1aJLAqbiCHfDmrpd9aeYgGMEqKionr37i2R3v/HLjgQ2pa71qBiZykfA2JtItYCZmZmAwYMENYFxCwTPk4hf2hWj1jLfFsnMtSsGMGyZctk37hFq8kbDqClpcUUI+PVq1fshU4OeJ1Cv92HMYeJIbbE4jfDNHp+fv6jR4+45cLYRQVsZGRkyB5XlbMtFPlKxA73zTx9+lR4i1fDwcjetWuXnZ0dRhEsYKEuVgnyzZiTk4POVfHSo/zuSkCBZ8+e8anqo9D65UeRRHyW4V8r9D8qOVJSUlq2bMmnypGdnZ0iBb0mm656vyiZ0RLxxlHYkoWiylnJN/u3naHqqKt+Vf47VSh0GKuXhQsXIqznU4sC10Twbs2aNZPJ/99oW4gJigTXFMp7Sh5VzkQtrV1oJTSqCwUxEuI/WU2ihIpn98SOWCQKHYcCRYoP0Uo2NjbCmzuqQ5ah0EpKud+/Acy15s2bsyATETIEm4rBoYDs6anS8mppE4ZaWqbQStSvGGEvunfvzi5yAAhlKyurPxf5XywsLGYofVZeFRITEyGXoYlVv4CkOmxm8qlEGfH8+fPVq1e3b98evnbp0qViN82Jcsfs2bPZ8xUljebP6JI+w5KuX8Oxt7ePjY3lU4tBWFgYon/ZFMTZEyZMQGQgm/gNFLWnSu5Mik9R/5eiUtL1qxHoqOHDh/fo0UO4AVsKlKP2US/fEB8uWLDA1tY2/+vnMb6ZkpuPRe3NkjuTigdCEWdnZz71W6mQLa9+xSiRPv7btGlT9fpmhaSmpi5evFj1F5qLRGBgoMKvbhBlS3Jysre3t4H021OhoaEqXjskNBZzc3NMZD61BND8GV3SZ1jS9Ws4zZo1e/DgAZ+qkVSknirp/6Wk61cXN27cgK3z9PSUXx2wRCkv7aN2ihof7t27t0WLFu/eveMzNIlK25slzZ49e1q1akXxpHJKRDGCa9euIaY/ceIEn0EQ6iA3N/fQoUMuLi7sRcewsLAPHz7whQiN58WLF/r6+kV99oMgisqnT5/q169PI40oEzZt2gRDJ7xDSGgaSUlJ6CD2AUaisnHy5EkIltK5cl2uKSnFKJF+VAN9ICy3TRAlwcePH+GGR44cCek4YMCA0NDQ0nzghygmsbGxwtdyCaLkuHPnTuvWrflUgihhXrx4MXjw4G7dun3zp4aJkubKlSuGhoaJiYl8BlEJiIuLg1RRZV0cogQVo0S6MmfTpk2XLFlS/OfCCUI5nz9/jo6OHjNmDKRjnz59QkJClL/CS2gCQUFBs2fP5lMJQt3Ex8cPGDCATyWIkgQuCVJk6dKlbD0YQgNJTU01MjISPhhOVB4wKxcuXNisWbNr167xeYQiSlYxSqTvetra2iKCv3//Pp9HECVATk7O4cOHJ06cqKOjY21tDU1Cy+RoLF5eXhs2bOBTCULdhIeHC6uNE0RJk5GRMWHCBHNz80uXLvF5hMZw7tw5yMX9+/fzGURF5+bNm127drW3t1fXaqWVgRJXjKCgoGDjxo0GBgarVq0q5Xe+icpMbm5uQkLC1KlTDQ0NO3XqtGLFCnpLQdNwc3Pbvn07n0oQ6mbDhg1eXl58KkGUAGfOnGnevLmnp6cmf/GYgFBEXEoPo1Y20tPTZ82aZWxsvHPnTj6PUEppKEbG48ePR40a1bJlS7qcQ5Qy+fn5p0+f9vHxadWqVZMmTdzd3Y8ePZqdnc2XI0qdyZMn79ixg08lCHWzcuVKPz8/PpUg1AqCUQ8PD1NTU7gYPo/QJAIDAxEM0GInlYqsrKzVq1dDK86YMYPWSvwGSk8xMs6dO9e7d28rK6tS+PYGQciTlpYWFBTUt29fLS0te3v70NDQ58+f84WI0sLX13fVqlV8KkGoG8hFf39/PpUg1AeiGmhFKEZao1+TQe8MHz68W7dutNJB5QH6cOXKlSYmJhMmTCgv31jSQEpbMTISExNtbGzat2+PeJ1u9RBlAtxGZGTk2LFjtbW1u3TpsmTJksuXL/OFiBJmw4YNCLD4VIJQN0ul8KkEoQ6eP3/u5OTUtm3bpKQkPo/QJJKTk83MzLy9vekNqUrCzZs3vby89PX18Ze0YjEpG8XIQIDu4uJibGw8f/586kiirMjLyztz5sy8efPatGmD0ThlypTY2NjMzEy+HFECIMDq1KkTn0oQ6iYgIACOhk8liOJRUFCwZcsWxKNLliwhEaLJwNGvWrXKwMAgJiaGzyMqHFlZWRERETY2Ni1btgwKCnr37h1fgig6ZakYGc+ePVu6dGmTJk0GDBiwe/fuz58/8yUIorR48OBBcHDwwIEDGzVq1KtXr2XLll24cIG+DVNyIMZCU79//57PIAi1sm7dOh8fHz6VIIrBpUuXevbsaW1tffv2bT6P0CRSU1O7dOkyaNCgp0+f8nlEBYKtdzhx4kQ9Pb3Ro0fHx8cXFBTwhYhvpewVIyMvL+/w4cMuLi7o5gkTJqDLkcIXIojSIjs7G4PQ19e3Q4cOjRs3dnZ2Dg0Nffz4MV+OKDajRo3auHEjn0oQamXz5s2enp58KkF8E8+fP0egYmJisnPnTgpJNZmcnJwlS5YYGBiEhYXxeURFQfimGhRE//79Ea3Ru8QlgaYoRoGMjIwdO3bY2toaGRlNmTLl+PHj9KQHUba8fPkyIiJi7NixhoaG5ubmXl5esE2fPn3iyxHfRGJioqWlJUVdRIkCtwKHwqcSRBFBbOrv76+rq+vn5/fx40c+m9AkYmJiWrRo4erq+uLFCz6PKP9kZmZGR0ez1SggFDdu3IhojS9EqA+NU4wCb9++3b59u52dnZ6e3qhRoxCy04PIRJmTkpKyatUqW1vbRo0a9e3bF6FDUlISXdQoDtCK3bp127NnD59BEOojMjJyzJgxfCpBFIX9+/dDgYwcOfLhw4d8HqFJpKam9uvXz8rK6syZM3weUc65fPkyQi8bGxsdHR1nZ+fw8HD6VEbpoLmKUeDjx4/79u0bP368gYEBvVpGaAhZWVnHjh2bPXt2586dGzZsOHDgwICAAIzM3NxcvihRGCdPnjQzM6PbtkTJkZCQYGtry6cShGokJib27NkTCuTUqVN8HqFJ3L9/H+GikZHRtm3bKFCsMDx//hzKcMyYMfr6+h06dPD19cVMpIv1pUw5UIwCmPyIyKEYra2t9fT0nJ2dN2/efOfOHb4cQZQu6enpBw4c8PHxQTwB9Th48ODVq1dfvnyZ3JXqTJw4kT6zQZQcaWlp5ubmfCpBFEZSUlLfvn1bt24dFRVFD89rMk+ePHFzczMwMPD396cHhisA9+7d++OPPxAbmJmZNWvWDBuRkZGvXr3iyxGlRXlSjLJkZGTExcXNmDHDwsLC2Nh4zJgxW7duvXnzJl+OIEoXqMfY2NiZM2d26NBBS0tr6NCha9asuXr1KoUaysGMhldATMZnEIQ6yM7OrlevHk1DQnWuXLkyaNCgFi1ahIWF0VJ8mgykhYeHh56e3qJFi2jJk/JLfn5+SkrKpk2bXF1dTUxMMPXGjx8P0UgPgWsI5VUxyvLmzZt9+/ZBPVpZWeno6Dg6OgYFBSUlJdGHOoiy5d27d9HR0V5eXu3bt2/cuPGQIUP8/f1Pnz5NI1MhN27cMDQ0pE9gEyUERheti0CoArQiAglTU9OtW7fSk2+azOXLl0eMGIGpvWzZMlrqojzy9OnTmJiY2bNn29jYIEzq1KkTgvm9e/c+f/6cL0qUNRVBMcqSkZFx5MgRPz+//v37a2trd+7ceebMmbt377579y5flCBKETizuLg4mMWePXs2aNCge/fuPj4+sbGxb9684YtWYuLj4+H7z58/z2cQRLHp2rXrpUuX+FSCkOHw4cN9+/Zt3rx5SEhITk4On01oBrm5ufCeffr0MTMz27hxY3Z2Nl+C0FQQCx0/fjwgIMDR0dHIyMjU1NTJySkwMPDs2bNZWVl8aUKTqGiKURZ2g3vz5s2TJ09mtx/t7OzmzZsHQ0P3uIkyBO4NxhEWc9iwYY0bNzY3N584cWJoaCh9BloiFY0GBgYJCQl8BkEUjxEjRuzfv59PJQiJ5MuXLzt37rSwsOjYsWNUVBQtYKaxvHz5cvny5SYmJhD2mM70tLDm8+DBA0TdCxcutLe3R8dBJWIDPw8cOEAvJZYvKrJi5Pj8+fOlS5dCQkImTZrUoUMHXV3d/v37z5o1a/fu3ampqWR3iLLixo0bW7duHTdunJmZGXusetWqVSdOnMjMzOSLVg7OnTsHv7J+/Xo+gyCKgZ+f39KlS/lUonLz4cOHNWvWwODY2dnRhSqNJT8/Pz4+3sXFBZGbl5fXrVu3+BKEZoC45fLly6Ghod7e3n369GncuHGbNm1GjhwZGBh49OjRt2/f8jsQ5YdKpBg5srKyLl68CAE5efLkTp06YVh37NhxwoQJ69atg2F6/fo1vwNBlDwvXryIjo728fHp1atX/fr1LS0tMT63bNmSkpJSqS5qPH782MrKCio6IyODzyOIbwIzy9HRkU8lKisIACZOnAjXDzsDA8tnE5pBWlqan5+fqalpjx49tm7dSougahTZ2dnXrl2LjIycO3euvb198+bNMaGsra09PT0RXSclJVF/VSQqr2KU5/bt2wgpFi1ahKjC3NxcV1e3T58+Xl5emzZtOnPmDF0aIUoZSET2WPWkSZMgHRs0aNC7d+9Zs2ZhlD558oQvXeHIysqC12nWrBl9gplQCw8fPmzSpAmfSlQyPn36BOHRsWPHVq1arVmzhpZL0UzevHmzZcsWaA8TE5N58+bRd9Q0gQ8fPly8ePGPP/7w9fVFnNy2bVuEJZ07d0aIsnbt2qNHj9JyNRUbUoyifPz48fLly9u2bZs5c+agQYNMTU2hIWG/PDw8goODjxw5cv/+fX4fgigxMjMzExMThffFDQ0NseHv74+hWIGDHjghTD03N7cK/D8SpYa2tjatNVUhycrKKnRR06tXr3p6euro6AwfPjw+Pp7PJjQAaJIdO3YMGDAAU3X8+PHHjh2rVA/XaA4FBQV37949ePDgmjVrpk6dyr6Crq+vjw13d3fow0OHDt27d4/fjajQkGIsAtCQycnJu3fvXrBgAVyOhYVFo0aNLC0tR4wYMX/+/D/++CMpKYlWbydKB7Ym9Zw5c5hzhayCgFy2bBlMfAUbhBkZGT4+PgYGBlu2bKEVKYji0L9/f5IKFY9bt24tXLiQT/0KTGVAQEC7du1atmy5fPlyug2igbx+/RpCcciQIY0bNx41alRsbCwtf1pqfPny5c6dO1CAwcHBM2bMGDx4sLm5ee3atdu2bYugYu7cueiaCxcuvH//nt+TqGSQYiwWBQUFmGkHDhwIDAycOnUqwhEE7g0bNrSysoKM9PX1DQ0NPXnyJLkooqR5+PAhBOT8+fPhdPX09KCvhg0bhigqLi6uYjzCeuPGDTs7O3iyyMhI+g478W3MmTMH4oFPJcozS5cuhcV7/Pgxl/7x48ewsLB+/frp6up6eHjQh141kHv37q1evbpXr14QimPGjNm7dy99X6FE+fDhQ3JycnR09Jo1a6ZNmwaX2rx58zp16rRv397BwWHWrFmbNm2Kj49/8OABvydBkGIsCbKzs2/evIlIXXZO1q1b18LCwtHR0dvbOzg4GLkpKSnp6en8zgShDp49e4YxtnjxYnt7eyMjI8RMgwYNQrjMVgYuv3fqTp06ZW1tbWlpCd1Yfv8LoqyIiYkZMmQIn0qUT6AubG1tq1ev7u/vLyR+/vwZvTx69GiIECcnp9jY2EKfViVKk5ycnISEhNmzZ7dp06ZJkyaenp74SX2kXjA1EIUeOnRow4YN0IGYCFZWVpgRiAS6dOni7Ozs6+u7devWxMTEp0+f8jsThAikGEsJGMTbt28fPnx448aNsJUjRozo1KmTjhRsDB8+HImY25jhmOefPn3i9yeIYvD69WsMrYCAALiK9u3b16lTh61Eunbt2uPHj5e7N7twzogUmzZtGhwcTIupEqrz/v17hE0UnlYAbt26ZWxsXKNGjRYtWkCEwGnu2bPHxcUF/TtgwIDQ0FB6iE6jePDgwebNm4cOHaqlpdW7d2+I/GvXrvGFiCICz37lypWYmBi4Qh8fHwSWXbt2NTAwaNCggYWFhb29/cyZM9ktiuvXr5OvJIoJKcYyBnM4JSUF8xmz2tvb28HBoUOHDo0aNdLV1UVMjwnv6emJQD8yMvLMmTOPHj2i5/GI4vP58+fk5OQdO3ZgyPXv319HR0dfX3/QoEGzZs2KiIjAgCwXITX+hVGjRmlra0+dOhXbfDZBKKJz5870gGJ5JywsrH79+tWrV4c+9PX1HT58ODZgwWDTaIkszeHVq1cIXaZMmQJVb2pqOnny5L1795JuKSposdu3byckJOzcuXPp0qVoxgEDBpibm9etW9fQ0BASEUIRchExJKTj1atXy90lYKK8QIpRQ0lPT09NTT1y5MjWrVv9/PzGjRvXt2/f5s2b//7777C8PXv2dHFxmT17NmzEvn37zp07BzGZn5/P10IQqvHixYvDhw8HBga6urpaWlqyFxvghxYvXowBhqGosRoSQUlAQACmRpcuXUJCQshZEsqBwFi2bBmfSpQTsrKyxo8fD30IuQgzVbt2bXt7e0TS9IqHhgALDN0yY8YMeBBtbW04kc2bN9+9e5cvR/yZt2/fpqSkIOQLDQ1dsmTJxIkTbW1t27Rp06hRIy0trXbt2tnZ2SERivGPP/5ITExMS0vLycnhayGIkoQUY/nj+fPnFy9e3L9//9q1a318fBDi29jYIGKuVauWkZFRx44dhw4d6ubmxizLsWPHrl+/Th+TJIoE9CFUIrTiwoULhw8fDt+PyAx/sb1o0SIN1JAFBQXx8fEslBw2bFhkZKSmfTgYmnzbtm2zibIGIWyTJk34VEKzgc6HLIQva9u2Ldxc9a/A8R0+fJifbETp8vDhw/DwcEQdrVu3hgV2cHAICgq6evUqX65y8+HDh9u3b588eRIjeeXKlRDVzs7OvXv3xhiGe9XT07OyshoyZAgL3lAGsvDOnTuZmZl8RQRRRpBirFC8fv06JSXl6NGj27dvZ08vDB48GGZIX18fJgmGydra2snJyd3dHbkoc/DgQYhPetiVKBRBQy5evBgxN9OQ7dq1g4b08/ODQrt8+bImXObPysqKiIgYOnQoC1wQx8BP84VKHQQHP/zwQxVCA6hatWq1atXwl88gNJuff/65Ro0aNWvWbNSoUcOGDWvVqiXoRji4VatW0YuLpcbnz5+TkpLWrl0L+28ixdXVdePGjZD0fNHKxJMnT6CTjx07Br23bNkyLy8vNEufPn3YeqRwSW3atOnXr9/EiRMXLFiwfv36vXv3nj17FgGYRl1+JQgxSDFWFnJzc2GYYOXj4uK2bdsGxThlyhR7e/vu3bvDnMETw+lCBjBzNm/evMDAQHaV69q1a/ILlxMERtSNGzf279+/fPnyUaNGde7cGZGcoaGhjY2Nh4cH+8JvWlpaWV2MyMzM3LVrFwIaLS0tnFJAQMDNmzf5QqXCwYMHEe9CMfbq1Ws6oQFMmzaNTyI0HqhEzKPg4OArV67AtoSGhvr6+jo5OXXp0qVp06aY5gjKx44de+7cOX4GEuoA1j4iImLmzJkw9Q0aNOjatau3t/eePXsQV/BFKygQhCkpKSdOnEBoFBQUhOGHYAkhk4WFBRxf9erVmzRp0qlTp4EDByJ94cKFISEhUVFRp06dQhPR5yWJCgApRuL/ePPmDUJq9sjEqlWr5s6dy56k79ixY7NmzWANdXV1zc3N+/bt6+rqipALmhM+OyYmBgbx4cOHtN4AIZE+e5mYmLhp0yYEE0OGDGnZsiW7Feno6Aj/un37dsRzKMPvVpLAVR8/fhwRZ4sWLRBZTp48effu3a9fv+bLlRjz5s1DpDtu3Lh0giC+FQ8PD8wjzCZ+gsnw7Nkz6Mn79+/zGUTRuXPnDgSPj4+PjY1No0aN4P3h+tetW3f+/PmKp3/ev3+PMAbBDEIaBDYIbxDkjBo1CgEP/nE9PT2EQKamph06dEAKQqNZs2YFBAQgWIKATE1NffnyJV8jQVQ4SDESqgJNmJaWBpO6Z8+ezZs3w6S6ubkNHz6cLcmjo6MDk2piYtK2bVumKtnj+CEhIbCq2OvatWuPHj3Ky8vj6yUqNDk5OTdu3IAbhn+dMGGCtbW1oaFhgwYN4HqdnJzmzJmzdevWhISE0rmPfffuXahZHLdx48Y4gZkzZ0ZHRxdTPSJ4wrzgU2WYPXs2Il1IVj4EJghCZTCDMI8wm/gJRqgDtPCZM2fgr93d3bt27QoTbWZmNmLEiKCgoMTExHQNeOPgm3n69Cl8EIKQyMhIFrp4eHiMHj0agUr79u2hA6tLF91FGANt7OjoOGnSJJTZsGEDymMvKOdi+giCqBiQYiTUybNnz27dugUjGxUVxZ59hZtnC71aWVnBItesWbN+/fpsZUskIou9VBkcHAxhGR8fz9Z9pTuWFZuPHz+mpKRAra1evXrq1Kn9+vWD265du3bbtm2HDRvm7e0Nb33kyJHbt29//vyZ31kd5OfnX7p0ad26dVCPULBt2rRxc3Pbvn17amoqX1QFzp496+npicHPZ0ghxUgQxYcUoxqBAYSI2rdv37x58+zt7Zn57dixI8QSfDGkY7rGS0T2og38CJOC7MYgfMfEiRMHDBjQs2dPhBlaWlrchWy4GxTbuHHjrl27sOP169dL52IlQVQASDESpQ3UAgw94nXYa6hEds1vxowZ7CFYa2trGHq2eDpCeWzD0LN1pRExCNoScgK7p6Wl0bI9FYacnJybN28eOHAAQg59PXjwYAi5OnXqGBkZ9ejRY/To0QsWLEBYkJCQcO/ePfXerL5//354eLi7u7ulpSWCDIw3Pz+/uLi4p0+f8kVFOH36tJ6e3uTJk+WXtiPFSBDFhxTjNwNxdevWLRi0wMDACRMmQBnWrVu3RYsWDg4Ovr6+UVFREE4ow+9WFrx//x4+/cKFC/DvERERbA0/yFoEAE5OTggGLCws2OKiNWrUwAZ+MikI24uSa9euRXhw/PhxdulZE5Y9I4gKAylGQnN58eIFQnl4jqNHj8INrF+/Hi7By8sLzmPQoEHwEy1btmzatCm0Za1ateA8IDCQaG9vjwKQoIL/YC9bXr16le5elkcwDJKSkiIjI/39/adMmWJra2tmZlazZs0mTZrY2NggAFqyZMmOHTugJO/evVv8e5KITQ8fPrxs2TJHR0eMLl1d3aFDhyJk2b9/P6IuvrQMEI2Iw+rVqwfFKytoSTESRPEhxagib9++hcFk3/KBJoRb/P3331u3bg3PiJTQ0NDLly/LX9gqOb58+QLPe/PmTXjh2NhYeOTVq1cvla69N378eLjsHj16wH3D0gpPh7JHkMaMGQNXDvMOy4+99u3bhxpSUlJQW1ZWFn8YgiBKGFKMREUgJydH8ElxcXHwLoja4ZNmzpwJl4PQX3gslt29bNSokXB5ctiwYSjDHo5dKv2IJXaHRkVVycnJqPb58+f88QgN4PHjx+gj9Bd6bdKkSVCS5ubm0Gz6+vqdOnVCp8+YMSMoKGjv3r3nz5//5k788OEDtOjatWtHjx6NAVO/fn1EM4h11qxZc+jQIW6NDYjGWrVq1ahRw8TE5MiRIyyRFCNBFB9SjPJkZGRAQUGGQYPBi3Xv3l1bW1tHRwcaDCYRifCGt27dUu/9Q3YbkD0OevDgQbjLTZs2wQjPnz8f5wCZB6/KPjPI1syrWbMmdz131qxZKL9161a2cgy7H/jq1Sv+SARBaBKkGInKCOIPwecxhblx40b4sIULF06UYmdnB/fWoUMHuDoDAwPpR7/+d+1s4fIn05lQDkxnhoaGohK4T1R4+fJlVP7kyRP+qESp8Pr16ytXriCKCg4ORnzp7OyMQAoSjgUuCGVGjRqFkAWSb/fu3WfOnEFnqR5RZWVlXbp0CbGOj4/PkCFDEBLVq1fPysrK1dXV398/OjoaI4F9Ka5BgwbW1tYYY6QYCaL4VGbFmJeXd+/evfj4eFieefPmubi4wA3p6uo2bNjQ0tLS0dFxzpw5sDxJSUlv377ld1YKe0nkwYMHp6TslLJ8+fKl0pXt4OMGDhwIf9e2bVsYTxwOlk1LSwvb7du3R/rgwYNRhr0cuGLFCuwbHh7Oqnr48OEjWuuOICoQpBgJQiUKCgoeSTl//rygM7ds2cIUI9OZcJ9woh07doRDhURhOtPY2Bg/kdhXyvjx41GSfZ5kqfQVfOakmZdlavMRPXVTArCVEiARIRQhFyEaIfPYtfDff//dwMAAwm/o0KFsjd+wsLAjR45cvXq10FcZP336lJycHBkZOX/+fCcnp3bt2qG2GjVqoOvr1KnTqFEjpHz//fekGAmiOFQGxQh9BRt1+vRp4SH8fv36sTt1ZmZmtra2sE4rV66Mioq6ePHimzdvhB3Zk5+PpJ9cFtwTewkQuLu7w+mwhc1tbGyaS6lXrx6qrVu3LvvZp08f5I4dOxYl/fz8sBe8Gyo5fPgwKkxNTUXl6Rq/HA5BECUHKUaCKFmePHkCXwspCL+bkJDA9GFwcDDz5ew6LnuSp+/XR2ebS9/shztnL/c3//oAbV/pK/4oz97yX/r1Rc2d0nf9Uf/Zs2dZ3PCo0nxVWV28evUKwu/QoUPbtm1bsmQJ0/+dOnVia69D9qNr2ApMixYt2rBhw759+xDYoZ2hGO/cuYOOePv2LQI+Ly+v+vXrs4sFgK3QUK1aNUdHRz4EJghCZSqMYszPz2eXriALV69ePWPGDCcnp65du/5/7d13XBTX/jdwiSY3iTfJTbxJMLHTOygKIooKYkVUFGwI9lhRUVAEGySa2LArtihgRLERgUQsGDtWEFSCKFZAUMQKSHm+d8+PeTZnCx13l8/7D16755w5e3ZmdvZ82N0ZOsjQsYIOOHZ2dhQO6U2BjvP+/v4rVqygI9Iy0YnH6fjDLhJI2rdv37b0dxbsCxSkV69eVDV8+HD2T0z2NsH+L3no0CHxT/9q86eMAKACkBgBFJfwn+Pr16+zN/vw8HB679+5cyebCrBzzHqITjM7oPQUAm3FPuFUF113mBX26dOHTTXGjh3Llpo3bx7rZ9OmTSx5srMLkEuXLrGHlnXRiDolPT2dNgHFclpFy5cvp6nbmDFj2H/rW7VqxU7o2qRJE7pBUzd10Q9liYaGxogRIyhnqqmp4TNGgKpQ/MSYkZHBjpkXLlygeEY5bf78+Z6enkOGDKFA2LFjRwMDA/bvpObNm1PS09HR0dLS0tXVZQeNpk2bsgO1ra0tO1CzU7+wbz0sKz1POLtIILl9+zY9Vk5ODj8OAIAagMQIoMqEL9OS8+fPs6kGzTlYPmTnrBNPnuwM5qR79+5s+kJZiCVP4QNP4uDgwJoNGzaMLehR+l0msm7dOtZ/mOgam+xB4+LihJFU9Mc2Ci4vL+/o0aMUHdmKoplfhw4d2Ol8bWxs2I9/Zs+ezU+BQck9f/6cXgjXr1+n27Tbr169mm9RKjU1lV4UU6ZM6dOnT7t27fhqKIeaS4zp6ensuMQu6kAiIiLY4Wvjxo3smMYu9OdReh412u5WVlZ0bKQQyH63rC76Fjq99r///nt2W1NT08zMrH379r169aLj5Lhx4wICAjZt2iREPnbaT1JQUMCPCQBAwSAxAkC5sN8BMmfPnmWTnj/++EMIh8uXL2ezq/nz5wsxcuDAgSxb0rRJCJw6OjpsjkX09PSEcuFT0AGlP/hkhCy6rPTXNcyRI0fYMM6UnthWwI++Jh08eFBXV9fFxcXb25vmi1paWjRT7Ny582+//Zafn1+eM98EBgZ+8MEHK1euFC+kVde8eXOKJeKFoFCmTZvWqFEj2nU/+uijy5cv89UiFy5coL3i66+/HjFiBGWGQ4cO8S2gHITEmJmZyV7jKSkpwsv/wIED7JjALvDLTJ8+nR1AXF1d2VGlR48e7FDDLsvEmJqaskI6RvXr169379700hs8eLCjoyP7dZ+dnV3Xrl2tra2NjIzola4uOvsL9UAtKUDSwNjlH06ePEkhMCMjgz9AAAAoPyRGAHifsrKyhJhHc2s2/zt9+rQQC8NKz93HzJw5U0iSw4YNExKm8BPQtqVndRdQQBWqLCwshEUGiP3gh/Hz8xMeiGzfvl18GEePHhVmqGdKr/AZGxtLITY5OZl9fTc6Opp9yEAzy44dO9IU08HBgdKg/MRIs0wKHhoaGjk5OayEpp7169dfsmTJPxuCYnn27NnWrVtHjhxJuy5fV4r20oYNG9LewldARdAriL2cjY2N2WuZXbCB+eGHH9hL2MvLS3j9hoaG7t69e8OGDbt27QoSoUK6u3Dhwnnz5rEjCfsuQKdOnahD9iFhW9EJsZ2cnIQDAi3Ovq5/+/ZtBEIAqJuQGAFAxbELiDF3794VT31HjhwRz4TsMp6C2bNni+dJ8YBK7O3thSBK2Dly1EVf32XnSiUUAtmZb0aPHs1Pgf+JHqtevXohISHs7sSJE7/88sv09PR/tpJH6qeRz0X40gqqlk4E5eytPG3ElbN9OR9dUuWWevr0KW1HiiV8xT/J6lxWeVXI6lNWuVSVXo2Vxj5jpL/0Kr5x4wa9eGNiYsJKLwYYEBBAr9AJEyYMEH1llF6PrVu3Zq9B9dITVjs6OrIcyH4ZuHbtWlr88OHDZ0q/IJqXl8cfOwAAQASJEQCg2tDsUzhXapMmTVq1atWtW7cyP2Mkd+7c+eSTTywsLHJFFwtt2LDhrFmzWJWbm5vuP61YsUKocnZ2Xr16NUXTTz/9lCbEjx49YlXr16+3s7P7/PPPv/76a/FfUQq90ZR64cKFrPDZs2d6enpC/1TFyjMzM0eNGkWZ54svvqAQS82ETuhx2W0K5LSs+JDGjx/Pbh87dkx8tLJ6E5eVlTVz5swWLVrUr1//u+++Yz8OlNOnZPsOHToIT4Tp1atXruxHp84NDAwePnwodEjhv1OnTsJdyhjff//9Rx99RMHj4MGDrJwtKGtUgoSEBMo5K1eupFVNA+vZsye1ZFVytp38B63Emq/0Y7EVKL6ryNmvKjGwBw8ejBkzxtzcnO1+GRkZrFwS+4yRfQYofFOAIqLwSSA9O/Z/n9OnT9PLMDk5+T4uUwQAUE2QGAEAqgdNVZs1a0bzWgowlDp27NhRzt8xMjR1ppYxMTE0O//4449v377Nym1sbCh8+ossWrRIvDeqopxJSWnGjBkUcqhKmMS7u7uPGzcuJCSEJtZUnpSUJCxCmXbp0qXt27en8pMnT+aK0hTdpiBBD0HllFdZY1dXV4pYS5Ys8fLyEv+lJXUinMGF4gE3JJbQqJxWgniVrN7EUbqgRQYPHrx7924a5IEDB3Ll9inZnrqlZ0GPReW0Bug2hZxc2Y9OnVNL4bw1tMboLq1Sof8GDRoMHTp0zZo1RkZGampqx48fFxaUNSoBNaZydrEc2kC0OG0vltbkbDv5D1qJNV/px5LcVeTsV5UYGOuExtCnTx+68fjxY1YuiX3GWBNnvgEAgDIhMQIAVINTp06xsybS3Dc2NlYoL39ijI+Pr1+/fvfu3Rs3bjxq1CihXP5cnB7xxo0b7C779h27Lbh06RItsm7dOnaXFrG0tKQbW7ZsoXL2kde9e/fo9s6dO+n2pEmTWGL8+++/KVlNnjyZLWhgYGBtbS10ImdILB5QBqN+hCo5vQlYG01NTa5cfp+S7cnevXuFZ5cr99FZYqRQxO6y6MISY0pKCi3Vt29fVpWWlkaBysHBQVhQ6qjEsWH06NGDfXrG4mhoaChbXOq2K/NBK7rmWVXlHktyVxFI7leVGJi+vn6LFi3oxsKFC+shMQIAKCokRgCAqjp79qy2tjYFEkomXFX5EyPp378/NaZJ/NWrV4VC+XNx8as1UM6kzPngwYNc0ceGQUFBY8aMsbe3p0UCAwOFRb799tuBAwd+8cUXzs7OOaJz7dy8eZPa7N+/P1csMR4+fJgKKWkYiFBh8+bNhU4+//zzbiJ2dnaS8YCyx1dffUUx4Msvv2RVcnoTsDY0AK5cfp+S7XMlEqOcR6fOadtR7bVr1+ghqKpnz54sMUZGRlK5+PmH9PT0hIAqa1TiaJVSD0eOHGF3KRHRBho5cmSu7G1X5oNWdM2zqso9luSuIme/qsTAWA6cNm3aoEGD6iExAgAoKiRGAIAqSUlJ2bhxo6yLTFYoMVLCocaOjo7iheVPjKNHj6ba+6IrXlpbWzdq1IhC7MqVK7mZPcUhCi2NGzc2NTVl3yqkxEttzpw5kyuWGCMiIqiQAsPqUps3bxbvZLaIl5eXZDygkVAMy87OFuKBnN4ErI3wA06B/D4l2+dKJEY5j06de3p6/vvf//b29l6xYkWfPn2GDRvGEuOBAwfqiX1hlZiZmTVr1kxYUOqoxNEqpR527drF7mZlZX388cf9+vXLlb3tynzQiq55VlXpxxLfVcrcryo6MGJlZcW+rFsPiREAQFEhMQIA1KAKJcaffvqJGsfGxooXlj8x0rSeZvN047fffqNmGzZsoNu3bt2qJzr5irAI+6rhlStXqJzCEt1etWpV/fr12TcnhcSYnJxMU/nu3buXdv//yR/S999/T72xc6gI8UBObwIaKrUxNDTkymX1Kat9rkRilPPo1Lmfn9+IESOaN29ubm4eEhIiJMbr169TJ3SXtUxPT2/QoEGXLl2EBaWOStyjR48oC02cOJHd/eOPP+qVRlxZ267MB63omueWyq3IY3G7ivz9qhIDoyzNesa3UgEAFBkSIwBAJWVnZ9+/f//8+fOU8cLCwrZs2bJs2TKa2np4eAwaNIid5b9Fixbq6urCiUakevbs2enTp3/++ecPP/xQOOGkQP5cnBaZP39+QkKCj48PTfdnzpxJ5SdOnKBmI0eOpOBka2tbT3QOGGERiljR0dFsjk7Lrl69mlJN//79WQMhMZKhQ4fSRH/69Onnzp2LiYnZuHGj0ImcIdFd4adx4vFAVm/i6OnT4gMGDIiKitq2bRv7dE5On1Lb50okxlzZj84SI8ty//73v7OysoTESOzt7b/44oulS5eePHmSnaaF/QqRLShrVOKGDBlCq5d2D3rQNm3afPzxx+z3hLK2XW5ZD1qJNV/px+J2Ffn7VUUHRqu6ZcuWenp69DpCYgQAUGRIjAAAUqSnp9+6devMmTP79u1j13zz9PQcO3YszaqtrKxoJs0uoaGvr0+xkApdXV0pKP7444+BgYEUDyiB0LJpaWne3t7is2epLl++TG0+/fRTCpnCZQ8EnTt3ZlfdyC2di9Okn92luXizZs3Y+SfV1NScnJyE6xO4uLg0EBkzZkyvXr2owfLly1lv9URo4k7taYQ00e/Zs2dqaipbcPLkyRSc2G2awdPzok6oPUUO4dMnOUOiKgpIwik0v/rqK6FKVm/iHj58SNn1gw8+oDbUD2W5XLl9Sm2fW5oYhdN+5sp+dOp83rx5dIPSCG1oujF8+HAhMaakpNjZ2dG6paUoSP/000+l/ckblbgHDx5QD2yEjRs3Zmd/zZW77eQ/aCXWfKUfq56IsKvkyt2vKjowerFQM9pSuaVnvpFzAVIkRgCA9wiJEQDqouzsbAqEp0+fpnS3evVqygwTJ05kaZBCIEVBPT09ioKURig/UBQMCAhYuXIlNY6OjqYoeOfOnczMTL5TacrzrVSavp86derp06d8RVmED3boubAT3oijQbIPbZ4/f56YmFjpS65nZWVdu3aN/vIVlVKe3ig50IDZqVbKo/zty/PokijGl7N/WSjZCqcqZeRvu9zqeFBB9T5Wde1XFYLECADwHiExAoBqyhWdAvTEiROhoaHsE0I3N7fevXtTDmzcuDEFwk6dOlFEpDTo7++/cePG8PBwioKpqamU3/i+qqA8ibHSxL8KCMqlNrddbT5WDUFiBAB4j5AYAUCJ5Ypi4fHjx1kspPjn7OxsbW2toaGhpaVFmdDFxWX69OlUFRwcHB0dffHixfv37xcWFvId1ZgaTYxeXl70lPlSUAa1ue1q87FqSPkTY3FxcVFREV8KAABVgMQIAEqApoyJiYlRUVGbNm2aO3euq6tr586dxWPhtGnTKBbu2rUrNjY2OTn5xYsXfBfvSY0mRoA6oszE+Pr168jIyMDAwISEBL4OAACqBokRABRIQUEB5b2YmJht27bR7HD06NHdunXT0dHR1NTs2rWru7u7n59fUFDQH3/8kZSUpDixUA4kRoCqk5UYHzx4sH379r59+9JRguIiHUC4BgAAUHVIjADw3ty9e/fYsWNbtmyZO3fukCFDLCwsmjRp0qFDB7rt7e29du3aiIiIa9euPX36lF9SeSAxAlSdeGIsLi6Oi4uj223atGGnLO7Xrx9FR/61BwAA1QSJEQBqQ3Z29rlz54KDgxcuXOju7m5jY9O0aVOa8Lm4uNBcMCgo6OjRo6mpqTQX5JdUckiMAFVHryA1NTVXV9dhw4a1atWqZcuWLCtqaGj8/vvv/KsOAACqFRIjAFQ/muHFxcVt37597ty5Tk5O+vr6urq6Dg4O06dPX7NmTWRk5I0bN/Ly8vjFVBESI0DVubu7f/PNN40bN2ZBkenVqxe+hgoAUAuQGAGgql69enXt2rVdu3bNmzdv6NChJiYmWlpaPXv2nDlzZlBQUGxsbFZWFr9MnYHECFB19AqqX7++jY2Nrq4uu2Lq999/TwHSysrKzc1t4cKFwcHBcXFxSv0NdgAAhYXECAAVlpmZeeTIkcDAwFGjRrVv375FixbdunWbPHny+vXrqfzhw4f8AnUYEiNA1Qm/Y0xMTHRyctLT06PEyP4zFRkZuXbt2unTp/fu3VtXhG7Q3Q0bNsTExOD3jQAAVYfECABlS09Pj46OXrx48dChQ/X19WmiNmDAgHnz5u3fvz85OZlvDWICAgJopktxmp8CA0C5eXl50euIXk3sZXX06FELCwsNDY3mzZsvWrRI/BX39OnTuLi4nTt3+vn50fHK1NSUmnXv3n3q1Kn4lxYAQOUgMQKAFDRFO3HixIoVK9zc3IyMjHR0dJydnRcsWBAREZGamsq3Btn+/PNPmuk2aNCgb9++cwCgUij10etoz549wiursLBwx44dmpqa6urqBw8eFHvN8V68eHHlypWQkJD58+cPGzbMxMREW1ubXo8+Pj6//vrr5cuXX758yS8DAABikBgB4P/cuHGDJlUzZszo3Llzy5Yt+/fv7+/vHxkZmZaWxjeFipg7dy4lxnqKSk1NjS8CBYDtwmnTpk1+fj734qKw5+fnp6+vn5SUxFXJkZOTc/r06aCgIE9Pz+7du9PhztLScuTIkYGBgTExMdnZ2fwCAAB1GxIjQN1VUFBw6dKldevWjRgxQltb28TEZPTo0TSLunLlCs5AWL0yMjKCg4MXKBgvL69u3bppaGjQnJuvg/fNw8OjiQjlGV1d3datW1tbW1O8GTx48Lhx42bNmsUvoLr8/f3DwsLkHJQeP368fPny3NxcvqLc/v77799//33hwoUuLi60tulg6Obm9ssvv0RHR6enp/OtAQDqGCRGgLqFZl0XLlyg2ZWTkxPNRG1tbb29vcPDw+/du8c3BdVFk2BfX18dHZ358+c/efKErwbFQDGJ8rz49STEff/99xRvVq1adfnyZX7JOqmwsJAvqqwHDx5ERUUtXrzY1dVVT0/PzMxs1KhR69evP3fu3OvXr/nWAACqDokRoE64du3a2rVrhwwZoqmp2aNHj4CAgOPHj7948YJvB6qOsqKPj4+uru7ChQvr8lVPlMXUqVONjIxYRKStNmDAgJ9//jkiIuLGjRtyPnOD6pWWlnbgwAE/P79evXqxf7TNmjVrz549+EcbANQRSIwAKovywN69eydNmmRgYNCpUydfX9/o6GikxDrr1atXFDb09PT8/f3xSy1l8ebNmw4dOmhra1NipL+//PILPuN6vyiox8fHb9myZdy4caYi48eP37ZtW2JiIt8UAEBVIDECqJrLly9TMLC3t6f5Jc1pQkNDHz16xDeCuuTdu3fBwcEmJiZTpkzBzqB0kpOT6bX83XffWVlZTZo0iSJKWFhYcXEx3w7eh7S0NNocnp6eLNiPGDGCwiSuOQQAKgaJEUAVvH379siRIzRroVRgY2OzePHiuLi4avxVDyivY8eOdezYcdCgQfgMRHlRJtHS0qLQyC4U4eDgYG9vf+HCBb4dvFfZ2dkHDx6k47CFhQUdiine04bD/2gAQAUgMQIosTdv3kRERIwfP15bW5siwebNm/G7GhCkp6ePGTPGysqKQiNfB8rGw8NDXV19586d7O6BAwdat25N4eT58+f/bAgKgQ7FISEhP/zwg76+fseOHQMCAs6dO4f/4gGAkkJiBFA+eXl5hw4dojBAQXHIkCG//fZbTk4O3wjqMJqYbt68maaqS5culbyEHSijN2/eWFtbOzo6CiUvX7709fU1MTHZt2+fWENQOFeuXKFXYvfu3emIPXHixPDwcByxAUC5IDECKI3i4uLTp09PmzZNR0dn6NChYWFhVbn+GKiqhIQEe3t7Jyen1NRUvg6UWXJysq6uLnfyqqtXr9rZ2Q0ePBiXDVR8GRkZoaGhI0eOpOg4cODA4OBgnK8YAJQCEiOAErhz505AQICZmVmPHj2CgoJwAT2QqrCwMDAw0MjIaO/evXwdqISwsLDw8HCukLb7ypUrabtHR0dzVaCY8vLyaGNNmjSJRcedO3ciOgKAIkNiBFBc+fn5Bw4coPmEsbExJcbbt2/zLQBK3b9/38HBwdnZGZ81qbaoqCi+SOTy5cuWlpYzZ8588+YNXweKSjw6Dh48mA74VMI3AgB435AYARTRw4cPFy5caGBgMHToUJog4lLdIN+ePXtob9m0aRMuuqDy5Jw95eXLl1OnTu3cufP9+/f5OlBsFBQpLlJo1NPTmz179tWrV/kWAADvDxIjgGK5cOHC6NGjafa/aNEiyo18NcA/vX37duLEiV26dLlx4wZfB3XStm3bTExMzp8/z1eAMnj8+HFgYKCVlRUl/y1btrx69YpvAQBQ65AYARRCcXFxZGSkvb19p06dduzYQTGAbwEg4dGjR926dZs8eTK+yQbiTp48aWRktGvXLr4ClAdl/nHjxunp6c2bNw+XTQKA9wuJEeA9e/fuXXh4OAVFBweHmJgYvhpAhnPnzpmamm7atImvACgpSU1NtbKyWrt2LV8BSiU9PT0gIMDQ0NDd3f3s2bN8NQBArUBiBHhvioqKKCtaWlo6OzufPn2arwaQ7ddffzUyMjp58iRfAVAqIyPD2to6MDCQrwBlk5eXFxIS0qFDh/79+585c4avBgCoYUiMAO/HsWPHunbt6ujoGBcXx9cByOXv729jY5OWlsZXAPzTkydPOnXqtGzZMr4ClFBhYWF4eLiVldWAAQPOnTvHVwMA1BgkRoDalpSURO/3Xbp0wXdQoaKKiopmzZrVq1evnJwcvg5AmqysLDrarF+/nq8A5US5ce/evZQbBw0adPPmTb4aAKAGIDEC1J7c3Fw/Pz9jY+PQ0FCa+vPVAHK9e/duwoQJAwcOxOkToULS09Nbt24dGRnJV4DSoty4c+dOIyOjuXPn0jsLXw0AUK2QGAFqyf79+01NTb29vZ8/f87XAZQlLy/P1dXVzc0Np0WFSkhMTDQ0NMRV/lRMTk7O7Nmz8V9IAKhpSIwANS47O3v06NFdu3aNj4/n6wDK4d27d8OHD58wYQLd4OsAyufIkSOmpqaPHj3iK0DJJSYmOjo69uvX78GDB3wdAEB1QGIEqFnR0dEmJiY//fRTQUEBXwdQPlOnTqXEiLgIVbRu3bq+ffsWFhbyFaDkiouLN2zYYGhoGB4eztcBAFQZEiNATaH5vZ+fn6Wl5ZUrV/g6gHILCAjo06fPmzdv+AqACqJc4eLisnTpUr4CVEJSUlKXLl3Gjx+PXzYCQPVCYgSoEenp6Q4ODm5ubnjnhqoICgrq1KkTzowK1SUzM9PU1PT8+fN8BaiE/Px8X19fKyurO3fu8HUAAJWFxAhQ/RISEmhOtnr16uLiYr4OoNx+//13c3Nz/PAMqtfx48fbtGmDf2apsNDQUGNjY/xfAACqCxIjQDU7efKkoaFhdHQ0XwFQEampqbQjJSYm8hUAVTZ79uxZs2bxpaBC/vrrLyMjI/ysEQCqBRIjQHU6ePCgsbFxXFwcXwFQEXl5eba2tsHBwXwFQHV48eKFmZnZxYsX+QpQIX///be5ufnu3bv5CgCACkJiBKg27LSoycnJfAVABXl6ek6cOJEvBag+ERERXbp0wTmcVVtqaqqpqWlkZCRfAQBQEUiMANUjNjbWyMjo+vXrfAVABe3Zs6djx46vX7/mKwCq1bBhw9auXcuXgmpJTEyk9yZ6h+IrAADKDYkRoBr8/fffBgYG+DIqVF1aWhrtS7du3eIrAKrbvXv39PX109PT+QpQLRcvXjQ0NExJSeErAADKB4kRoKrevn1rY2MTFhbGVwBUnIuLy/r16/lSgJrh7+/v5eXFl4LKCQ0NtbW1zc/P5ysAAMoBiRGgqqZPn+7h4cGXAlTc3r177e3tCwsL+QqAmpGTk6Ovr//w4UO+AlTO+PHj/f39+VIAgHJAYgSoklOnTllZWb1584avAKig169fm5iYJCQk8BUANcnX13fp0qV8KaicJ0+e6Ovr4/quAFAJSIwAVeLg4HDgwAG+tAoePHiQlpbGl0KpvLw8ylShoaGXLl3i65TcypUrq/f8qHVwX1Lh3aPmJCUlmZubFxUV8RUgg/LuZkuWLKnjX0JW3m0H8H4hMQJU3okTJ7p06VJcXCxeSG/J4r9pfPLkycyZM2NiYsSayDNkyJCePXvypVBS8urVKycnpwYNGnz66aeqd774nJwcAwMDLuBhXyo/1d49ahrtJ3Q0oxtRUVG0j2VmZgpVz58/pxJ89M0o+26WkZGhp6dXUFBQBze0sm87gPcLiRGg8iZOnBgSEsIVamhojBw5Urjr7u5er169hQsXijWRp07N8itk9OjR//3vf0+dOsVFdNWwZs2a6dOnc4XYl8pPtXePmrZx48bZs2eXiK7EoKamNmvWLKEqICDg66+/ptn2/29dh6nAbubg4HDy5Mk6uKFVYNsBvEdIjACVRO86RkZGkr8JEZ/lnz59mt6VMcuvujdv3nz++eeqetqGwsJCc3NzmsNx5diXykm1d49acPHiRXt7e3Z70KBBDRs2zM7OptsvX75s1KjRzz///I/Wtata5vfV0olq7Gbz58/fuHFjSR3b0Kqx7QDeIyRGgEpKTk7u0KEDXyo2y6cYYGJiQrP2Dz74QJjlOzg4CG9aO3bsoAbsdnx8vIWFhZWVlYGBgaamZufOnVu3bn3u3DlW++DBg/79+38p4uTkJMRU6s3Pz48e7j//+U/Tpk23b98ulHfr1o3dJoGBgdra2ufPny8RnUyfHuhf//qXsbGx8P1GWaNiVWvWrGG3x44dK1RRvHF0dKROqGcfHx+hvUDWmMU9fPjQ2dn566+/pvFQP3l5eSUyFrx8+TKFpbCwsFGjRpmZmdFInj9/zjoRHzy5efMmdXXt2rX27dtr/1NkZKSspyOrvHbQhqAB8KXYl0rJGrNA/u4h9XnJ6lPW+GUNvhL9s73Rxsbm+PHjrLBCa1LWSCRXI+0Jurq6y5cvZw1CQkJo5bCEwMnPz2/VqhU7g1dCQoKamhrr4Zdffvnvf//LPncSRs6UuQZkPSnJp5+amire89atW1l5Wloa5diPP/64RYsWws/FK7papHYiTnGOQpJbsETuC1BWP/JRXKTQWFLHNrT8bSf1eUndB1j7Cg2sEv1LrjpZK7lCI6mdHQxUFRIjQCXRIZUO93yp2Cx/1apV9A6RkZEhPss3NDScPHkyu71y5cpPPvmE3aY5PVXt2bOnTZs2NMkLDw83NzenOVyJKC3QO5yent7BgwfpjZBuUBt2mgpahDofN24cLUjB4KOPPnr58iUrp3fHs2fPloj+59qsWTO6y957Fi9eTJ0nJSVZW1t36dKFPbqsUbEqNr04fPgwdSJU0btO8+bN9+7dS+MR/+YkI2fMgnfv3pmamn711Vc0o71x48ahQ4cKRaQuGB0dTY/+zTff/PDDD6NHj6Y3TuEkMeKDJ1evXqWWFJBOnjxJ76xubm5ffPFFjAhtC1lPR1Z57ZgxY8bmzZv5UuxLInLGLJC/e0g+Lzl9yhq/rMFXon/KJzRgIyMjasM6qdCalDUSqauR9pb69esfPXr0zp07n3322aZNm1i5JJpt06ya3R4wYMDnn39OU1hapTQ2VkiP27dvX/ZSovUsfw2UyH5Skk+fki09EQq01DN1y07cSquLZqh2dnaXLl2aMmWKurq60EP5V4usTgQKdRSSugUNZb8AZfUjn5AYS+rShpa/7SSfl6x9gLUv/8Aq17/kqpO1kis0ktrZwUBVITECVBJNBVxcXPjS0ll+eno6TRHYpdi5Wb6rq2uqyNy5c9khODMzU01N7c8//ywR+ybhhQsX6BidkpJC0ZRuCFO9DRs20N2LFy8KvbHyxMREKt+/fz8rp9vsLeHYsWPffvut8B7AvHr1as6cOTSDZHdlvfGwKnrPoHc4eiNp166dUKWvr9+9e3e60bZt21GjRgntGTljFtB0igpnzpwpXihrwdDQULpBz4WV07t+06ZN2W0a4bBhw2h9FoouYyjM1Vitv7//119/zW6zxlKfjqzyWkCzBJoZPHjwgK/AviQiZ8wC+buH5POS06fUtcrKpQ6+Ev1PmjTp9u3bFFRoXsgaMJJrskIjkboaaQrYp0+f//73v61bt3aQ9jm2gI5mwgq8du0a7UVaWlqNGjViqaBE9paVugbY3RJpT0ry6bPVxT78pJYsSLDjA02Uz5w5Q1Ntuk2jYj2Uf7XI6kSgUEchqVvQUPYLUFY/8s0v/VZqSV3a0PK3neTzkrUPCO3LOTChPbtdzv4lVx0juZIrNJLa2cFAVSExAlRSXFxc7969+dLSWf7w4cMtLCzYvwy5Wf6//vWvRiKffvopOwTT+wcdo58+fVoiNssvKCigBbdv3757926qFf79T28qdHfv3r2sN+Gt/d27d9Se3jZYuZOTE/Wfm5tLHfr4+AjvARQ86J2S3hVatWpV/lm+h4cHPZ1ff/1VqDp69Cg9BeqnYcOGkrN8OWPm2hw+fFiyUHJB9h9i4Xs7QUFBdPfOnTslohHSqBo0aEDTYporlGeuJvl0ZJXXglu3bllZWfGlItiXSmTvEuJt5O8eks9LTp9S1yorlzr4SvT/0UcfUTPqnPZV1kDWmqzQSGStxuTkZHp0Cgb3798XCiXRIhEREcLdfv360VI//vijUCJry0pdAyWyn5Tk06eXLZXQXloiFiTYOqRlDUqFh4ezHsq/WmR1IlCoo5DULWgo+wUoqx/5+vbtGxsbK9ytIxta/raTfF6y9gHWvvwDY+UV7V9y1clayRUaSe3sYKCqkBgBKunt27c0oc/Pz+fKqZCO6TR1EP7Hyc3yJd+Mb9++TcfoU6dOlYjN8q9fv06Fly5d+uuvv+jGzp072VLbtm2rV/odEvHeEhISqHzDhg2snN6Q/vOf/wQEBHzzzTds+kLvATRRoBtbtmyhNvRuXc5ZPo2H3pbi4+ODg4OFqsTERFp8+vTpWlpakt8klDNmAd2lQjbnEMha8ObNm3Tjjz/+YOVTpkyhGTD72RUb/OvXr2mcLVu2vHLlSj25czWpT0dWeS2gWcKECRP4UhHsSyWydwnxNmXuHqxceF5y+pQ1flmDr0T/U6dOzc7OplnaV199RQeQiq5JWSORuhqLiors7OzMzMykpnFxtNJ+++034e6cOXNoeC9evBBK5IxHcg3IeVLc06dCPz8/9q3pEomPniS/rS1nGJKrRVYnAoU6CkndgoYyXoBy+pFDuLqGUFJHNnSZ246Vl/MlXP6Bce3L2X9tHiKqdwcDFYbECFB5dDA9c+YMV0izfDrgzpgxQygpc5ZP6Ahua2sbFxfXuXNnc3Pzy5cvOzg4fPvtt8XFxXl5efQua21tnZSURMnB0tJSU1OTnZ6BeqO3f5qdZGVljRgxgnp7/PgxK4+IiKA3RRrJ+PHj2YcM9B5w4MABunHw4EF6u6IO69evzyYKhqIvt9wR8fX1pXcIusHeywcT2AAAHitJREFU4w1FX1lhZ94X3jNowqGrq0tDpfmo1G8Syhmz4N27d8bGxurq6vSuSfMYGjDNt+Qs2KZNGysrq2fPnp04ceK7774bOHAg64dGOHr06IsXL9K0uEmTJmX+d1/y6cgprwU0wtWrV/OlItiXSsq3L5XI3T0kn5ecPmWtVamDr1z/Y8eO/fvvv3/44YcPP/wwMzNTzpos/0hkrcYFCxbQ/v/o0aNdu3bVE/sWnCR3d/fff/+9RBQqaG5Kexr7IrRAzngk14CcJ8U9/cjIyMaNG3t6erLehCDBfmGora39559/0qqj1Xjv3j35w5BcLbI6ESjOUUjWFjSU8QKU1Y98P//8s3BFjTq1oUvkbjvJ5yVnH6jQwCrXf20eIqp3BwMVhsQIUHk0yXBzc+MKaZbftGlT8ata0VvyokWL2G0jIyM6NLPbgYGBn376KbtN76ZfffUVvaE2b96c3syaNWv2xRdfCFdvp3cUAwODeiImJibx8fGsnA7orVu3prmImpoatd+3bx8rp0eh94CUlBQ61t+8eZPee9h7AL2tUpag259//vmPP/5Ij05vIaw961wcm+5QFT0j9r9Yes9gA/7ll1/oTYve6uh2u3btJGf5JbLHLI5GSG9drA09a5rBlMhe8NatW/r6+moilNXp3ZeVs8HTOh8yZMj58+dpcbrLTvVWIrrI2DfffMNus8aST0dOeS3w8PDYvXs3XyqCfYmRNWZxsnYPWc9LVp+y1qrUwZdUqn9WSLPbFStWlIgmu7LWZPlHInU1xsbGNmjQgP2olUydOpUCvPBFOI6dnR1NauPi4mgkX375Jc3suQsVyBqP1DUg50lxT9/CwsLZ2Tk3N5f1Ru2XLVvGbt+9e9fGxqae6Cu1NKRDhw6xHqQOQ+pqkdWJOAU5Ckndgqyx1BegrH7koNHS4Nk3M+vghpa17aQ+rxLZ+0BFB1aJ/rlVJ2cll38ktbCDgWpDYgSovPz8fDMzs0SJy+hVTlFRUUFBAfsmITtfH9fgyZMn3Jnx2b8YacH79+9LtpclMzOT3oHoxosXL4T3b3HcP8irQnLMkuidm/3uTpysBWnwUsesvEaMGCHM6atLnd2XJHcP+c+rPH3KV139l7kma5qenh6N4eXLlzRrlHVRO6nkrIFqeVK0IPu4uyrK7KQuHIV++OEH4WIMdXZDS247Oc+rRPY+UH7V1X+1rGSASkNiBKiSkJCQ7t27i/8spIqE356VB3sr4kur7NGjR1OnTk1LS+MroAa4u7tHR0fzpdUB+1JJjT0vQU33XztoLmtgYFCh/CBQjTWg8nbt2mVrayv5w/vyU9UNXdPPq6b7B6gdSIwAVTV27FjuxAlVER4eTimUL5Vh3bp1kZGRfCkolUmTJgnfU6pe2JdKav551XT/tWPHjh3C5ekqSjXWgGq7dOmSgYFBSkoKX1ERqrqha/p51XT/ALUDiRGgqnJzc62srLZt28ZXAJTDwoUL16xZw5cC1CI3NzfugiWgMpKTk42NjU+cOMFXAACUGxIjQDV4+PChpaVlUFAQXwFQlj179lT64x2Aqnv69Km2trbkr/hABdy9e7dNmzb79+/nKwAAKgKJEaB6PH782MrK6pdffikSXWkdoJxu3bplYWHBlwLUlpUrV06bNo0vBeWXkJBgamq6a9cuvgIAoIKQGAGqzZMnT5ycnAYPHoz/1kOFtGvX7ubNm3wpQM0rKCgwMTG5ceMGXwFK7q+//jI0NKyhs2oBQF2DxAhQnQoLC3/88cc2bdoIV+ICKNOCBQsWL17MlwLUvE2bNg0dOpQvBSW3YcMGExOTCxcu8BUAAJWCxAhQ/Y4ePdq6dWtPT8/nz5/zdQAS0tLSDA0N2YWSAWpNRkaGvr7+7du3+QpQWi9evBg1alTv3r3lX5YQAKBCkBgBasTLly99fX1NTExq6MIJoGLGjBmzfv16vhSgJk2YMAEfbquSc+fOWVhY+Pj4VOMlggEASpAYAWrUtWvXevfu3a1bN5zZHOS7c+eOgYFBZmYmXwFQMw4dOmRpaYlPtlUDbUdfX982bdocP36crwMAqDIkRoAaFx0dbWNj079//7i4OL4OoNTixYtHjRrFlwLUgNTUVENDw+vXr/MVoISOHj1K4d/DwyM3N5evAwCoDkiMALWhqKho7969VlZWjo6OFCCLi4v5FlDnFRQUdO/e/ddff+UrAKrVmzdvunTpEhISwleAsrlz587w4cM7dep06tQpvg4AoPogMQLUHsqNUVFRffr0oei4Y8eOvLw8vgXUbTT/MzY2Pnv2LF8BUE0KCgqGDh3q6enJV4BSefbs2aJFiwwMDDZt2vTu3Tu+GgCgWiExArwHFy9eHDVqlL6+vo+PT1JSEl8NddiZM2coNN66dYuvAKiyoqKiiRMnuru7FxYW8nWgJF6+fLl8+XLKinPnzs3KyuKrAQBqABIjwHuTkZERGBjYrl27nj17hoSEvHr1im8BdVJERISpqSn+lQDVq7i42Nvb28nJCd9uUFIvXrxYu3atsbGxh4fHgwcP+GoAgBqDxAjwntE0LjY2dty4cTo6OvQ3KioqPz+fbwR1zOHDh2leeOnSJb4CoFIKCwunTJni6Oj48uVLvg4UXlZW1uLFiw0MDCgrpqSk8NUAADUMiRFAUdBMLiwszMXFRVdXd9q0aRQjcU2tuuzEiROGhoa4nidUXV5enru7u6ur69u3b/k6UGzJycne3t70puDr6/vo0SO+GgCgViAxAiicJ0+ebN26tV+/fjRLmDRp0qFDh16/fs03gjqAJosWFhYLFizA/w6g0rKyshwdHelIgvOjKJGioqLo6OhBgwaZmpoGBgY+ffqUbwEAUIuQGAEUV3Z29q5du1xdXbW1tYcNGxYSEvLw4UO+Eai0nJwcd3f3Hj163L17l68DKEtCQoK5ufmyZctwRR9l8fjx4xUrVtBW69u3b0REBHI+ACgCJEYAJfD69evDhw9PmzbN1NS0Y8eO8+fPj42Nxekr6o6tW7fq6+tv2LABp7iE8tu3b5+hoWF0dDRfAYqnoKCADvJDhw41MDDw9fW9ceMG3wIA4P1BYgRQMomJiatXrx4wYIC2tjZNL9avXx8fH48PEFReWlqai4uLvb19QkICXwfwT69evZo2bZq1tXVycjJfBwrmwoUL3t7eFBSdnZ0PHDiAM58BgAJCYgRQVjQp/PPPP/38/Lp27Urp0d3dfcuWLTdv3uTbgQrZu3evkZGRl5cXrsMGssTHx1tZWXl6euL3z4qMjtWLFy9u27atra3t2rVrHz9+zLcAAFAYSIwAquDZs2cRERHe3t7W1ta6urqUHtetW3fx4kWcMUX15OTkLFiwQE9Pb/ny5YgEII5e77RXGBkZRUZG8nWgGK5fv75kyRKK9O3atfvxxx/xPz4AUApIjACqJjs7Ozo6et68eT179tTU1HR0dKR5yR9//IGz7amS+/fvT5o0ycTEJCgo6M2bN3w11D1Xrlzp0qWLu7t7eno6XwfvVVFR0fnz5/39/S0sLNq3b7948WJ8txwAlAsSI4Aqoyxx+vTplStXurq66urqtmvXbty4cZQxLl68iCuzqYDExMSxY8caGhrSJn7+/DlfDXXDy5cv582bZ2pqeujQIb4O3p9Xr17RFpkyZYqenl6PHj2WL1+elJTENwIAUAZIjAB1yJ07d/bv3+/n59ezZ89WrVrZ2dnNnDlz+/bt8fHxOPOq8rp9+/b06dNpVrpgwYK0tDS+GlTanj17KCvSDpCTk8PXwfvATk7m5OSkpaXFroqET30BQNkhMQLUUQUFBRQUf/3111mzZnXr1q1ly5a2trY079y6devFixdfvnzJLwCK7dGjR/7+/gYGBsOHDz927BhOn6vyrl275uDg0Lt376tXr/J1ULsyMzP37dvn4eFhYmLSoUMHPz+/EydO4HscAKAykBgB4H8oQF6/fj04OHjOnDk9e/bU0NCwtLQcOXLksmXLoqOjcfl4ZZGXl7d79257e/v27duvWrUKH26oJHo9TpgwwdTUNCwsDP8aeF9evHhBx8a5c+fa2Njo6OiMGTNm586d9+/f59sBACg/JEYAkC41NTUyMnLJkiXu7u7m5uZaWlqUJGfOnBkUFHTixIknT57wC4AiuXLlipeXl66u7uDBgw8cOFCebx0XFBTgJDoKLisra86cOfr6+oGBgdhYtS89Pf3QoUO+vr52dnYaGhr04lq3bl18fDzfDgBAtSAxAkC55ObmXrp0aceOHTRbGjRokIGBAaURR0dHmr9u3ryZMiQ+zlJAFBQpLtK8VkdHx8PD4/jx4/IvuLJkyRJc810xUVZctGgRvejmz5//7NkzvhpqzK1bt4KDgydPnmxhYcF+mrhmzRpcuwgA6hQkRgCoJJq2njlzZuvWrT4+Ps7OzsbGxpqamt27d584ceLq1aujoqJoppWfn88vBu9DRkbGli1b+vbtS5FjxowZf/3117t37/hGJSUPHjzQ09Pbtm0bXyFSVFREmZNS5QKoRV5eXvb29s2bN+/WrdusWbP4agkULGNiYviNB+X29u3buLi4devWubu76+jomJmZjR07Nigo6Pr16/gOMADUTUiMAFBtXrx4cfXq1bCwMH9/f5psderUqWnTpu3atRsyZMjcuXMpsRw7dgw/iXy/Hj9+vHHjRgcHB21tbcr2Bw4cePXqlXiDwMBAdXV1Nzc37kuPmZmZtra29aB2qampffPNN5999tkHH3zA18lFrzjxzQdyvHv3jtLgjh07PD09aSdv0aIFRXRfX9+DBw8+fPiQbw0AUPcgMQJAzUpNTT169OjmzZt9fHwGDx5sbm7epEkTKysripFz5syh9BIdHZ2UlMTlFqhpGRkZISEhw4YN09LScnFx2bp16507d6g8Pz+ftlHjxo1bt24tfEO1qKiIxcVmzZp5e3vzn2pBTfLz8+OL5JoxY0YDEQr5/9jkIObGjRthYWGUq3v06EERsWvXrtOmTdu2bVt8fDy+bgoAwEFiBIDaRhOylJQUipGUUubNm+fu7t6lS5dWrVoZGhr27t174sSJS5Ys+e23386fP4/fRtaC169fHz58mGKGmZmZpaXl7Nmzly9fTjGSQmPLli13795NbY4fP05xsWnTpllZWfzyoHicnZ1pe23fvp2vqKvevn1LUTA0NJTid79+/TQ0NDp06DBhwoSgoKC4uDh6CfALAACAGCRGAFAUmZmZNHsLDw+nxDJ58mQHBwcTE5NmzZp17Nhx+PDh3t7eq1ev3r9/P7V59OgRvzBUh1u3bq1bt27QoEEUDlu0aKGurq6pqUkZPiAggBKIl5cXvwAoJF9fX9peXbt2rbO/aaRDxJ9//klHjLFjx9rY2NBhxNbWlo4qGzduPHnyZG5uLr8AAADIhsQIAArt7du3FGNo8rdt2zaa/o4fP75Pnz6mpqaNGzdu27Zt//79aRa4ePHi4ODg48ePJycn49utVXfhwgU7Oztaw+oi2traOjo6DRo0WLBgAd8UFBJtqTr1m8bnz59funRp586dFJX79etHe6yRkdGwYcMWLly4f//+pKQkqed5AgCAckJiBAClVFhYeO/evTNnzoSFha1YscLT09PFxcXa2rply5a6urq2trZubm4+Pj6rVq2iBtQsNTUVYVK+nJycoKAgCwsLFhSZ5s2ba2pqUnr89ttvR48ezS8DCoklxs6dO6vkbxozMjJOnDixefPm2bNnDxgwwNDQkCJijx49pk2btmnTppMnT+LqIwAA1QuJEQBUzdOnT+Pj46OiomhOGRAQMHnyZJpWWlpatmjRQktLi1LlwIEDPTw8lixZsn379ujo6CtXrjx+/JjvpS65cOHCpEmTKBzS+tHR0aF11b9//5kzZ27ZsuXIkSPXrl2bNWsWJRB8xqgsWGJk20upf9OYn5+fnJz8xx9/rFu3burUqRQLaReliOjk5DRnzhzaP2NjY1UpDAMAKCYkRgCoQ3Jzc2kCevLkybCwsOXLl1MQcnNz6969u6mpqbq6eps2bXr37j1y5EgqX7ZsWWhoKE1VL126dP/+/cLCQr4vVXH37l3KhPIzs3gCAcUnvr3Ybxr9/f35RgqGwuGtW7eio6M3bNjg5eXl4uJCr8cmTZpYW1u7urrScwkJCaEX4/Pnz/klAQCghiExAgD8H0qGcXFxhw8f/vXXXykxTps2bfjw4T179mzbtm3jxo11dXU7dOgwYMCASZMmzZ8/f/Xq1RQ7//rrr6SkpIyMDL4v1YLEqFzEt5cCbrtnz57Fx8f//vvv69evp3Do7OxsZmbWtGnTjh07jhgxws/Pb9u2bSdOnMC1WwEAFAQSIwBAuTx9+vTvv/8+c+bMnj17aKbr7+/v4eHh5OTUuXNnIyMjdXV1U1NTGxsbipQTJ0708fFhn1JS/qRFaO6bk5PD96hIUlJSNm7cSM+RrxBRwNQBcihIYszNzU1MTIyKitq0aZOvr6+bm1uXLl00NTV1dHTs7OxGjhw5f/787du3x8bG3rt3j18YAAAUBhIjAED1ePTo0Y0bN1ik3Lx5M/uUkqbFlCHbtWtHs2T2xdeuXbtSyZQpU2gOTW127dp18OBBWurmzZv3798vLi7m+60tZ8+epUFSDKZgzFW9x9QBlVCbibGgoICdg2rv3r2rVq3y9vYeMWKEra2ttra2lpYW7e3u7u5+fn5BQUHR0dEUIHFlCwAApYPECABQeygT0qSZneKV5tCUGCmhjR07ljKkjY1N27ZtKVW2aNGCbnTv3p0Kp06dOnv2bGq2fft2dtLXq1evUicvXrzgu64Op0+fbtKkCY1hyJAhsbGxQnlNpw4F8fr164SEhLS0tPf+s9Xnz5/Hx8dX+uy+1Z4YaSR3796l3W/fvn1r166dO3cu5UDaRY2Njb///nt2nRt23c5t27ZRMqTVqOAfqgMAQPkhMQIAKBbKLZQJr1y5woIlTcEpMXp7e1N6pAxJ03SaoGtqalKuMzIyott9+/alckqenp6e1HLdunW0FM3aafFbt25RVwUFBfxjyHbixAnKAJRaTU1NO3fu/Ntvv+Xn55czddy+fbt+/fpmZmZ8hcioUaM+ENOoUSOhqkOHDlTi5eUl1rwkJiaGCg0MDIQ2NCTxBvb29tQgJSVFaq2Pjw/VsgstSNaKL0uuXbvWpk0bNTW1eiINGjTQ1tam8s8++0x8zAL2HNmwyccff6yjo7N06VLxh5C6NuR3WCIaCcUwNgwqt7a2Fv85n/xHFFQiMb548SI1NZX2mfDw8PXr11P7SZMm0X7Vvn17DQ2Nli1bWlhY0N0JEyYsWrRo8+bNkZGRtIuq/C94AQCgBIkRAEB5ZWZmUiA8f/786dOnKSUGBwdTYly4cCGlR3d3d5rfd+rUiSJl06ZNKV5SJhHiJYUBdn0Rah8SEkLLUlAUEuaBAwcoNNIilNa6dOlCAcbBwYFSSpmpY968eSzqJCQk8HUlJUOHDv3uu+/2ilAO+c9//iNU0V1aimKJWPOSMWPGUKGurq7QhhKyUEuJhT0W+w4tV0tmz55NteyXmfKXpeTz0UcfUZbbvn37vXv3KLNREmvXrh1V7dmzJ1Rk/Pjx1J6eILsbFRXFum3WrNnWrVspDFMApgZHjhwRHkXq2pDfIbX85JNPvvnmm/3791NQ3LFjR8OGDb/88sv09HS2uPxHFEgmxlmzZt28eZN9ZXrTpk206WkHGDZsWK9evdgeoqmpaWlpyX6FS4usW7eONhO7kGkNfaANAADKAokRAKBOePz4MTsZLMUACiSUEtesWUOJkZIVhYfhw4dTWqB8SPlBW1u7cePG6qUMDQ3pLsWYsWPH8p2KKS4upshHCYflE766pKRfv37m5ubstouLi2RiJJcuXWIlBQUFX331VT0ZifHdu3f6+vpskYomRsllHR0d6bb4t3AlUXijNrTqxAupW+GjS4pY1GDRokXsbplrQ2qHgwYNUlNTu3z5slBy8OBBaubp6cnuynlEceKJkUIpbUQNDQ12WqbJkyf7+fmtWLGCdoCYmBh28ZgKfQoNAAB1DRIjAAD8f4WFhT4+Ps2aNWNxsUmTJpSvevXqVeZnjJS4KKVs2rSJkt53331XVFTENejWrRslUnZbMjFaWVnR4hTzWElUVBRlJyqXmhjXr19P4xk6dKiQ+sqfGLlls7Ky6IFsbW3Fl5UkNeCJ5zf29GfMmCF+V87akOyQhkoDo1Ut1up/aOSff/45uy3nEcVJfsYof9sBAADIgcQIAAD/Jycnp2/fvt+JNG3adODAgefOnSspX+oYNWrUv//971evXk2cOLGetG9Lamtru7m5sduSiXHkyJEmJiYaGhqshFp26tTJ2dlZMjHm5uZ+/fXXY8eOXbZsGUt9rJaWvSiGeqgnkRgllz1//jzd+Omnn9ijyCIZ8Er+md/o6dcT+4y0zLUh2SEbyc8//yzW6n8mTZpE5Y8fPy6R+4jikBgBAKAaITECAMD/JCUlURpRV1en5LZ69Wrxc12WmTpev3792WefsUB44cIFauzq6ire4O3bt/Xr16ecxu5KTYwU22jBK1eu5OXlffHFFxs3bpSaGL29van2yZMnXGKsJw2XGCWX3b17N93YuXOnMBipJANeiahbitZz5swxNDSk2n79+rHyMtdGibQO2UiCg4PFWv3Pjz/+SOVnz54tkf2IHCRGAACoRkiMAADwv9/L6enpUWyjhMPXlSN1hISEUAPKeLdEGjdu3LBhQ/GLQ+zZs4caXLt2jd2Vmhhv375NbXx8fGgwH374YXZ2tmRivHv37r/+9a+VK1dSCZcYafzZYjw8POr9MzFKXfbIkSN0Y9WqVcJgpJIMeCWibmmc9Lg9evSgbvPz81l5mWujRFqHMTExVLJ27VqxVv/j5eVF5cnJySWyH5GDxAgAANUIiREAoE4rLCzcvXt3UFCQnAvolZk6unXrVk+C+Ad3lpaW7OyjjNTESDfMzc21tLSGDBnSp08fuiuZGGlBykvv3r0rkUiMZf6OUeqyqampdGPEiBHiy0qSDHglom65i3YwZa6NEmkdpqWlUcmECRPEWv1P796969evz05OI+sROUiMAABQjZAYAQDqNFmfU4mTnzoePHjwgehqivdKXb16lUIOBSfW4OzZs7T4li1bhEVkJcalS5eyfBUaGloikRgbNGhAVX/++ScrqVBilLVsUVGRoaEh1d68eVN8cY5kwCuRkd/KXBuM1A4tLCw+++wzNmYmJSWFlh0wYAC7K/URJSExAgBANUJiBACAMshPHYsXL6aMRNFIvLB3795U+OjRI0plPXv2pMUjIiKOlercuXPDhg3pRlZWVolYYkxLS1NTUxO+w8klRuqkb9++wkNUKDHKWZZiJD1oo0aNKMXduXPnxo0bQUFBwoVAGKkBT2p+k782hBKpHZ46dYqyq4mJyblz5549e0YDa968+SeffMLGWSLjESUhMQIAQDVCYgQAgDLITx2Ghob29vZc4b59+2iR5cuXT548uZ5se/fupcZWVlajRo1iC0ZFRQmXRmTfI2W3qc1HH310+/ZtdpdQ59RDSkoKqzU2NhaqyJw5c6iWcherlbMsOX78uJaWFhsSpUd9ff0ffvhBaEx27txZr/T0MwLq1szMTLykpKy1IZRI7ZBQhtTQ0ChdPfUouCYlJQm1Uh9REhIjAABUIyRGAAAoQ1VSByXGBg0a8KWiaFSvNDEqiOzs7AsXLoh/KfR9efz4MY1Ezi9L5UNiBACAaoTECAAAZahK6pgyZcqHH37Il5YmxvDwcL4CqgyJEQAAqhESIwAAlKEqqaOwsJCd55NTXFxM5fSXr4AqQ2IEAIBqhMQIAABlQOpQLkiMAABQjZAYAQCgDEgdygWJEQAAqhESIwAAlAGpQ7kgMQIAQDVCYgQAgDIgdSgXJEYAAKhGSIwAAFCGJUuWUOrw8vLiK0Ah+fr60vby9/cvQWIEAIAqQ2IEAIAyHD9+nFJH06ZNs7Ky+DpQPM7OzrS9tm/fXoLECAAAVYbECAAAZSgqKrK1taXg0axZM29v7wWgwGbMmNFAJDMzswSJEQAAqgyJEQAAykbxg4VGUApz585lGw6JEQAAqgiJEQAAyqWoqOj48eM9e/akBNKhQwfxz7VAcSxatCgmJkbYauK/aQQAAKgEJEYAAKgA/KZRuYj/phEAAKASkBgBAKAC8JtGJcL9phEAAKASkBgBAKBi8JtG5SL8phEAAKASkBgBAKDC2G8alyxZwn+qBYqE+00jAABAJSAxAgAAAAAAgHRIjAAAAAAAACAdEiMAAAAAAABI9/8ARF6wxxsHFXYAAAAASUVORK5CYII=;" vertex="1" parent="1">
          <mxGeometry x="190" y="139.99999999999997" width="781" height="177.35" as="geometry" />
        </mxCell>
        <mxCell id="TUG91nMjqxLJ_kiFcx4I-1" style="edgeStyle=orthogonalEdgeStyle;rounded=0;orthogonalLoop=1;jettySize=auto;html=1;entryX=0.036;entryY=0.619;entryDx=0;entryDy=0;entryPerimeter=0;exitX=0.971;exitY=0.641;exitDx=0;exitDy=0;exitPerimeter=0;" edge="1" parent="1" source="4Ulf56FvuCfk-EnvV8hD-4" target="4Ulf56FvuCfk-EnvV8hD-5">
          <mxGeometry relative="1" as="geometry" />
        </mxCell>
        <mxCell id="TUG91nMjqxLJ_kiFcx4I-4" value="Подтверждение отмены&amp;nbsp;" style="edgeLabel;html=1;align=center;verticalAlign=middle;resizable=0;points=[];" vertex="1" connectable="0" parent="TUG91nMjqxLJ_kiFcx4I-1">
          <mxGeometry x="-0.1556" y="2" relative="1" as="geometry">
            <mxPoint y="-8" as="offset" />
          </mxGeometry>
        </mxCell>
        <mxCell id="TUG91nMjqxLJ_kiFcx4I-2" style="edgeStyle=orthogonalEdgeStyle;rounded=0;orthogonalLoop=1;jettySize=auto;html=1;entryX=0.029;entryY=0.844;entryDx=0;entryDy=0;entryPerimeter=0;exitX=1;exitY=1;exitDx=0;exitDy=0;" edge="1" parent="1" source="4Ulf56FvuCfk-EnvV8hD-4" target="4Ulf56FvuCfk-EnvV8hD-5">
          <mxGeometry relative="1" as="geometry">
            <mxPoint x="620" y="820" as="sourcePoint" />
            <mxPoint x="1070" y="860" as="targetPoint" />
          </mxGeometry>
        </mxCell>
        <mxCell id="TUG91nMjqxLJ_kiFcx4I-3" value="Подтверждения бронирования" style="edgeLabel;html=1;align=center;verticalAlign=middle;resizable=0;points=[];" vertex="1" connectable="0" parent="TUG91nMjqxLJ_kiFcx4I-2">
          <mxGeometry x="-0.0558" y="1" relative="1" as="geometry">
            <mxPoint x="-4" y="-13" as="offset" />
          </mxGeometry>
        </mxCell>
        <mxCell id="TUG91nMjqxLJ_kiFcx4I-5" style="edgeStyle=orthogonalEdgeStyle;rounded=0;orthogonalLoop=1;jettySize=auto;html=1;exitX=-0.007;exitY=0.344;exitDx=0;exitDy=0;exitPerimeter=0;" edge="1" parent="1" source="4Ulf56FvuCfk-EnvV8hD-5">
          <mxGeometry relative="1" as="geometry">
            <mxPoint x="650" y="704" as="targetPoint" />
          </mxGeometry>
        </mxCell>
        <mxCell id="TUG91nMjqxLJ_kiFcx4I-6" value="Запрос на бронирование" style="edgeLabel;html=1;align=center;verticalAlign=middle;resizable=0;points=[];" vertex="1" connectable="0" parent="TUG91nMjqxLJ_kiFcx4I-5">
          <mxGeometry x="0.104" y="2" relative="1" as="geometry">
            <mxPoint y="-11" as="offset" />
          </mxGeometry>
        </mxCell>
        <mxCell id="TUG91nMjqxLJ_kiFcx4I-11" style="edgeStyle=orthogonalEdgeStyle;rounded=0;orthogonalLoop=1;jettySize=auto;html=1;entryX=0;entryY=0;entryDx=140;entryDy=122.5;entryPerimeter=0;" edge="1" parent="1" source="4Ulf56FvuCfk-EnvV8hD-4" target="4Ulf56FvuCfk-EnvV8hD-9">
          <mxGeometry relative="1" as="geometry">
            <Array as="points">
              <mxPoint x="368" y="773" />
            </Array>
          </mxGeometry>
        </mxCell>
        <mxCell id="TUG91nMjqxLJ_kiFcx4I-12" value="Информация о бронированиях" style="edgeLabel;html=1;align=center;verticalAlign=middle;resizable=0;points=[];" vertex="1" connectable="0" parent="TUG91nMjqxLJ_kiFcx4I-11">
          <mxGeometry x="0.2608" y="-2" relative="1" as="geometry">
            <mxPoint x="38" y="-11" as="offset" />
          </mxGeometry>
        </mxCell>
        <mxCell id="TUG91nMjqxLJ_kiFcx4I-13" style="edgeStyle=orthogonalEdgeStyle;rounded=0;orthogonalLoop=1;jettySize=auto;html=1;entryX=0;entryY=0;entryDx=140;entryDy=85;entryPerimeter=0;exitX=0.002;exitY=0.56;exitDx=0;exitDy=0;exitPerimeter=0;" edge="1" parent="1" source="4Ulf56FvuCfk-EnvV8hD-4" target="4Ulf56FvuCfk-EnvV8hD-9">
          <mxGeometry relative="1" as="geometry" />
        </mxCell>
        <mxCell id="TUG91nMjqxLJ_kiFcx4I-14" value="Информация о мероприятии" style="edgeLabel;html=1;align=center;verticalAlign=middle;resizable=0;points=[];" vertex="1" connectable="0" parent="TUG91nMjqxLJ_kiFcx4I-13">
          <mxGeometry x="0.1005" y="1" relative="1" as="geometry">
            <mxPoint x="14" y="-11" as="offset" />
          </mxGeometry>
        </mxCell>
        <mxCell id="TUG91nMjqxLJ_kiFcx4I-15" style="edgeStyle=orthogonalEdgeStyle;rounded=0;orthogonalLoop=1;jettySize=auto;html=1;exitX=0;exitY=0;exitDx=140;exitDy=47.5;exitPerimeter=0;entryX=0.038;entryY=0.334;entryDx=0;entryDy=0;entryPerimeter=0;" edge="1" parent="1" source="4Ulf56FvuCfk-EnvV8hD-9" target="4Ulf56FvuCfk-EnvV8hD-4">
          <mxGeometry relative="1" as="geometry" />
        </mxCell>
        <mxCell id="TUG91nMjqxLJ_kiFcx4I-16" value="Управление мероприятиями" style="edgeLabel;html=1;align=center;verticalAlign=middle;resizable=0;points=[];" vertex="1" connectable="0" parent="TUG91nMjqxLJ_kiFcx4I-15">
          <mxGeometry x="-0.3274" y="2" relative="1" as="geometry">
            <mxPoint x="38" y="-6" as="offset" />
          </mxGeometry>
        </mxCell>
        <mxCell id="TUG91nMjqxLJ_kiFcx4I-17" style="edgeStyle=orthogonalEdgeStyle;rounded=0;orthogonalLoop=1;jettySize=auto;html=1;entryX=0.11;entryY=0.171;entryDx=0;entryDy=0;entryPerimeter=0;exitX=0.999;exitY=0.124;exitDx=0;exitDy=0;exitPerimeter=0;" edge="1" parent="1" source="4Ulf56FvuCfk-EnvV8hD-9" target="4Ulf56FvuCfk-EnvV8hD-4">
          <mxGeometry relative="1" as="geometry" />
        </mxCell>
        <mxCell id="TUG91nMjqxLJ_kiFcx4I-18" value="Управление бронированиями" style="edgeLabel;html=1;align=center;verticalAlign=middle;resizable=0;points=[];" vertex="1" connectable="0" parent="TUG91nMjqxLJ_kiFcx4I-17">
          <mxGeometry x="-0.027" y="2" relative="1" as="geometry">
            <mxPoint y="-7" as="offset" />
          </mxGeometry>
        </mxCell>
        <mxCell id="TUG91nMjqxLJ_kiFcx4I-22" style="edgeStyle=orthogonalEdgeStyle;rounded=0;orthogonalLoop=1;jettySize=auto;html=1;entryX=0.857;entryY=1.017;entryDx=0;entryDy=0;entryPerimeter=0;" edge="1" parent="1" source="4Ulf56FvuCfk-EnvV8hD-4" target="4Ulf56FvuCfk-EnvV8hD-7">
          <mxGeometry relative="1" as="geometry">
            <Array as="points">
              <mxPoint x="620" y="620" />
              <mxPoint x="620" y="620" />
            </Array>
          </mxGeometry>
        </mxCell>
        <mxCell id="TUG91nMjqxLJ_kiFcx4I-23" style="edgeStyle=orthogonalEdgeStyle;rounded=0;orthogonalLoop=1;jettySize=auto;html=1;exitX=0;exitY=0;exitDx=42.5;exitDy=170;exitPerimeter=0;entryX=0.337;entryY=0.017;entryDx=0;entryDy=0;entryPerimeter=0;" edge="1" parent="1" source="4Ulf56FvuCfk-EnvV8hD-7" target="4Ulf56FvuCfk-EnvV8hD-4">
          <mxGeometry relative="1" as="geometry" />
        </mxCell>
        <mxCell id="TUG91nMjqxLJ_kiFcx4I-24" value="Доступ к&lt;br style=&quot;border-color: var(--border-color);&quot;&gt;расписанию" style="edgeLabel;html=1;align=center;verticalAlign=middle;resizable=0;points=[];" vertex="1" connectable="0" parent="TUG91nMjqxLJ_kiFcx4I-23">
          <mxGeometry x="-0.1227" y="2" relative="1" as="geometry">
            <mxPoint x="-45" y="3" as="offset" />
          </mxGeometry>
        </mxCell>
      </root>
    </mxGraphModel>
  </diagram>
  <diagram id="qdKCSChonpAPHppuzeSz" name="A0">
    <mxGraphModel dx="1601" dy="967" grid="1" gridSize="10" guides="1" tooltips="1" connect="1" arrows="1" fold="1" page="1" pageScale="1" pageWidth="4681" pageHeight="3300" math="0" shadow="0">
      <root>
        <mxCell id="0" />
        <mxCell id="1" parent="0" />
        <mxCell id="iwIjOQ0l9ESNVvc_IxY7-1" value="Составлять расписание" style="shape=ellipse;html=1;dashed=0;whiteSpace=wrap;aspect=fixed;perimeter=ellipsePerimeter;" vertex="1" parent="1">
          <mxGeometry x="890" y="1320" width="120" height="120" as="geometry" />
        </mxCell>
        <mxCell id="iwIjOQ0l9ESNVvc_IxY7-2" value="Отправлять напоминания" style="shape=ellipse;html=1;dashed=0;whiteSpace=wrap;aspect=fixed;perimeter=ellipsePerimeter;" vertex="1" parent="1">
          <mxGeometry x="790" y="1090" width="120" height="120" as="geometry" />
        </mxCell>
        <mxCell id="iwIjOQ0l9ESNVvc_IxY7-3" value="Управлять бронированиями" style="shape=ellipse;html=1;dashed=0;whiteSpace=wrap;aspect=fixed;perimeter=ellipsePerimeter;" vertex="1" parent="1">
          <mxGeometry x="1160" y="1300" width="120" height="120" as="geometry" />
        </mxCell>
        <mxCell id="iwIjOQ0l9ESNVvc_IxY7-4" value="Обновлять расписание" style="shape=ellipse;html=1;dashed=0;whiteSpace=wrap;aspect=fixed;perimeter=ellipsePerimeter;" vertex="1" parent="1">
          <mxGeometry x="320" y="1110" width="120" height="120" as="geometry" />
        </mxCell>
        <mxCell id="iwIjOQ0l9ESNVvc_IxY7-5" value="Администратор" style="html=1;dashed=0;whiteSpace=wrap;shape=mxgraph.dfd.externalEntity" vertex="1" parent="1">
          <mxGeometry x="1160" y="1080" width="120" height="110" as="geometry" />
        </mxCell>
        <mxCell id="iwIjOQ0l9ESNVvc_IxY7-6" value="1" style="autosize=1;part=1;resizable=0;strokeColor=inherit;fillColor=inherit;gradientColor=inherit;" vertex="1" parent="iwIjOQ0l9ESNVvc_IxY7-5">
          <mxGeometry width="30" height="30" relative="1" as="geometry">
            <mxPoint x="10" y="10" as="offset" />
          </mxGeometry>
        </mxCell>
        <mxCell id="iwIjOQ0l9ESNVvc_IxY7-7" style="edgeStyle=orthogonalEdgeStyle;rounded=0;orthogonalLoop=1;jettySize=auto;html=1;entryX=0;entryY=0.5;entryDx=0;entryDy=0;" edge="1" parent="1" source="iwIjOQ0l9ESNVvc_IxY7-9" target="iwIjOQ0l9ESNVvc_IxY7-4">
          <mxGeometry relative="1" as="geometry">
            <Array as="points">
              <mxPoint x="220" y="1170" />
            </Array>
          </mxGeometry>
        </mxCell>
        <mxCell id="iwIjOQ0l9ESNVvc_IxY7-8" value="Составление расписания&lt;br style=&quot;border-color: var(--border-color);&quot;&gt;экскурсий" style="edgeLabel;html=1;align=center;verticalAlign=middle;resizable=0;points=[];" vertex="1" connectable="0" parent="iwIjOQ0l9ESNVvc_IxY7-7">
          <mxGeometry x="0.0375" y="-3" relative="1" as="geometry">
            <mxPoint x="-3" y="17" as="offset" />
          </mxGeometry>
        </mxCell>
        <mxCell id="iwIjOQ0l9ESNVvc_IxY7-9" value="Экскурсовод" style="html=1;dashed=0;whiteSpace=wrap;shape=mxgraph.dfd.externalEntity" vertex="1" parent="1">
          <mxGeometry x="150" y="1000" width="120" height="110" as="geometry" />
        </mxCell>
        <mxCell id="iwIjOQ0l9ESNVvc_IxY7-10" value="2" style="autosize=1;part=1;resizable=0;strokeColor=inherit;fillColor=inherit;gradientColor=inherit;" vertex="1" parent="iwIjOQ0l9ESNVvc_IxY7-9">
          <mxGeometry width="30" height="30" relative="1" as="geometry">
            <mxPoint x="10" y="10" as="offset" />
          </mxGeometry>
        </mxCell>
        <mxCell id="iwIjOQ0l9ESNVvc_IxY7-11" value="Посетитель" style="html=1;dashed=0;whiteSpace=wrap;shape=mxgraph.dfd.externalEntity" vertex="1" parent="1">
          <mxGeometry x="960" y="880" width="120" height="110" as="geometry" />
        </mxCell>
        <mxCell id="iwIjOQ0l9ESNVvc_IxY7-12" value="3" style="autosize=1;part=1;resizable=0;strokeColor=inherit;fillColor=inherit;gradientColor=inherit;" vertex="1" parent="iwIjOQ0l9ESNVvc_IxY7-11">
          <mxGeometry width="30" height="30" relative="1" as="geometry">
            <mxPoint x="10" y="10" as="offset" />
          </mxGeometry>
        </mxCell>
        <mxCell id="iwIjOQ0l9ESNVvc_IxY7-13" value="Расписание мероприятий" style="html=1;dashed=0;whiteSpace=wrap;shape=partialRectangle;right=0;" vertex="1" parent="1">
          <mxGeometry x="450" y="1040" width="100" height="30" as="geometry" />
        </mxCell>
        <mxCell id="iwIjOQ0l9ESNVvc_IxY7-14" value="Бронирования" style="html=1;dashed=0;whiteSpace=wrap;shape=partialRectangle;right=0;" vertex="1" parent="1">
          <mxGeometry x="720" y="960" width="100" height="30" as="geometry" />
        </mxCell>
        <mxCell id="e02wtx5-SLiHqjmiI3O6-1" value="" style="shape=image;verticalLabelPosition=bottom;labelBackgroundColor=default;verticalAlign=top;aspect=fixed;imageAspect=0;image=data:image/png,iVBORw0KGgoAAAANSUhEUgAACQgAAAFECAIAAADuzdb6AAAAKnRFWHRjb3B5bGVmdABHZW5lcmF0ZWQgYnkgaHR0cHM6Ly9wbGFudHVtbC5jb212zsofAAAETmlUWHRwbGFudHVtbAABAAAAeJztVltPG0cYfZ9f8WlfClIdOS6pKj9UsXNBIriNYuB92Z3YK9a7aC+mVRUJTNM2QiK9EDVSm0BS9a0PQOPGIVz+wuw/6plZL3i9S2q3lRK1gDDjmfnOnDlz5pvvqh/oXhC2bKq30KC6a1i6TZUi85csZ1n39BaZ/K4e2sEc/yyo2FbDaXEnIAMf3GMD0zxuBLrTsDl9wQg/VdczuXfNtV2PFm3dWBronWtaxpLDfZ9K7N4giOHaNnAs1/HHhFG9GG54buiY8fyVphVwNVLxPHcl7qwqEKz6HonvxZHoRt/gsye6FK1F69EDfDlGqyN6bJDNguVbAcJ1nzSxLZ6KZ+KReC4e4++R+En8pqVmV8yW5cRzvxVb4mfMe4K/Z5i9g57niN9JR0yHlsnjiB8wc0tTBLejVbD5CiTX8LvBzkTWxC/iBKO7Yl+8Ft3+FsSeDJBf1P99DMv2Q3EoeppEr+mO3uBV14XkDf8v8aI1oOxFG1KODMqNNkyQxniKiQnKgdilaB2NrngBlMNT2FcKo84d8xM3sO5ahq4kSAOJPXkQaTLABaETUFlLNqag5pdNPeB1o8nN0OZKuF8VCRn3GtMegApIyI4jbOY+w3x9UfflSt/lK6aA73Cfe+0+vYGYnWEiQ1L1t6gEStHaxml2MO9A9FKEaEKFy0HoFXWUAfdhx01wV+jrfXpH0SZVCsXJvn9fAqMHbY+B1hWv4jjJH3wIDGFliYeeDsallocssXLBdFecwsdDnqAyNvgjYE+U94ByJNXLNZboamwouhAuAzJZoqwuC8j1N7Yq/lBE3+xW7e9RlOodSvBo/Z/ROgPaiK/hltJwV3rpXNIk9im6P2S7bvqUxfG54TDlMOX+3gdNqJg/BtqXILkKkrtIDmrx85BxY1kKIVYiR9DhKwdNJXBv3NWkYKPlEsKMF7KhYGBddcM7ajEkDBZn0YJnNZrBKec46yjGI2YslgpMZE1dzjfpmrrYQEsHDso5QG08MYeXyN146rDGTv75FyJeaGxTSbsmB53J79HD9+MrdMoQFJB3og3JMZOSos0MtWTfmSdCMR3lMmosG3sKO5gFcvjLpDZKcv0dYyqQxW93Yqz0a9SnrEoKvIYnJA7yHrJNjQ3FxQeUdekTRLxUfvo6dpbSNW37jEnPp5Y16nHuU5t94fIJx1qMTpRdxUGhAEXjf1yLvuVK86KsHKWsfCtF40W1Nl619l8poi5qn3e79nkHa5aLMuTfKENu27oTzNdmqc09H4dAly+ViqWpSx9MzDVDuskX6fIVKpXKU8Vy8QrV6rdIDk+yienbs+0S+W7oGZxMyw88azGUxzjJZvS2TndCJ7BavEyfLnNn5vqtpINuOG3Lc1Utw2YWamcTPpwqVC0UQsg73KOFGrselz+IMFwTvivT/NzNwkdsFu9bCDuWiTvsGoqOwPu8TNNV9icZhFxX788tlQAAgABJREFUeF7s3XlcVNX7wHFQ08yy0ixccEMRZVcUQ0sNlzTNBcPMLPfM1FTUXDJzIfelzCXFHfcFtXCJn4iluKGB4Yq4KxBuKC4M2+/EyfmOh5kRTJKZ+bz/4HXnec49c+6ZO3fmzsPMtcoEAAAAAAAAAAAALICVGgAAAAAAAAAAAADMEYUxAAAAAAAAAAAAWAQKYwAAAAAAAAAAALAIFMYAAAAAAAAAAABgESiMAQAAAAAAAAAAwCJQGAMAAAAAAAAAAIBFoDAGAACATI1Gs2bNmnHjxn2L/G358uXx8fHq4wfAKA5xMI5DKwAAgEWhMAYAAGDpUlJSatWqZQUTUahQoZEjR6qPIgADOMQhJzi0AgAAWA4KYwAAAJZu7dq1VlZWVatWVf+FHvmPj49PoUKFxOO1Y8cO9YGEeXnw4MHRo0dXrFgRERGh5pAb8hBnZ2c3HDDg/fff59AKAABgOSiMAQAAWLrx48dbWVmNGjVKTSBfGjRokHi8xKOmJkzH1q1bBw8enJCQoI3cunVLRI4eParTynIlJyfLCugLL7zg5uYWHBystkBuyEPc0KFDkwDD+vbta+qHVgAAAOQQhTEAAABL9+2331pZWYm/agL5kny8GjZsaLoXxYmOjra2th4yZIg2Mn78+FKlSiUnJ+u0slzdu3d/7bXXfv/994yMDDWH3JNPmeHDh6uVEECH2EN4KQQAALAQFMYAAAAsHYUx0yIfL8l0L4rzwQcfFCtW7Nq1a2L5zp07JUuWnDRpktroP/RUSlBPpZN79+4VL1583LhxagJPisIYcoLCGAAAgOWgMAYAAGDpKIyZFu03xkz6emNHjx61trYeMWKEWJ48efJrr70mvy7WqlUrex2urq6yvYiPGjWqa9eur7zyiq2t7eLFi2V83Lhxnp6eRYoUcXFxCQkJ0TaWqzdo0CA0NFQGY2NjdXteuHChjJ8/f75p06bPP/98xYoVg4KCtD1oS1NLly7VHcasWbPkcs+ePbVxvZ3ounz5sq+vb6lSpcRQxb0/ePBABC9dutS2bdtXs4hH88qVKyJ4+PBh8ZiuWbOmW7du7u7u4l5u3bolO9EdlXDixAnRVWRk5Jtvvqm7aUJwcLChoUZHR7du3VpMl2gm5z8zq+cmTZrIZWHmzJkiu3//fpnS248JoTCGnKAwBgAAYDkojAEAAFg6CmOmRffxMunrjbVr16548eJXrlx5/fXXJ0yYIINOTk7vv/9+SJbevXsXLVpUGy9QoECvXr3Wrl3bsGHDwoUL37lzR8TFiuvXrz927Fj9+vUbNWqkbezr67tt2zZnZ2d3d3cZjIqKEnMVGBgoehbdTpkyRQTT09NdXV0bN24cERHRr18/GxsbbQ99+/aVyzNmzNAdxujRo8XCL7/8InqTcUOdaKWmprq5uZUoUWLatGnHjx/fvHlzWhYxturVq2/atCkoKEgs1KpVS3Qlhi16FnMiNr979+5FihTp06eP7Ed3VMIff/whWu7bt2/37t1ioz799NOXX35ZTl18fLzeoQouLi4VKlRYt26duMeuXbvKoGgs2oSHh2dmfe+tfPny4qasKRrqx4RQGENOUBgDAACwHBTGAAAALB2FMdOi+3iZ9GMXGRlpbW1dtWrVkiVLyipXptGKVOfOneVydHS02OqNGzfKm0JycvLw4cNfeuklbeMvvvjizJkzbm5uvr6+Mrh//36xlvzxRtFSFsb27dsnghMmTNi7d+/atWvFshiV7EHcXWyWkSNHKoUxMdry5cvXqVNHxg11oiUbDB48WDcox/PTTz/Jm3PnzhU3Dx06tGLFCrGwc+dOGe/du7etra1cFvfeqVMnMaS0tLRMncKYzI4bN65UqVJyWTbOPlShRo0azZo1Ewu1a9fu1q2btrHoStbJxF2/8cYbVo8WxrL3Y0IojCEnKIwBAABYDgpjAAAAls6kiysWyGwKY0KbNm3E+P39/bURI4UxbTw1NbVAgQLy4mpz5syxtbV94403KleurFsYK1y4sGjzwgsv/PHHHzK4du1aEdFoNJk6hbHVq1eLAYh1HR9av3697KFIkSIls4hOlMLYl19+6enpuWTJEhk31ImWbPDLL79kDx4+fFjePHTokLi5bt06+Y0x+bOKwvz588XNs2fPZmbdu7jHQoUKvfbaa2JzclIYU4Yq/N///Z/YKDFjxYoV0y2M+fj4iC1NSkrq2LHjiBEjrB4tjGXvx4RQGENOUBgDAACwHBTGAAAALJ2pF1csjTkVxoYPH16iRInbt29rIzkpjB09elRs9dy5c8PCwsRCQECACE6ZMkW3MNa/f/9r1675+PiI/lNSUkRw1KhRlStXlg2Ub4wtWLBAxrWMDKN58+ZFihSJiopavny57jfGsneiFR4eLhrISp7Wb7/9JoLLli2TNxctWmSV9WOGJ06cEAvbt2+X8X79+llbW9+7dy/z4aju3r0rxlCpUqUjR45YGS2MZR9qZtb37cTmDxw4sGrVqro/pbh69epXXnll/Pjxr7/+uiy5aQtjevsxIRTGkBMUxgAAACwHhTEAAABLZ+rFlZy4e/fu0aNHz58/L3+D7hm6detWVFRUcnKymsgx8yiMxcfHBwQEFChQYM6cObpxIxWp6tWrHzlyJDEx8ZNPPhHxq1evBgUFic3ftGnTb7/9Vr9+/YIFC8oam2jcs2fP06dP9+7d+7nnnktISAgODi5durSfn5/sTVsYk1f/sre337Fjx4MHDyIjIy9cuGB8GOIehw0bJpa1VSJDnWiJBi4uLjY2NsuWLRMbvmXLFrFDipaVK1cWwz527JhYpW7dulWqVBFB0b5WrVpeXl43btzYtWtXmTJl2rdvL/sR9969e/dDhw65u7uXK1fusd8Yyz5UjUbj4ODQsGHD9PR05acUxaj69esnVvnss89OnTqlWxjL3o9poTCGnKAwBgAAYDkojAEAAFi6nBRXzpw5U7BgQXd3dzWRpVu3bgV0lCxZUpuqV6+eiAwdOlSneWZISIgIOjo6atu4ubnpNmjatKloEBMTozc7YsQIkb1x44berO66mVkXsqpVq5a1tbVVlkKFCtnb22dmlUZ0x6wlt1EOW3j++eerVasmiyhaemfDeIeZWSNxcXGRwxDx+vXrnzt3Tru68XvUZQaFsYMHD4phv/rqq35+fhkZGbopZ2fnfv36yeWZM2e+8MILctnJyalmzZqlSpUSD+XLL7+8YcOGzKyCk7e3t+iqePHi/v7+orGDg4PsRM6zeKynT58uIp6enr6+vklJSbI30X7q1KlyWTwKDRo0EI1Fz2JImzdvlj3oHYaI29nZye9vLV++XBvX24kusUPWrl1bjqpMmTLx8fGZWbuEeBbIoKura1RUlGx88uTJGjVqWGdp3rx5YmKijMvtsrW17dix4/79+8Xq4qZYkFn5ZS+5LBtnH+rkyZPFrnvs2DGxXKdOHW1hTDTesmWLGOSwYcNOnDhx+vRpq4eFMb39mBYKY8gJCmMAAACWg8IYAACApctJceWbb76RH98fPXpUzWVmfvTRR2XKlFmX5c0333zllVe0KXFTrFWpUiWd5pk9evQQQVnDkG2cnZ212eDgYHlfp0+fzp4Vhg0bJrLXr1/PnlXWPXLkSOHChV966aXFixdfuHAhMjJyypQpderUycy64tSKLJ999ploLzZQ3ty6davstnz58gsXLuzWrVvJkiVFg19//VV7L3pnw3iHomXRokVff/31jRs3njt3bunSpcWKFXv11Vfj4uLk6sbvUZcZFMbu3Llz4sQJpSRmnPwKV3p6+sWLF5Wv/SUkJKSmpoqF27dvJz0sfeWWWPHq1atqNJce20liYqLcb3X99ddf165dU4KZWdv1xJsDXRTG8lRsbOzs2bP79evXsmVLcXRV06aDwhgAAIDloDAGAABg6R5bXMnIyKhUqVKxYsVEsyFDhqjpzMw2bdp4eHjI5Q4dOmQvjAkREREyotFoSpQoYWWgMJaamlqjRg25Sm4LY9nXbd26tVgOCwvTXV2xdOlS0Wbv3r26QdGt9otos2fPFg3Gjh0rbz52NvR2+MEHH1hbWx8+fFgb2bRpk2im/XE/I/eoMIPC2BPQ/W1DQFdMTMy8efOyVxy1HlsYmzlzZoECBWbMmKEbbN++fYUKFW7duqUbhOLAgQNly5YtVarUJ598Mn78+M2bN6stTAeFMQAAAMtBYQwAAMDSPba4EhYWJhr89NNPJUqUKFOmTHp6utKgSZMmjRo1ksvZC2NeXl5WD69RJGzdutXa2lrE9RbG5syZU6BAgY8++sgq94UxZd3ExERxR97e3rrrZqe3jqVbppKbP2jQIN2bRmYje4diqGJgLVq00Gn1NzHy4sWLy2Uj96iwzMLY7Nmzg4OD1SiQJTw8vHr16p06dTp06JCay0FhLD4+vmTJknZ2djdv3pSR6OjoggULTpw48dGGUIk5L1asWFRUlJowQRTGAAAALAeFMQAAAEv32OJKt27dXnzxxeTk5D59+ljp+4k/e3v7Tz/9VC5nL4x17drV1dXVzs5ORkTLt99+29fXN3thLCkpqVSpUj179pw6daqVTmFMrHtIh+jBKlthLPu6+/fvFwvfffedvBdDstexMh8tU4nNt9L5xttjZyN7h3IkkyZN0mn1ty+++ELE5Y/vGblHhWUWxgDjwsPDK1WqZGNjU6tWrRUrVuimHlsYE2S5PTAwUN4Uz275S6ePtjJG73fLbmVRo7n0VDrRymFvetsoQXEQFrPUsWNH3aDpojAGAABgOSiMAQAAWDrjxZW7d+++9NJLsu514MAB0bJz5866De7fv1+wYMGpU6fKm3oLY999951Y8ciRIw8ePHj55ZfnzZuntzD21Vdfiexff/2lFMas9FEKY9nXXb16tVhYtmyZdjB6Za9jZWZ1W6ZMmeHDhzs5OYlsmzZtZPyxs5Gpr0M5kuXLl+u0+pu/v7+Ih4eHZxq+x+wojAF6iadS1apVHR0dbWxsqlSpIp4XKSkpmTkrjJ09e7Zo0aKenp5i+eLFi8WKFRsyZIhMiee7w6OmT5+uTYlD2Q8//GBnZ/fCCy/4+PhcuXJFpubMmdO4cePixYuXKlVq2LBhMqjbW82aNceMGSODN27cqF69urZ/kZLxhISEbt26vfrqq+Lg1qdPH9FM24m4X7l88+ZNsa7ukD777DO5vHPnTt3RGupNV2Ji4uDBgytWrCiO6uKIJDZNBr/88suyZcsWLlzY1dV106ZNsvHRo0fFxM6YMUNsSL169Zo3by7uUaZ0Ryj169evWbNmYkG01G6p1KJFC7mKoZFfunSpR48eHh4ecpbi4+Nle/FYX758WbYRg3R3d3/77bflTSO9GUJhDAAAwHJQGAMAALB0xosrgYGBIjtv3ryTWUqXLl2sWLHk5GRtg7Vr14oGkZGR8qbewtiZM2dEmxEjRmzatOm55567du1a9sLYuXPnihQpMmPGDBFRCmPVq1e/puPLL7+0erQwpnfdX3/9VSx8//332sHolb2OlZnVrRinuN93331XdCs/Xs/MwWxk6uswJCRERH788UedVn8bOnSoiJ86dSrT8D1mR2EMMCQ8PNzR0fHtt9+2yVKuXDlx/BkyZIjV4wpjQo8ePUQz8WwdM2bM888/L45aMt6gQQPRz7gsY8eO1e1KpIoWLVqmTJlBgwaJO7XK+s1YmerSpUuvXr3EEaNdu3YifuzYMe0qlSpVmjJliiz57969OymrZCWWfXx8xF2IuDiqyMadO3d+9dVXJ06cKI4VuldBE53UqVNHLt+8eVMZkqwzibi7u7tuylBvuuT3cT/88MPVq1eLQQYFBclgoUKFPvroo1mzZonjrbW1dWhoqIiLv6Kxra2tmGqx+SIuZkOWBnVHKLVp08bOzk4siPsVmykGI9YVUySW58yZI1cxNHI5h2IYLVu2tMr6lq1sL5Zl6U6QB2fxWMibRnozhMIYAACA5aAwBgAAYOmMF1eaNGlilY3u17Dq1q1bp04d7U29hTGx4OHhUbVq1Y4dO7Zs2VLczF4YEytWr149NTU1M1th7LHXGNO7bmxsrFj45JNPdNfNLnsdKzOrW+0PG+p67Gxk6uvw/PnzIvL555/rtPrbe++9V7BgQY1Gk2n4HrNTCmOyAABAq0qVKtrl0qVLlytXrnDhwo+ti0RFRYnnY7NmzcQq3bp108aNV6HEXRw/flzedHV1rV27tlzWioiIEKvMnj1b3hSriGOmWAgICBBx+RWrCxcuyCOJWP7iiy9kYUwcxAoUKNC3b1+5oqOjY/369bWdGBmSLAj98MMPoh9tykhvWrKNmD3dYExMjAi+//778qY4mllbW7dq1Uosr1u3TvT/7rvvyq9wydLUihUrkowWxiS5rvYbZkmGRy7UqFGjYsWKYmHMmDFWjxbGxJFTtpE1s+yFsey9GUJhDAAAwHJQGAMAALB0Rgpjly5dKlCgwNChQy889McffxQsWLBJkyayQXh4uFg3ICBAu4qhwtiUKVOsssjL/yiFsUKFConUjh07ZCRXhTFD66anpzs5OYnsiRMndFdXZK9jZRooUz12NiS9HXp6er700ktyzFJMTIxYt127dvKm3nvUSymMGXrsAAskf02xTJkyNjY21atXr1at2rRp0+QR47F1EaFt27aipXiai6e2Nmi8CqVb/unWrZt4UosDRVLWl8Dmz5/fo0ePpk2bilVmzpypXeWNN95o3779yy+/LA6DokMRFMco0Wbjxo1JOoWxX375RQTFhjhmEcEKFSpoOylevHiTLI0bN1aG1KJFi/Pnz5coUWLMmDGvvvqqTBnpTUu2EQPQDQYHB4vgxIkTtRExsbJ4JgZslXWdRRm/evWq2HxxwE/KGoY44r3zzjtiTkJCQpJyXBjLPvKkhyWrAQMGfPDBB1Y6hTF7e3urrO8ri7XEFjVv3lwpjOntzRAKYwAAAJaDwhgAAIClM1JcmTBhQoECBS5cuKAbfO+990TwypUrp0+fbt68uVh3y5YtOx9q2LBhsWLFxEJiYmKmTmFMfs9A+8ODSmFMdPL+++9r7yJXhTEj6+7YsUPcacmSJZcuXXr27Nnjx4/Pnz/fw8ND2zjTQB1Lb5nK+GxoI3o7/P333wsVKuTq6rpv374bN26IgVWoUKFo0aJynJkG7lEvCmOAXuHh4ZUqVSpbtmy1atXEE2rVqlU5v8aYJA5comXr1q11gzkvjHXv3l1kL168KI5O9evXF0eevn37zpgxw+rRwliZMmXEUbF06dLiKS9/YlH+h4E4aCTpFMbEcVUE27dv/8NDCxYs0O1kWBb5i6xKYUyMxN7e/tq1a9qCkJHetGQb7cXVpKCgICudXywU3N3dy5cvLxbEgEVq5cqVMi6O+c8//3ybNm2SHo7w888/r1ixojjQnTt3LoeFsewjl7y8vORPNVrpFMb8/PxefPHFr776avr06S1btuzUqZNSGDPUm14UxgAAACwHhTEAAABLZ6S44uTk1LRpUyW4YcMG0X7atGl9+/a1MmzdunWisZeXV7du3eSKW7duDQsLk8vyxw/lsmhTuHDhM2fOyJuC6Fz0EBMTI7MuLi7alCA/vrxx44bMGllXCA0NrVq1qhyStbV1jRo1evfurW0sLFu2TKTCw8N1g6Jbd3d33Ujm42ZDG9HbobB37147O7uH02Pl4eFx7NgxbVbvPepFYQzITjzjKlSoYGNj0759e+1xRsp5Yey7774TLcXqusGcF8bc3NxKliwpFlatWiWazZ07VyyfPHlSLOteHkz+lOKRI0dE3M/PTyx///33BQsWlD9IqC2MnTp1ShyymjVr9rD7/zE+pLJly4reNm3aJG5qC0JGetMSQxVtxIFON/jnn3+K/jt16iRvxsXFFSpUqFGjRmL5ypUrRYsW7dOnj0xt377d6mFdTTtCMQwRnDx5ck4KY3pHLqxcuVLOlfJTiqNGjfrkk0/E4y4Op4GBgUphzFBvhlAYAwAAsBwUxgAAACzdExdX+vbtW6hQITWaVQGyelgYyyeuXbt24MAB3V8yfFauXr0qRnLz5k01kWMUxgBFeHh49erVBw4cqP0Kpq7HFsZu3LixZ8+eSZMmPffcc76+vkrWeBVKrDJ69OijR4+OGDFCHA8HDx4s4rt27RLNunbtKg6D3t7eYrlXr17aVZycnLZt2yZrPGLdH374oWjRom3btpUNtIUx4aOPPipYsKDYrn379oWEhMybN0/biZEhWWV9iVbe1C0IGepNl9h8sXq7du22bt26aNEi+W2wpk2bvvzyy1OmTNm9e7dIWT28kJjQsWNHMfg1a9aIDmvVqvX888/LK66JYTg6Om7YsEF+qzgoKCgnhTG9I09MTKxUqZJ4fMVhPHthTFbjXnzxRdFMKYzp7c0ICmMAAACWg8IYAACApXvi4kq/fv2ee+45NfqwMLZ+/Xo1gaeBwhigKyYmZt68eUbK3o8tjB0+fFg0eOGFF1q1anXlyhUl27BhQ09PT7ksq1AjRoyQNxs0aFC+fHl3d3errC+k+vj4yG99CR06dCiUpUePHi1atLDK+l6p7M0qy6uvviranz9/vk6dOs2bN4+NjZUr9u3b98UXX5TLV69e7dy5s7yMojjYyu9pyU4MDUmkihYtKn+hUShRooQ2Zag3XZcvX27btm2BAgVEG9HPqFGjRFDMcOPGjcUGimCxYsW+++47bftLly6JlGxfunTpoKAgGZebWaRIETs7u/HjxydlXb9NXplMkoWx0NBQbcTQyP39/a2y/tNCLMvCWFxcnGz/zTffiAXx+C5evFgsfPzxx9rCmKHejKAwBgAAYDkojAEAAJi/jIyMixcvRkREbNu2bdmyZVOnTh0wYECnTp2aNGni5uZWpkyZJ/s0MC0tTaPRqNGsuxNx8VdN4GmgMAbkymMLY/Hx8b///vv169fVxONov7l18uTJS5cuKdmzZ8/K7zbdunUrOjpa/FUa5FBiYmJkZKT4qyaeSE56i4uLEwO+efOmbvDKlSvZg9Lly5flF8VMGoUxAAAAy0FhDAAAwEzcuXMnJiZm9+7da9asmTp1qp+fX6dOnby9vZ2dnW1sbDw8PFq0aPHpp5+KuMiuXLkyJCQkMjLy6tWrFFdMC4UxIFceWxh7Yro/aQhTR2EMAADAclAYAwAAMCUajSY2Nva3335buXLllClTvvzyS19f37feeqtq1ap2dnb16tVr3769CE6aNGnZsmW//vrrn3/+mZCQoPbyKIorpoXCGJAreVcYGzp0qDjeqlGYJgpjAAAAloPCGAAAQH6UlJQUHR29ffv2hQsXjhkzplevXi1atHBxcSlXrlzdunVl9Wvq1KmrVq0KCws7deqUaK92kWMUV0wLhTEgV/KuMAZzQmEMAADAclAYAwAAeMbOnz+/e/fuwMBAf3//Xr16NWvWzMHBoWrVqo0aNercufOwYcN+/PHHoKCgQ4cOxcXFqSs/DRRXTAuFMSBXKIwhJyiMAQAAWA4KYwAAAP8RjUZz8uTJbdu2zZ49e8iQIR06dHjzzTfLlClTq1YtHx+fQYMGzZw5Mygo6MiRI9evX1dXzkvjxo2zsrL6+uuv1QTypaFDh4rHa+LEiZkUxoAcoDCGnKAwBgAAYDkojAEAAOSJCxcuhIaGBgQEfP311x999JGnp2e5cuXeeuutTz/9dPTo0YsXLxbZ2NjY1NRUdc3/nBiMlZWVr6+vmkD+k5iYaGtrKx4vsf9kUhgDcoDCGHKCwhgAAIDloDAGAADwbz148CA6OnrTpk3+/v5du3Zt2LBh+fLl3dzcOnToMGzYsPnz54eEhMTGxmZkZKhr5g8JCQmFsgwaNOhb5GNfffWV2LWsrKy8vb3T09MzKYwBOSCfJhTGYByFMQAAAMtBYQwAACB37t+/Hx0dvXHjxvHjx3fp0qVevXq2traNGjXq2bPntGnTfv75Z5G9d++eulr+NnLkSCuYCG9v74SEBPnAURgDHovCGHIiJ4Wxq1evRkZGnjt3Tk0AAADApFAYAwAAeIyzZ88GBwdPnDixS5cuXl5etra277zzTs+ePadPny7ip06dSktLU9cxQSEhIWPHjhWbZmVl9fbbb8uvKCFfETthaGio/K6YpHu9MQB6ycsoDhkyRK2EADoGDBhglXW5zcjIyF9//TUwMHD06NGdO3du3Lixm5ubg4NDhQoVvvjiiwMHDqh7GAAAAEwNhTEAAIBHPHjwICoqKjAwcOTIka1atapatWqtWrW6dOkyadKkrVu3njp1SrcsYX643pgJUa43BkAveVhr27atWgkBHjp79my5cuXeeOON0qVL29nZVapUSSzYPOTh4TF//vybN2+q+xYAAABME4UxAABg6ZKTk8PDw+fOnfv55583atSofPny3t7e/fv3nz9//p49e27duqWuYNZM/XpjvXr1UkNmKvv1xgDopT2s9e3bd7hFEocLNQQdAwYMKFeunDic1qtXz8HBQSzLeliZMmWaN2/OV8QAAADMD4UxAABgcVJTU6Ojo5cuXTpo0KB33nmnUqVKLVu2HDVq1Jo1a0Rco9GoK1gY073eWOHChd944w01atZ0rzcGwBDTPaz9e9bW1q+//rr4qybwKHk4vXLlSt26dcuXL29jY+Pl5WVnZ/fxxx+vXr2ar4sBAACYEwpjAADAIpw9ezYoKGjUqFGtWrWqVKnSO++8M3DgwCVLlvz555+pqalqa4snrzemfkcpf+vVq1fFihVtbGzUhJnKfr0xAEaY4mHtqejRo4ebm5sahQ7lcHrnzp3WrVuLF5Ry5cp5enpu2LBBzKG9vb2vr++yZcv4XwQAAAAzQGEMAACYp4yMjOjo6AULFvTo0cPZ2blWrVrdunWbM2fO3r17k5OT1dYwceHh4Q5ZbGxs1BwAWLAJEyZMmjRJjcKotLS0/v37V6pUydbWdv/+/SJy//79rVu39u3b197evk2bNvPnz4+Li1NXAwAAgImgMAYAAMyHRqM5dOjQrFmzPv74Y3t7+7fffnvIkCEbNmy4fPmy2hRmJDw8vFq1anZ2dvKqMGoaACxYq1atfv/9dzWKHPjxxx9Lly7duXNn3aB4pxEaGjpw4EAHBwdfX981a9bcvXtXtwEAAADyPwpjAADAtGk0mr17906ePNnHx8fOzq5p06ajRo3atm3bjRs31KYwR7IqJn9EkcIYAOi6d++eeGW8f/++mkDObN26tUqVKnovMJaSkvLzzz936dLF3t6+T58+oaGhaWlpaiMAAADkSxTGAACASTp27NjcuXM7duxoZ2fXokWLCRMm7Nq1686dO2o7mLXw8HB7e/uyZctWqFDB1taWwhgA6Nq9e3fr1q3VKHIjKipq8+bNalTHjRs3Fi9e3LJlSxcXl2+++ebkyZNqCwAAAOQzFMYAAIDJSEpK2rRp05dffuni4uLu7j5gwICgoCC9/8cNSxAeHl6+fPnSpUuLnWHatGkVKlQQOwaFMQDQmjlz5vjx49Uocik1NVUN6XPu3LlJkya5ubm1adNGvD/RaDRqCwAAAOQPFMYAAEB+FxMT8/3337du3bpKlSodOnSYO3fuqVOn1EawMOHh4Q4ODp988smBAwfEzRkzZnTu3JnCGADo6tmz58aNG9Uo8lJqampwcLB4u+Lk5OTv73/p0iW1BQAAAJ41CmMAACA/ysjIOHDgwLhx47y8vGrXrv3111+HhYU9ePBAbQeLFB8fHxgYqP2yoEajcXNzO3nyZP369SmMAYCWeA3lX0meldjY2NGjR9eoUePjjz8OCQlR0wAAAHh2KIwBAIB8JCMjIzw8fNiwYS4uLk2aNJk2bVp0dLTaCHjU2rVrP/zwQ7Ewf/58CmMAIN29e7dy5cppaWlqAv+hBw8erFmzpnHjxo0aNVq/fn0Of5URAAAAeYrCGAAAyBcOHjw4fPhwV1fXZs2azZo16+LFi2oLwIDGjRuHhoaKhZs3b5YvX15NA4BFioiIEC+pahTPSFhYWPv27T08PAICAu7fv6+mAQAA8B+iMAYAAJ6l8+fPT506tW7dug0bNvzhhx8uXLigtgCM2rt371tvvZWRkSFv9u3b99E8AFio5cuXDxo0SI3imYqMjOzWrZuTk9O0adO0PwgMAACA/xiFMQAA8Azcv39/9erVrVq1cnV1HT16NL+XiCfWoUOHlStXam/u379fJwkAlmvcuHE//vijGkU+EBsb6+fnV7169YkTJyYlJalpAAAA5DEKYwAA4D8VHR09fPjwGjVqdOnSJSQkhGuf4N84fPhw7dq1NRqNmgAAi9enT58NGzaoUeQbV65cGThwoJOT09y5c1NSUtQ0AAAA8gyFMQAA8F9IS0sLDg5u3bp17dq1Z86cGR8fr7YAcu/jjz9eunSpGgUAZGa2adMmPDxcjSKfOX36dLdu3WrWrLly5Ur+WwgAAOC/QWEMAADkrdu3b8+dO9fDw6Nt27Zbt25NT09XWwBP5OjRozVr1uS/7AFAL09Pz3PnzqlR5EuHDx/28fGpX7/+L7/8ouYAAADwtFEYAwAAeeXGjRuTJk1ydHTs378/VxHDU9e1a9eAgAA1CgDIzMzIyKhQocKDBw/UBPKxsLCwxo0bt2vX7tSpU2oOAAAATw+FMQAA8PRdv359zJgx1atXHzZs2KVLl9Q08K9FRUW5ubndv39fTQAAMjMTExMdHR3VKPK99PT0xYsXOzk5ifdRycnJahoAAABPA4UxAADwNN29e3f69OmOjo6jRo1KSEhQ08BT4uPjExgYqEYBAFliYmLq16+vRmEirl27NmDAAHd3982bN6s5AAAA/GsUxgAAwNORnp6+bNkyV1fX/v378y0x5KkdO3Y0bNgwLS1NTQAAshw/fvydd95RozApBw8e9Pb2/uCDD86cOaPmAAAA8C9QGAMAAE/B4cOHmzZt6uPjc+LECTUHPFWpqalvvfXWzp071QQA4KGoqKhmzZqpUZiatLS0BQsWODo6zpw5U7z8qWkAAAA8EQpjAADgX7l9+7afn1/NmjWDgoLUHJAHli5d6uvrq0YBADoiIiJatmypRmGa4uLiPvzww+bNm8fExKg5AAAA5B6FMQAA8OR+//13Dw+P4cOHc314/DeSkpJcXV2jo6PVBABAx759+9q2batGYcqWLVvm6Oj4008/paenqzkAAADkBoUxAADwJDQazddff+3h4fHbb7+pOSDPDB48eNiwYWoUAPAo8erMl2vNz4ULF9q2bdu6dWuxoOYAAACQYxTGAABArl29erVFixY9e/a8ffu2mgPyzP79+2vWrMleBwCPFRYWRmHMLKWnp8+fP9/R0XHp0qVqDgAAADlDYQwAAOROeHi4m5vbnDlz1ASQl1JSUurXr79t2zY1AQDIJiIiwtvbW43CXJw5c6ZZs2bdu3fnn0UAAACeAIUxAACQC8HBwc7Oznv27FETQB6bNGlS9+7d1SgAQJ9Tp065ubmpUZgRjUYzYsSIunXr/vnnn2oOAAAARlEYAwAAORUYGOjm5hYdHa0mgDx24sQJJyen+Ph4NQEA0CcuLs7W1jYjI0NNwLxs2bJFvD4uX75cTQAAAMAwCmMAACBH1q1bV7t27XPnzqkJII/dv3+/UaNGq1evVhMAAAPS0tLKlSt369YtNQGzExsb6+3t3adPn7t376o5AAAA6ENhDAAAPN7OnTtdXFxiYmLUBJD3Bg8e/MUXX6hRAIBRtWrVio2NVaMwR/fv3x80aNBbb7118uRJNQcAAIBsKIwBAIDHOHnypKOj4+HDh9UEkPc2bdrk5eWVnJysJgAARr3//vvh4eFqFOZr7dq1Tk5O27ZtUxMAAAB4FIUxAABgTHJy8ltvvbV27Vo1AeS9c+fOOTk5cVk7AHgCgwcPXrJkiRqFWTt69GjNmjVnz56tJgAAAKCDwhgAADCmT58+fn5+ahTIexqNplmzZosWLVITAIAcEMfPoUOHqlGYu7i4uMaNGw8ePDg9PV3NAQAAIAuFMQAAYNCWLVsaNGjw4MEDNWFJxOYfPXp0xYoVERERag55JiMj44svvujVq5eaeCKXLl06f/68GjVr7LcA9u/f/95776nRp8ECD6q58syPwHfv3u3QocNnn32Wmpqq5p7IM9+i/I8nhXHsQgCA/IbCGAAA0O/mzZtubm7aS4tt3bp18ODBCQkJ2ga3bt0SEXGWq42YmeTkZB8fn0KFCr3wwgtiKoKDg9UWyDMTJ05s2bKltigrbq5Zs0ab/euvv8S+FxISoo0Y17Fjx+bNm6tRM8V+C0C6f/9+lSpV9F6jkYNqHsk/R+CUlJQuXbp88sknOfn3JvGWb+zYsa1bt27RosXIkSOvXr2qTeWfLcrneFIYwi4EAMifKIwBAAD9BgwYMGrUKO3N6Ohoa2vrIUOGaCPjx48vVaqU3k/czEP37t1fe+2133//PSMjQ80hL61aterNN9+8fv26NmJnZ9e1a1ftzS5dulhZWY0ZM0YbMc6iPq5ivwWg1a5du9DQUDXKQTXP5KsjcGpqau/evTt16qTRaNScjtOnT1eqVMnGxmbo0KFff/115cqVX3/99YMHD8psvtqi/IwnhSHsQgCA/InCGAAA0CM6OtrV1VUpen3wwQfFihW7du2aWL5z507JkiUnTZqk2+A/9lROsA11cu/eveLFi48bN05NII+FhYW5uLjExsbqBnU/w92zZ4+1tTWf4erFfgtA1/Tp07/99ls1ykE1b+TDI3BaWpp4oHv27CkW1NxDLVu2FMM+e/asvPnXX3/Z2trWrFlTvEF6tltk6B1a/sSTQq9nuwsBAGAEhTEAAKCHOL1fvHixEjx69Ki1tfWIESPE8uTJk1977TVZOWvVqpW9DldXV9lexEeNGtW1a9dXXnnF1tZW26E4Pfb09CxSpIiLi4v2h5u0nTRo0ED77+2xsbG6PS9cuFDGz58/37Rp0+eff75ixYpBQUHaHrQn3kuXLtUdxqxZs+Ryz549tXG9nWgdPnzYyspqzZo13bp1c3d3FyveunVLpgxt16VLl9q2bftqFh8fnytXrmjb52pgT9B/9qkzNMm5Gkl0dHTr1q1FD6Jz+bjLxk2aNJHLwsyZM0V2//79MqW3n5w7duyYk5OT9h/VtbSf4aalpYluxf5ZoEAB7We4hrYrKipKTIKXl5ejo2OVKlUaNmxYs2bNffv2yayR+dQ7/0Y2PFezLVN6J0rvhOsyNGYt9ttMfdMo9gQHB4dp06bJBoGBgWJyZI0fMG/Hjx+vXbt29gIDB1XJ0Jh1Xb582dfXt1SpUmI8oh/5y4R6VzR+BNatDZw4cUJ0FRkZ+eabb8ojoVZwcLChzTEUN06j0Xz44YcDBgxQE1nOnDkjxtyuXTvdYL9+/URw9+7dOdwi3YdD78zI9nID8+Jtnt643r3osbuEoUk2dC88KexN8EkBAEAmhTEAAJCdOAMXJ6V6f3inXbt2xYsXF+e6r7/++oQJE2TQycnp/fffD8nSu3fvokWLauMFChTo1avX2rVrGzZsWLhw4Tt37oi4WHH9+vXHjh2rX79+o0aNtI3FOfa2bducnZ3FmbMMRkVFidPpwMBA0bPodsqUKSKYnp4uznsbN24cERHRr18/GxsbbQ99+/aVyzNmzNAdxujRo8XCL7/8InqTcUOdaImRiMZiM8UWde/eXZz59+nTR6b0bldaWpoYdvXq1Tdt2hQUFCQWatWqJe5Fts/5wJ6s/+xTZ2iSczUSFxeXChUqrFu3Ttyd9rsForFoEx4enpn139zly5cXN+WHXIb6ySExWvGgiHXVhM5nuN9///0rr7wSHx+v+xmuoe2qWbOmSIlpFHPl4OAgJsTDw6Ny5cqZWZ8FG5nP7PMv44Y2PFezLVN6J0rvhGsZGbMW+22mgWkUe0vBggX/7//+7+zZsy+99NJPP/0k44DZe/vtt8UrnRLkoJppdMxaqampbm5uJUqUmDZt2vHjxzdv3pyWRe+Kxo/A2sELf/zxh2i5b9++3bt3i3c4n3766csvvyzfR4nHwtDmGIo/1r179957773JkyericzMn3/+WXSlHBJl/3Pnzs3hFmkfDkMzI9tnP+Y/rbd5euN69yLju0Sm4Uk2dC88KUz0SQEAAIUxAACg6tKly7Jly9RolsjISGtr66pVq5YsWVKew2caPi0X8c6dO8vl6Ohocb66ceNGeTMz61rcw4cPf+mll7SNv/jiizNnzoiTbV9fXxncv3+/WEt+sUO0lJ+YiHNmEZwwYcLevXvXrl0rlsWoZA/i7mKzjBw5UjlnFqMtX758nTp1ZNxQJ1orVqwQwZ07d8qb4nze1tZWLuvdLjlU7UdLc+fOFTcPHTqkbZ/DgWnby+Uc9p996qTsk5yrkdSoUaNZs2ZioXbt2t26ddM2FnctP0wR8/PGG29YPVoYy95PThw9etTFxUVvVSzz4We4cXFxL7/88pw5c0RE+Qw3+3YlJCSIfXXHjh2ZOj9wdODAATHamJgY4/OZff5l3NCGS9lnW+/zQqb0TpTeCdcyMmYt9ttMA9OYkZHRsmXL1157rWbNmq1atZJBwBJMnz5dPKGUIAfVzJwdVOW7hcGDB+sGDa1o/AjcqVMnMZ9pWT9pqK0ByOy4ceNKlSoll2VjvZtjKJ4T4q2Up6eneMOjxBcuXChGEhYWphu8cuWKCI4dO9b4FmXfSQzNjGyf/Zj/tN7m6Y1Lyl5kfJfINDzJeu+FJ4WWoRWN70LP9kkBALBwFMYAAMAjzp49K04y79+/ryYeatOmjThx9ff310YMnZbrxlNTUwsUKDBy5EixPGfOHHFWLM72K1eurHtuX7hwYdHmhRdeEOfGMrh27VoRkd9d035isnr1ajEAsa7jQ+vXr5c9FClSpGQW0Ylyzvzll196enouWbJExg11oiX/xVX7AzLz588XN+UVOPRul+zw8OHDMn7o0CFxc926dbJ9zgcm47ntP/vUGZrkXI3k//7v/0RL0UmxYsV0C2M+Pj5i9aSkpI4dO44YMcLq0cJY9n4e68iRI87Oztu3b1cTD8nPcD/++GPRs/zPZeUz3OzbtXHjRjGw69evZ+p8XCX2JbHi4sWLjc9n9vmXcUMbbmi29T4vZErvROmdcC0jY9Ziv800PI2nTp0S925tbX3x4kVtEDB78fHxDg4O4sClG+Sgmpmzg6pso/zThqEVjR+BxagKFSr02muvifc2OakBZN8cQ/EcOnPmjHip1d6ptGvXLqtsl5eLiIiwyvoil/Etyr6TGJoZ2T77Mf9pvc3TG9e7FxnfJTINT7Lee+FJoQSzr2h8F3rmTwoAgCWjMAYAAB4xZsyY7777To3qGD58eIkSJW7fvq2NGDot140fPXrUKutnecLCwsRCQECACE6ZMkX33L5///7Xrl3z8fER/aekpIjgqFGj5M/RZGb7V+IFCxbIuJaRYTRv3rxIkSJRUVHLly+XcUOdaJ04cUI00JZq+vXrZ21tfe/evUwD2/Xbb7+JBe037RYtWmT18MdwcjUwpX0O+1emzsgk52ok0dHRYt2BAwdWrVpV96cUV69e/corr4wfP/7111+XH2RoC2N6+zHu4MGDYkXtfxPrZWdnJ/aEQoUKab/Yp3yGm3275HVTfv/990ydj6v+/PNPEYyIiDA+n9nnX8b1bnhuZ1um9E6U3gnXMjJmLfbbTAPTmJ6e3rhxY3d3d70fBQLmTTyD5NfCtDioZubsoCpuiqAsWmgZWvGxR+C7d++KcVaqVOnIkSNWRmsAejfHUDznxNy6urpevXpVG7l586aYIi8vL51WmYMHDxb7hnjEH7tFMq59OAzNjGyfd2/zsscN7UXGd4lMw5Os9154UmgZWvGxu9Azf1IAACwWhTEAAPA/6enp7u7up0+fVhNZ4uPjxTl5gQIFlM/XDJ2Wi3j16tXFiW5iYuInn3wi4levXg0KChLnvZs2bRKn0PXr1y9YsKCssYnGPXv2FHfdu3fv5557LiEhITg4uHTp0n5+frI37Scm8toG9vb2O3bsePDgQWRk5IULF4wPQ9zjsGHDxLL2nNlQJ7pq1arl5eV148aNXbt2lSlTpn379jKud7tEJ5UrVxZbdOzYMdFb3bp1q1SpIq9GnquBPVn/ytQZmeScj0Sj0Tg4ODRs2FDsFcpPKW7ZsqVfv35ilc8++0x+C0dbGMvej3FihGKt3bt3q4lH2dnZiZ4HDRqkjTz2M1yhatWq3t7eBw8eFFvh4eFx+PDhVq1avfHGGxkZGcbnM/v8y7jeDTcy2507dz6b5euvvy5SpIhYkB8F6p0oQxOuZWTMuthv9U7jt99+W6pUqStXrqxcudIq2wV1APMWHR0tXvLu3r2rjXBQzczZQVW8W3BxcbGxsVm2bJl4FyQGLKbRyIpGjsDdu3c/dOiQeJdVrly5x345JvvmGInnyuTJk1u0aCHnTZo6daq1tfWkSZPEpt2/f3/BggVibr/88kuZNbJF2XcSIzOT/Zj/FN/mZY/r3Yseu0tkGp5kvfeSyZPCLJ4UAADLRGEMAAD8T3h4eOPGjdVoFnHOL848X331VT8/P3G2r5tydnYW5/ByeebMmS+88IJcFierNWvWFKe11tbWL7/88oYNGzKzTqe9vb1FV8WLF/f39xeNxSm67MQqi729/fTp00XE09PT19dX++tPov3UqVPl8rlz5xo0aGCV9atoYkibN2+WPegdhojb2dnJ/04V58zauN5OdJ08ebJGjRrWWZo3b56YmCjjercrM+sCbI6OjnIrXF1do6KiZDy3A3uC/pWpMzLJOR/J5MmTCxYseOzYMbFcp04d7acnovGWLVtiYmKGDRt24sSJ06dPWz0sjOntx4iFCxeKDTlw4ICayEZ0a2trm5ycrI0UKFBg7NixctnQdgUHB5coUaJ06dIVKlQoU6ZM+fLlxXyuWbNGZg3Np6H5N7ThRmZbdq5LfuKjd6IMTbguQ2PWxX6bfRrDwsIKFSokLwMj9O/fv0iRItpffAIsQZ8+fbSvoZkcVB8yNGZdYoS1a9eWbcRWx8fHZxpe0dARWA5ezHnHjh33798vVhc3xYLMyq8HyWXZOPvmGInnSnp6unhzNXToUN3grFmzXnrppYJZihYtKvYEedmnTKNbpHcnMTQz2Y/5T/FtXva43r0oJ7uEoUnWey+ZPCnM4kkBALBMFMYAAMD/fPPNN+JsX41muXPnjjhFV0pixsn/rk1PT7948aL2ExYpISFBnOSLhdu3bysXPsk5saLuzwE9mcd2IoaqjNDIdgl//fWXvIz8E3ta/T+VSc4jGo3Gz8/vnXfeyeurPYlpFPclf+AoLYvSIPt8Gp9/Qx4728q/Qv8b2cecHfstAF2XL1+uUaNGXFycmsgliz2oJiYmyktJ6TK0YvYjcL4itsXNzU25RpR4gE6dOnXy5Em9j1Fut8jQzOTKY9+hPdZj96KngieFLkMr5nYXAgAgr1EYAwAA/9OoUaMjR46o0SclT/vVqOnL6+3K6/6fucTExNatW3ft2lX3ywp5Snvlj5zIo/m/cuVK//79z58/ryb+K3m0XVp53T+Af2n69OniYKhGnwgHVVO3f/9+R0fHy5cvqwk8KZ4UAACYFgpjAADgHwkJCQ4ODunp6WriSc2ePTs4OFiNmr683q687v/Zio6O9vDwmDx5cq6+ffgvrV+/PjAwUI0aYK7zn9fbldf9A/iXUlNTW7RosWTJEjWRexxUzcCPP/7YunXrp/iuz8LxpAAAwLRQGAMAAP8IDQ3t1KmTGgWensDAQCcnp59//llNAADyXmxsrKOj41P8ajhMV0ZGRuvWrQMCAtQEAACABaAwBgAA/rFgwYIJEyaoUeBpSEpK6tGjx7vvvhsbG6vmAAD/lZ07d7q6unIoRubDQmleX+wTAAAgH6IwBgAA/jFs2LAtW7aoUeBfO3jwoKen56RJk+RF4wEAz9CaNWvq1KkTHx+vJmB5Zs+e7evrq0YBAADMHYUxAADwjw8++ODPP/9Uo8C/oNFoJkyY4OXlFRERoeYAAM/IrFmzvL29r1+/riZgYdLS0t59990VK1aoCQAAALNGYQwAAPzD3d39xo0bahR4UtHR0d7e3n5+fsnJyWoOAPBMTZky5c033+Q3FXHixAknJ6e4uDg1AQAAYL4ojAEAgL89ePCgUqVKahR4IqmpqTNmzHBzc9u+fbuaAwDkD2vWrHFxcQkPD1cTsDBTp07t0qWLGgUAADBfFMYAAMDfbt265eDgoEaB3Pvjjz+aNGny8ccf//XXX2oOAJCf7Nmzx9nZed26dWoClkSj0Xh5eYWFhakJAAAAM0VhDAAA/C0xMdHZ2VmNArmRlJT01Vdfubq6rl+/Xs0BAPKlmJiYevXqDRgw4M6dO2oOFmP79u0NGjRITU1VEwAAAOaIwhgAAPhbXFycu7u7GgVybN26da6ursOGDUtKSlJzAIB87N69e+LoXbt27f3796s5WAxfX9/FixerUQAAAHNEYQwAAPzt4sWLtWvXVqNADsTExLRr165Zs2aRkZFqDgBgInbu3Onu7j527FiNRqPmYAFOnDjh7Ox869YtNQEAAGB2KIwBAIC/nT171svLS40CRt27d++7775zdHRctGhRenq6mgYAmJQbN2706NGjXr16O3fuVHOwAF999dWoUaPUKAAAgNmhMAYAAP52/vx5T09PNQoYtn379tq1a/fp0+evv/5ScwAAkxUWFvbWW2916tQpNjZWzcGsXb9+3cnJKSYmRk0AAACYFwpjAADgb3fv3q1cubIaBfQ5fPhw27ZtGzRosGfPHjUHADB9qamp8+fPd3JyGjNmzO3bt9U0zNecOXN69OihRgEAAMwLhTEAAPCPKlWq3LlzR40COs6cOdO9e/eaNWuuWrUqLS1NTQMAzMj169f9/PycnZ1nzpzJOwQLcf/+fTc3t+joaDUBAABgRiiMAQCAf3h5efGjSTAkPj5+8ODBTk5Os2fPTklJUdMAADMl3hv0799fHP9nzJjBt8csQUBAwKeffqpGAQAAzAiFMQAA8I82bdrs379fjcLiJSUlTZgwwcHBwd/fXyyraQCABTh79uyXX37p5OQ0bdq0W7duqWmYkZSUlJo1a/7xxx9qAgAAwFxQGAMAAP/o2bPn5s2b1SgsWEpKyrx585ycnAYNGhQXF6emAQAW5ty5c+IVoVq1al999dWpU6fUNMzF0qVLP/roIzUKAABgLiiMAQCAf/j7+8+cOVONwiIlJyfPmTPHxcWla9eup0+fVtMAAAuWmJg4Y8YMV1fXDh06/PrrrxkZGWoLmDiNRlO7du1Dhw6pCQAAALNAYQwAAPxj06ZNPXr0UKOwMDdu3Jg8ebKjo+Pnn39+/PhxNQ0AQBaNRrNx48bmzZu/+eabP/3007Vr19QWMGUrVqz48MMP1SgAAIBZoDAGAAD+cebMmbp166pRWIy4uLhvvvnGwcFh8ODB586dU9MAAOhz+PDhAQMG2Nvbd+3a9ddff01NTVVbwARpNBp3d/fo6Gg1AQAAYPoojAEAgH+kp6dXqVLl9u3bagLm7uzZs35+fg4ODqNHj46Pj1fTAAA8zt27d1euXPn++++7urqOGzcuJiZGbQFTM3fu3D59+qhRAAAA00dhDAAA/E+rVq327dunRmG+/vjjj969ezs5OU2ZMuXmzZtqGgCAXIqNjfX393dzc3v33Xdnz559+fJltQVMxJ07d2rUqHHx4kU1AQAAYOIojAEAgP8ZNmzY/PnztTdTUlK4ZIhZEo/sunXr3n33XU9Pz59++ik5OVltAQDAv5Cenr5nz57BgwfXqFGjVatW4t1FXFyc2gj5nr+//8iRI9UoAACAiaMwBgAA/icoKKhLly7amzNnzuRjLDNz5coVf39/JyenTp06hYSEZGRkqC0AAHh6UlNTw8LCBgwYUK1atbZt2wYEBFy6dElthPwqISHBwcHhxo0bagIAAMCUURgDAAD/k5iYWK1atbS0NLF86dKlKlWqyGWYgd9++61r1641atT45ptvzp49q6YBAMhLGo0mJCRk4MCBTk5O3t7ekydP/uOPP9RGyH/8/PymT5+uRgEAAEwZhTEAAPAIb2/viIgIsSCLKGoapiYpKWnhwoVvvfXWO++8s2zZsvv376stAAD4D2VkZBw8eNDf379evXpubm5DhgzZtWsXL0/51smTJ8XDpNFo1AQAAIDJojAGAIBFi4+PDwwMvHnzpjby7bffzpw5MzQ0tFy5ch4eHjptYUrS09N37dr1+eef29vbf/bZZ/v371dbAADwrMXGxs6ePbtNmzZVqlTp0KHDvHnzTp8+rTbCs9a+fftNmzapUQAAAJNFYQwAAEsXHh5evXr19u3b7969W9wMDQ1t27atl5eXo6Pje++9p7ZGvhcTE+Pv7+/m5ta8efMlS5bcunVLbQEAQD5z586drVu3DhkypE6dOjVr1hw0aNDmzZuTkpLUdngWxEPTqlUrNQoAAGCyKIwBAIC/a2OVKlUqXbq0i4vLDz/8IJabNm1qY2PTu3dvtSnyq6SkpKVLl7Zo0cLNzW38+PH8xz0AwETFxsYuXLiwU6dOdnZ2zZo1Gzt27M6dO5OTk9V2+K+kpaV5eHj8+eefagIAAMA0URgDAAB/k98bq1ixYpUqVSpXruzh4VGmTJlJkyap7ZDPpKSk7Nixo1evXvb29r179w4NDU1LS1MbAQBggjQazYEDB6ZPn+7j42NnZ/fee+999913YWFh9+7dU5sij82aNWvgwIFqFAAAwDRRGAMAAP8IDw+vVq1auXLlbLLY2dktX75cbYT8ISUlZfv27X379rW3t2/Xrp14pPi9KQCAGXvw4MHevXsnT57cunVr8RalZcuWY8aM2bZtm+51UmGEeOdwMUtMTMzeLHv27AkODl6dZdWqVbNmzZr80KRsxGyLaR87duzEnPH391e7yKK9C+Gnn36S9y7s3LlTjmrfvn1ynHFxceo2AAAAPCUUxgAAwP+Eh4dXqVJFFsZq1KixY8cOtQWeKd16mI+Pz5IlS/766y+1EQAAZu3evXt79+6dMWNGx44dq1at+vbbb/v5+a1du/b8+fNqUzMVFxcnNlZMws6dO1evXj1v3rzJkyfPnTt30qRJP/7448SJE8XN6dOnT5gw4fvvvxd/v/vuu1mzZi3Nsn79+pCHjhw5cvyhxMTEJKPEWw419O9cvnxZe+/79u3TjmrFihVyqGIrxOCnTZs2ZcoUuS1i08QGis0UQVnJE5u/ceNGMRXR0dEXL168f/++OlkAAADZUBgDAACPCA8Pr1y5so2NTfXq1aOiotQ0noUHDx5s27btiy++kPWwpUuXUg8DAEDIyMiIjo4OCAj47LPP3NzcnJ2du3TpMmvWrD179pjuZcmuXLly4MCBn3/+ecmSJXPnzp0xY4b4O2fOnKlTp37//feyxLVp06aQkJDIyMjjx4/fvHlTLTpZjAsXLogZ2L17t5iN5cuXL1q0aMKECXOyiOmaPXv2ggULxPKaNWvELhEbG5uSkqJONwAAsDwUxgAAZis9PT00NHTixInfIpd69epVNsuQIUPUHJ6qsWPHhoSEqPvuQ/Hx8StWrOjSpUvVqlV9fHyWLVuWmJioNgIAAA9dvnz5559//uabb1q1alWpUiVvb2/xZmblypUnTpxQm+aeRqN5upc3i4uL271795IsixYtWrBgwbx582bPnr1hw4Y9e/YcP3781q1baiEITyQ2NjYiIiI4OHjhwoVikudnEcuLFy/+9ddfRTYjI0N9eAAAuSFObMXprXrGm/cmTpwYGhqanp6uDggwisIYAMA8JSQkeHt7W+FJFSlS5I033lCjyBsjR47U3XuPHDkyZcqUd999197evk+fPhs2bLh165ZuAwAA8FgajSYqKiogIEC8mHp5eVWpUqVNmzbffPNNUFDQmTNn1NY5M3HixFOnTqnRnElKStq1a1dgYOCSJUsWL168cOHCn3/+OTIy8saNG2oZB/+h06dPb9++XRbJli5dumzZMnGTf0UCgFwRp7TqWe5/y9vbOyEhQR0WYBiFMQCAGUpPT5dVsXLlyg0YMGA4nkivXr3UEJ62vn37Fspy/vz5rVu3Dhw40NXVtX79+uPHj9+3b19aWpq6cwMAgCeSlJS0e/fu2bNnd+/evU6dOvb29u3bt//2229//vnnmJgYtbUBly5dql69+po1a9SEAZcvX964ceOKFSuWLVsmFk6dOqWWZZD/iHdlW7ZsEQ+ZeODWrVt39uxZ9XEFAOhISEiQZ7WDBg1Sv8+V97766qvy5cvL2hjfG0POURgDAJih0NBQ8a6obNmy4jxWPdMF8pm2bdtaW1tXrly5Q4cOAQEBFy5cUHdoAADwtN28eVO8Y/z++++7du3q6ekpXoibN28+bNiwRYsWHT582Mj1yQYOHGhjY9OvXz8jP6soXs1XrFixatWqkJCQa9euqa/9MB1iPwkLC1uR5Ym/aAgA5m3x4sVWVla+vr5q4r+SmJhoa2srxiBe2dUcYACFMQCAGZo4caJ4SzRgwAD11BbIf4YMGSJ21zFjxqj7MQAA+K/cvn374MGDAQEBgwcPbtasWcWKFevVq9e9e/eZM2du3779ypUr2pYpKSnVqlWztbWtW7du9p9VPHLkyJIlS3bt2qW+3sP0/f7774sWLYqIiFAedACwcOPGjROntF9//bWa+A8NHTpUjKF58+Zcbww5RGEMAGCGvv32W/GWaPjw4erpLJD/iB1V7K5ip1X3YwAA8IxkZGScPHly8+bNY8eO/fjjj52dnatVq+bj4zNq1KjVq1fPnz+/fPnyZcuWrVy58qpVq7RrLVmyJCwsTH2lh3mR5TGdnQUALJ38BObZntLKMUhcbww5QWEMAGCGKIzBhFAYAwAg/7t+/XpYWNi8efP69OnzzjvvlClTpmzZsjY2NhUrVuzateu9e/dWrlwZGRmpvszDHEVFRQUGBqq7CABYqvxTGKtfvz7XG0MOURgDAJghCmMwIRTGAAAwLRqNpkuXLqVLl7bJUrZsWWdn57Zt26qv8TBfn3zyibpbAIClyj+FMfGX640hhyiMAQDMEIUxmBAKYwAAmJDt27dXq1ZNlsTs7OwaNmzYokWLihUrlitXbuXKlerLPMxRVFRU586d1T0DACxVviqMZT683tjEiRPVRoAOCmMAADNEYQwmhMIYAAAm4dKlSz4+PvLnE11dXcuXL+/t7e3n57do0aKoqCh/f//58+fv2rVLfaWHefntt9/mzZvH560AoJXfCmP5YTzI/yiMAQDMEIUxmBAKYwAA5HMajWbmzJlVq1atV6/eoEGDZCUsJSVFt83EiRPFy/qePXsCAgJCQ0PV13uYvt9++23BggXir1imMAYAWvmhEEVhDLlFYQwAYIYojMGEUBgDACA/y8jICAsLy14JU8jCmHTs2LHFixcHBgaGhIRcu3ZN52UfJubmzZu7du1atmyZeEAjIyO1cQpjAKCVHwpRFMaQWxTGAABmiMIYTAiFMQAAzIBuYUzr5MmTq1atWrJkyeLFizds2HDq1Cm1BfKf8+fPb968WTxk4oELDAw8evSo2oLCGADoyA+FKApjyC0KYwAAM0RhDCaEwhgAAGZAb2FM1+XLl7du3bpw4cKAh7Zs2RIZGXnjxg21Kf5Dp0+f3r59u3g4FixYIP8GBQWdPXtWbfcoCmMAoGW8EFWvXr0Cj0pOThZBNzc33WZNmzYVqZiYGG2kW7duumuVLFlSp7mKwhhyi8IYAMAMURjLrdjY2NmzZ/fr169ly5Z16tRR08hLFMYAADADjy2MZSdLMvPnz1+wYIH4O2/evDlz5syaNWv9+vV79uw5fvz4rVu31HXwRMR73YiIiF9++SUgIEBM8ty5c8VfMeE//fTT5s2bo6KicjvVFMYAQMt4IerNN98sW7bsIh1paWki6OzsrG0THBxslUW8MmqDH330UZkyZdb9P3t3HtfTtj+O33TOPa57j+uczzlX5iHNM0mDRJEiSZIkKmVISUqhwSk0KI1UEpFCyNhEhjKHNEiGZCoVqaSEJr/Xt/Wz7/usBpWG9/vd6/lHj91ae3q/32uvvdZ+7b12A5j/P//5D5PVGAbGUFthYAwhhBAXak1gzNfXt0+fPj4+PqyJ8+fPHzlyZFs7xpwuJSUF2ql//PHHkiVLtm7devr0aXoO1JkwMIYQQghxgXYExprz+PHjy5cvHzt2LCQkxN/f39PTM6DB9u3bvb29IWX//v2nTp1KTExMT0/Pzs4uKyujV9FjvHz5Er6B5ORk+DbCw8NDQ0O3bdtGvi4PDw9o8AcGBsLfAwcOwAwZGRnFxcX0KtoFA2MIIcRoORBFxcAaJ9bU1AgJCTUOjM2dO3fChAlkWldXFwNjqGNhYAwhhBBHysnJCQ4OLikpoTMatCYwVlRU9Pvvv48dO5a5lJCVldW3b98OvKjBKfT19QcMGJCRkUFnoC6BgTGEEEKIC3RlG/LJkyfQcE1MTIyJidm/f7+/v/+2bdvIX19fX/jr5ubm5eUFE97e3tsakHAaOH78eOI39+7dy/6moyJGrZefn89s/ebNm8xeRUREkF318PCAPff09CQTO3bsYD4gpJB/YbZDhw7BUikpKbCeN2/e0JvpHBgYQwghRsuBqO8GxgIDA/v06bNo0SIqMDZ9+vSpU6eSaQyMoQ6HgTGEEEKc6saNGwICAjY2NqwtJ6I1gTGwYcMGmA363uRfMzOzQYMGFRYW/n2uljT5bNn7BnRqG3XIShgtrK2kpAQ+tZ6eHp3xd80t3lz6j2hunc2lN6mFj8xuMDCGEEIIcYGuDIy1Q3FxMQlBpaWlMSGo48ePkxAUIHEmxtatW1n/JZydnemkZjQ5J7XOgIAAZusxMTFkly5cuED2E1r49GdgJxgYQwghRsuBqJYDY1Cj/vHHH6ampl5eXlRgjI+Pb+nSpWQaA2Oow2FgDCGEEAc7dOjQsGHDBg8erK+vn5SUxKS3MjD27Nmz/v37y8jIwPSrV68GDBiwfv16kgXNL4G/8/b2ZrIWLFjg7+8/duzYf/7zn9ra2q9fvyZZgYGBKioqv/76KzTsNmzYQBJZ1yYlJeXs7EwSS0tLBQUFmfVDFkl/8+aNsbHxoEGDBg4caGZmxryPnWyXTJeVlcGyrLu0YsUKMn3x4kXWvW1ubYzMzEz4rnx8fGDH5OXl1dTUYA0kq4VPWlxcbGlpOXTo0J9//llcXPzUqVPMCtu3n+3eVuMvtoVfoR07lpeXZ2JiMmHCBPJjFRUVkfmFhYXz8/PJPLCHkpKSioqK5N8W1tYkDIwhhBBCXIDNA2OoY2FgDCGEGC0HoloOjNnZ2Q0cOPDt27dUYOzTp099+/aFRPIvBsZQh8PAGEIIIc52+PDhIUOG8PHxSUpKKikpwb9fvnxpZWAMmJiYwJyJiYnOzs6//PLL06dPSfqUKVOGDRu2pYGLiwvr2iCrf//+sNF169YpKipCFhN9MTQ0XL58eURExLx58yD9wYMHzCKjR4/29PSExh+kJycnlzeErGBaW1sbNgHpAwYMIDMbGBgMGjQIOtu2trasb0GDlUycOJFMl5WVUbukrq5O0uF7YM1qbm2MS5cuwfzDhw8fPHgwfJzevXvDpyNBqRY+6dKlS/v167do0aKAgABozsJSsB6S1b79bPe2Gn+xLfwK7dgxshLYh9mzZ8NEQUEBmR+m/f39yTywLfgXdv67a2sSBsYQQgghLoCBsR4FA2MIIcRoORDVQmDs+fPn//jHP3x8fCCFCowdPXoU/k1PTyf/YmAMdTgMjCGEEOJ4UVFRQ4YMGTx48NixY2VkZERERDQ0NPr06dNyNILIyMjo27evqqoqDw+PsbExk95yEAW2lZ2dTf4VFxeXlpYm04y7d+/CIrt27SL/wiKTJk2CidDQUEgnj2S9fPkSpsPDw2F69erVJDAGrUDYc3Nzc7KgsLCwgoICs5IWdolEYvz9/WE9TFYLa2McO3YM5p85cyZ5ForEeCIjI8ub/6Q5OTmw2jlz5pD0Fy9e9O7dG75z8m879pNktW9bjb9YRuNfoR07JiQkNGrUKJhwdnbu9ffAGDTlyTwkZtY4MNZ4bU3CwBhCCCHEBTAw1qNgYAwhhBgtB6JaCIzp6uoKCgrW1NR8bRQYg54+9N+Z+TEwhjocBsYQQqjHqaure9WUrKys6005fvx4VFMiIiK8mrF582bL5i1dunRe82bMmCH9Pfz8/IObN3ToUB4enj///HPZsmV0F7YpWlpa0Gbq06dPWloak9hyEIXJAsbGxn379s3LyytveAgsJCTExMQEPgUs4uvryyzy3//+d/78+QMHDlywYAGsEBIfPnwI85w4caKcJTAWExMDifAphBtA4siRI5mV/Prrr9MbqKioULukrq7+4sWL3377zdnZedCgQSSrhbUxYAdgnvPnz5N/CwoK4OMYGRmVN/9JY2NjYRHWqz/QluXl5SXT7dhPktW+bTX+Ylv4FdqxYyRqtXbtWh0dnV4sgTE+Pr5eDfevwVLwxaqpqVGBsSbX1iQMjCGEEEJcAANjPQoGxhBCiNFyIKq5wFi/fv1gqXPnzpEUL5bA2I0bN2A6NDSUmR8DY6jDYWAMIYQ6UW1tLRV8Sk9Pp8JOJ06coAJO3t7erEEmDw8POrJkaWlgYEAHlObNmzhxIhVAEhYWpqNGDcaPH0/NCZSUlOg1Nli5ciW9+QZWVlas+8kqKCiI+lCs4uPjqS+BVUZGBvWlNfb+/XvW7zkpKYmMBAgEBAT4+flb/8RYecNboKDNpKmpyZrY+sDYsmXLIBf2qqSkREFB4ffffzc3N/fx8en195DMkCFDjIyMeHh4JCQkyOB+pKkHH7mcJTB25swZSJw/f77/N3v27GFdyYYGtra21C6pq6vDnvDx8b17946JxLSwNgbsAMxz6NAh8m9xcfEvv/wyd+7c8uY/6cmTJ3uxDCQIJCUlR4wYQabbsZ8kq93bYv1iv/srtHXHgJycHBlhshdLYMza2vpf//qXnZ0dHLCzZ8/W19enAmPNra0xDIwhhBBCXAADYz0KBsYQQojRciCqucAYLDJnzhwmxetbYAyoqanB9JkzZy5+o6SkNGDAAJgoLi5mWc3/YGAMtRUGxhBCPQUVo6KejoqOjmbCNuHh4awxHnt7e9Zo0OLFi1mDRioqKqyxJTjZ/z0CNVhKSop1hqlTp7IuDoyNjVnXD7Zt28a6A+DQoUMscaX/JzY2lnX/idzcXNbPCIqKiugvguskJycPGzaMh4eHj49v0qRJbX3HGHB1dYWZk5KSWBNbHxiTkJD4/fffYQI2DbMFBQXB9KNHj2Ca9fVgZMS/e/fuQbq1tTVM+/n59e3blwxgyATGHj9+3Lt3b1VV1W+r/5+Wd2no0KGwtlOnTsG/TCSmhbUxXr9+3b9/fzMzM/JvQkICrHn9+vXlzX/S+/fvwzz6+vokvbCwsF+/flC2yb/t2E9qqfK2bIv6Ylv+FdqxY3D0kTVTQyk6OjouWbJk5MiREyZMiIiIoAJjza2tSZBLqgsoxqzVhYyMDKklNDU1oRswa9Ys1ooCfiPWWmLv3r2sVcS1a9eYmgG+HNZqoa6ujj6KEEIIIfTDMDDWSaCPs2vXLgsLi9mzZ7M2FzvQ+/fvNTQ0oNkJ09CsYr0lqzktB8Y+fvwI/TVoi9IZCCHEjVoORMnJyYmJiTVO/Pnnn58+fcqk7NixA1aSk5Njbm7eq3nHjh1jWc3/YGAMtRUGxhBC7KKqqoq5bpuRkcFc0mUdx4/1Uar169czF4hZg1XKysrMZWUhISHWGJWEhASTJS8vzywCli1bxnLB2fJ/F5sbPfxERaTu3r3LcsH5VX5+Pv3BUGe6cuXK0KFD4ceFHzEpKYlJb01grLS09Nq1ax4eHj/99NOCBQuo3JaDKLDI5s2bMzMzN23a1K9fPxsbG0i/fPkyzGZkZAQNNSiHML18+XJmERERkfj4eBJcgWWhv92/f38tLS0yAxMYA4sWLerbt6+VldXNmzcTExODg4OZlbSwS70abrYi/7JGYppbGys9PT3YGSjeMMP48eN/+eUX8q6v5j4pmDFjxsCBAz09PZOTk+HL7/XttWRkqXbsZ7u3RX2xLf8Kbd2x4uLi0aNHCwoKvnv3rnFgjAQR//Wvf8FsVGCsybU1Z+O3J8bq6+tZ65Nbt27BVpSUlMaOHbt9+3Yo7ax10YEDB1hrKvjSWCsx1vpt5syZTNUHeHh4mFoRPhqTrqCgwLoU9EaYtbm7uzMbioiIYPYBvm2mMnzy5Amz57W1tSyHKUIIIdQjtCYwNmnSpD4NoLk1bty4LVu20HOgv0tJSYHW/h9//LFkyZKtW7eePn2anqODrF279vfff4cW0c8//5yamkpnN9JkYCwvLy8sLExXV1dAQODUqVN0NkIIcamODURBV7Rfv3506tev1xtGu8HAGOooGBhDCLVTSUkJuQD64MEDclX04sWL5FJpZGQkcwkVOhjkuqqRkRFzvVVBQYFch50wYQJzfRY6PMz1WdYx/UxNTZmLsy4uLsya9+zZw1ycjYmJYS7OQjeGuThbWFhI7zfiNO/evYOfMjc3l/y+0BmO+vZ6MygSI0aMmDRpElO6mPeTDRkyBApVy9EIKCrQVPrnP/+poaHx+vVrKhcKoYyMDJkmQZRNmzaRf6dMmQLblZSUhMTevXtra2uTp74AdIP7NTAxMVFXV4cZduzYQdbWq8GgQYNg/hcvXkycOFFNTQ0+F1kQWn7/+te/yHRBQYGBgQEZbvunn35ino5qYZcgq3///mSERvDbb78xWc2tjRX04VVUVPr06QPz8PDwnDx5kqS38ElzcnJgEUiErAEDBri6ujJra99+tntb1Bdb3uKv0NYd27ZtW6+GljdMk8AY1CpkficnJ5iApnZYWBhMLF68mAmMNbe25jCBMSjw9fX1t2/f3rp1K5SQkSNHws8hLi4Oq6IPjA7C1OTg8ePHTEUKmAo26u83Jaxbt46pkxcsWMDU1XJyckwdzsTehg0bxiTCT8zMzPqkrJubG1nzzp07mS0mJSWR3WCt0j9//kx/AIQQQohttCYwBud3ODnCKQ+aZ9BCgAYAeb4cNUdfXx+afxkZGXRGRystLd27dy90K1JSUui8pjCBMdJ4g/YMtAB5eXmhFSQsLAw7/PfSgRBC3KxjA1EWFhY//fQTnfotMHb8+HE6owEGxlBbYWAMoZ4lLy+PXF68c+cOueZ49uxZchVyz5495NLkli1byMXK1atXMxcxJ357edWIESPI5c5x48aRFOYhAx0dHeZCp4eHB1lbeHg4Wf/JkyeZ661ZWVnMhc7q6mp6LxHXqaurIz93WlradZYYqo+PDxQSR0dH1vI2ZcoUKFcSEhKkpEHHEv6Vk5MjuSRQam1tvWnTpoULF/r5+ZFVkYHj0tPTyYZgnb2+98RYUVHR1atXS0pK6IzvYR48evToERxTVO6zZ8/IQ0Xv37+Hog5/qRlaqbi4GD4O/KUz2qU1a8vPzycPijFa/qTlDcMwwmcsKyujM9quY7fVUb9C14CC2rt376VLl0Lx5m0wbNgwKPz8/PxaWlrwkekjinN8+fKFqe2ZuyjAmTNnyJEbxRJ127x5M3MSgRMKOeSZaDcgj4eCkSNHMonwFZE5ly9fTpa1t7cnK/T19WW2kpycTDbNPNn28eNHencRQgihH9DKwJioqCiZJmNGwWmLyX3fgPmXVXPp7dB4VS1stx1aubYm56ESoaE+aNAgPT091kQ2Ab3m2NhYaHgICgpCz0VWVhbaJ9CEU1FR4ejGG0IItUPHBqJqa2ubvFRYX18P6fCXzmiAgTHUVhgYQ4hjfPjwgVzLS01NJVf3yMW+/fv3kyuAzKuwyC38Ghoa5KKhpKQkuZIIxMTESOKMGTPIlcSlS5eSpWxtbcl6fHx8mCuJV69eJdt6+vQp2XpFRQW9Z6gn+fTpExSD58+fk4JB3s22e/duKDlbt24lZYkULUVFRShp0FEczPLmJFVVVciCzi2ZkzwpEhISAis5duwYWefDhw9hEwUFBfS2G9TV1TXXDGJFmkEtB8bajXVEPu7WlZ+0K7fFbgwNDf/880/WEQ4BHx+fs7MzjknYpMrKSnJKYuoipjoCwcHB5HTG3OexZs0aUi/NY3mybfjw4eSrFhISIinTp08n88AvQhZ0dHQkq2KeUSaPst26dYvsQElJCb1zCCGEeqq2BsZiY2OhvWpubg7TgYGBKioqv/766x9//LFhwwZm/uLiYhsbm1GjRvXt23fIkCHk3VfQgxP4O29vbzI/ZK1YsYJMX7x4kTWryVU1t11YDzPSeFlZGTTpW7OJN2/eGBsbDxo0aODAgWZmZqWlpSSdVZO7AYlw2h06dOjPP/8sLi7OPEWXmZnZq+F9sdAokpeXV1NTgy2SLNY9JCwsLMiLdWFO6vtRV1cnizS35y1kNen8+fMjR46E/Wcduh9SoE+NjTeEUA/EDoEoDIyhtsLAGEJdCjoVr169evbsGbmKR26ZP3jwILnuRl6atXz5ctaLd8xzM6NHjyZX7piYFnQ2LBsenSGLBwcHk8t20JQn6yeX7UBdXR29Kwh9/fr+/XsoHtnZ2VBaLly4AIUnPDwcytL27dvJRWESZCWPcPHz80M5HDFiBExDl54UwlWrVjHXjpmHt0g89dGjR7Dyd+/e0Vv9YdBD9vX1jY2NbeGBj04NjEGPFz41ncqNuvKTduW22A0U1L59+8KBBkeZgIAAqfOHDBkiLy9vYGDg5OS0f//+5ORkHBu2k7x584acK5n7TsiQrSAwMJCcYe3s7EitqK2tDVXfrFmzyBmZj4+P/F7k2VYwd+5cmEFXV5fMz4TWyPPTR48eJZu4d+8e2SjeboIQQlyjrYExOMtDexVO8eUNd8lANzAiImJew+tUmQGZly5dCv8uXLjwyJEjnp6eZLxraDMMGzZsSwMXFxfWRi9kkSAQdDzJCNVMVpOram67rHcsNX4za3ObgE80aNAg+B6gXdenTx8fHx+SzqrJ3YDEfv36LVq0KCAgAL6f3r17X7p0CdLhL8xM7mVRVFSE9P79+5Mh0BvfUwWn4LFjx8IEbBe+GfL1wqeDaTihk0Wa2/MWsprj4OCwcuXKUaNGkZYADw/P0KFDFRQU4CuFH+XQoUPQroDeFl1KEEKIG7FDIAoDY6itMDCGUDuRMQnv3r17/fr1uLi4qKiosLAwLy8v6AaQa2FkGChlZWVpljdp8fHxkQtnJKhgZGQEc1pZWZGrZvv27YP1REdHk6tmZLgn2BC9bYSaUVxczFzbhU4mFCdfX18oWtbW1lDSdHV1odRNnjwZSiB0Ggd/Gw9zSsOLf8hTXEycFXqqUd+ejcjOzobVlpaW0tvrPtXV1fDR+Pn5Z8+eHRoa2vgw6dTAGEIdi3nHWFZWFhyMgoKCQxpA2U5ISAgKClq/fr2WlpaYmNiYMWPgtGJqaurm5gYni3v37uEFFzZRWFj4iuUJtsTERCq0Bud6qGNXrVpFGgCkeSDNMkCxpKQk/CsrK0tmIMPG2tnZkcUPHz4Mazt//vx1lveu4V0vCCHEVloZGOPh4Vm3bp2QkBCc/aEpS80AHUxI37VrF0xDf7BPnz68vLzUPK2JWvn7+w8YMIDJam5VDNbtlv/AJsgDcEBYWFhBQYFMM5rcjZycHEicM2cO+ffFixe9e/fW0NCA6WPHjsH6Z86cSV49GxERAf9GRkaWtxgYI8iyzBNm5c3vectZzSHvGIPG2/Tp08nZHP7CyZpqvMH3oKmpaWtru3v3bmgeQFOBLjcIIcT52CEQhYEx1FYYGEPo/yEXmG7cuHH92/iE5DoUCScYGBjM+/aaE+b5LSkpKfgX2ujzvo1GCG1fshRZA4koMG88whEVUDtUVVVB4Xn06BGUpXPnzkV9exUceSkXFDwoflOnTmUCXYKCgtLfhiskr9vZunUrzH/w4MGob48SkoEKoS9Hb4wD5eXl6enpMdeUoft6+/ZtMtAiBsYQB2ECY6RgX7hwQUZGZsiQIUOHDr127Rprma+oqMjMzDx16tSOHTtWrVoFBzsfH5+wsLCGhoaVldXOnTvj4uKePHnCugjiCFBxkdbC48ePSWjtxIkTTJ3P3HOzcOFCqN6nT58OVT20Q0jtR2p+5n2f5ubmMKeTk5MXy4O85BVr5AWf+OghQgh1klYGxn766Sd+fn4VFRU3Nzfm/a9v3rwJCQkxMTGBXie0Cnx9fSExJiYGplevXv23VbQiavXixYvffvvN2dl50KBBJKu5VTW53fKG9fz666/TG8Cutn4TgxueogYDBgwYOXIksyGiyd0gQ0qyfntwaiPBMzgbQtb58+dJekFBQd++fY2MjMobduPf//73tGnTjI2NExMTy1sdGGu85y1nNYcExoiEhAT4yPDZhw8ffuPGDZZC8f833k6ePLlt2zbYc0VFxdGjR8Num5qawhqgUZednY3XChBCnI4dAlEYGENthYExxJ2gxfzq1StyaYk10EWuK5ErR+RObXJRafz48dLfhj+ysLCAeTw8PLy+DXwEzVxYT1pa2qvm33uEUOvl5+fn5uZCoYI+XtS35wmsra3Nzc2hBM6ePRtKo6ioKOlZMZc7Fy1aBCUTemgwc1BQECwYFxfHXOgs54pAV/tAT1hAQIC8nwm639DV1NXVNTAw6N2793c7tAixAyow9rXhbcNwAho3blzjyyuNFRcX37p16+DBg87OzoaGhrKysnAUqKqqQq0SEhJy7do1fAM8dyNDQT58+BDOCPBzk2bPzp074WQBRcKS5RVr5NWP5ModkJCQgH+VlZUhS19fn7nFx9fXN4pl1MeXL1/C+mtqaugNI4QQ+rtWBsaYoRQZJSUl0OD//fffoTvg4+PDBKjOnDkD01A5U/N/NzC2bNkyPj6+d+/eMQGeJlfV3HbJeoYMGbKhga2tbes3MX/+fP9v9uzZw2yLaHI3Tp48CYnkZWOEpKTkiBEjYAJOQ5B16NAhkg5tnl9++QW67eXf9nDVqlWjRo3q37//8+fPWxkYa7znLWc1hzUw9rWh8bZjxw5oucH+tNx4q66uhrP22bNnYX5TU1MlJSVouU2fPh1abqGhoSkpKR8+fKCXQQgh9kYCUQ4ODnRGFyJnK1I5Y2AMtQYGxhDHII/OZGVlQeP41KlTUVFR3t7e5B5q8lIuMioRtCmZaz1aWlqQvmbNGpjH09PT69tIRNeuXWMu9OAwRKhDQEeIudM/NjYWipmfnx+UOih7K1euhHKooqICZZKMQQ/lU0ZGhol1kTfQkCgsLH7r1i28o7+toHu5dOlSEhsjYPrPP/+Ezi3dhUWI/TQOjBEVFRWbN28WFBRs+fJKY5WVlffu3du/f/+mTZvmzJnDx8cnLi6+ePFiZ2fnEydOPHjwAIMc6Ou3x+XT0tLg1JOQkADnoH379sH5aOvWrXBuMjMzg/OUpqYm641EUJBgWk1NDbKggoXZoNzCImFhYbD45cuXYVW5ubmv8EF5hFCP1O7AGPRSoSUQFBQE048ePYJp8nYumO7du7eIiAg1f8uBsaFDh/bt2xe6zPAvE+BpclXNbbe8XZuArhBsQlVVlczWpCZ34/79+7B+fX198i/0g/r16zd16lSYfv36df/+/eGURLLgbNXrW1yN2UPYDUjcvn17awJjTe55y1nNoQJjBDTeVq1aJSQk1KbG25cvX+BLOHr0KDT89PT04PuZNGmSkZGRt7c3fGT4EugFEEKIbRQUFDg4OECXE6r3BQsW0Nldpbi4ePjw4VDtX7p06SsGxlDrYGAMdT+oQ3Nycq5fv3727NkjR44wNzhDi3DevHkyMjKSkpKDBw8eM2aMtLS0iooKJK5YsYI81AUN96ioqNOnTzPPzVRVVdEbQOgHVFZWQrm6c+dOUlISFDboN5Jw17Jly6AoQg8KiuWwYcOgiE6YMEFOTm7et6E1XVxcoDBHRkaSl8aRQTWhp0RvALVLUVHRlStX9u/f7+TkZGBgIC8vz8PDw8vLCz8E9IfJq3qgZ/vdDi1C7KC5wBgBZ8kNGzbcunWLzmiL/Pz8c+fO+fv7m5qaQsU1YsQIZWVlMzMzqNMuXLjw9u1begGEmvL69Ws4l92+fZu5SykgIABOdjY2NnDig54wabkxgTQ4M06cOBESdXR0LL+9xhIWgQXj4+Ovf3udKt6lhBDiDhEREdDmp0/zf9dkYOzy5cvQEjAyMjp27BicoGF6+fLlJAuqVvgXKtK4uLh9+/aRZ6dajlrBv8z7ulgDPI1X1cJ227eJRYsWQQvcysrq5s2biYmJwcHBJJ1V492AxBkzZgwcOBD6WcnJyZDV69uLxICenl7//v3hxAErHD9+/C+//JKdnV3esBvCwsLQ1VJTU4P5T5482ZrAWHN73kJWkzIyMg4ePEiXgG9+vPFWUlIC3U9op0HLTUFBgZ+ff/78+dDxOXr0aFZWVnV1Nb0AQgh1uWfPnkHzXkBAwMXF5eHDh/0arFu37q8uZ2dnBz1cqMbhXEZ6Fn9hYAy1AgbGUCcqLCx88uQJa8QLqiTLhjdkaGhoSEtL8/HxDW4YxnDy5Mnzvr1nnhkmjtx3/PLlS3x0BnWGmpqaV69e3b9/H4oZdDDIbfK2trbkHvlp06ZBEeXh4Rk1apR0w8vkoCvCPN0F/bRTp04x4djPnz/Ta0cd59OnT/A9wxfu4eEBfXUVFRXo8YqKikLXd/369VBdJCQkhIeHk6dFJ02aJCYmdvr0adIMarlDixCbaDkwRuTm5nZgVQOrgtoPTs1OTk66urpCQkLCwsKGhoZ+fn5XrlzBED7qENAphVMkdJjhdEluLjlw4ABz/xN5Taa8vDyJog0bNgwmpkyZAonGxsYwg6urq1fDe1tPnjwJa4ASC2vDS4EIITYXGhoK3Vj6TM9CRkYGGqt0ank5nI7JJUUTExN1dXVoGOzYsQPS8/PztbS0+vTpAyn9+/eHzggkKikpwXrIgiRqtWnTJvIvZMFsDx48IP/+9ttvTFaTq2puu+3bREFBgYGBAawN5v/pp5/IU1+UJncjJycHGvm9e/eGxAEDBsApgJk/Ly8Pssj80DuDkwJJh92AlH/84x/QNdi6dSukwGrJm8kIEhi7dOkSk9LCnreQ1Rg0lkJCQujfvpEObLxB2+zWrVuwUXNzc/hWx4wZM2fOHDifxsfHFxcX03MjhFAng0p79erV0Iv08PAoLS0lifb29r26lbKy8ps3b8jOYGAMtQYGxlA7QeP4+fPnJOgVERHh5eVlZ2dHhoyTl5cXEREZPHiwlJQUucCxYsUKKysrmGf37t1RUVFJSUm3b99+9eoVjp2NOsn79+9fvHhBRjU8dOgQlD3ocVlaWuro6KipqTFDGsIE9CugiJqZmZEXq+zbt4+8VYVcgMPRxroedDVTU1OhVoEWDPSrJ02aNGLECPJ66u3bt0NPOCMjg6o6vnz5IigoCF1i+AsVUXnD69bc3d2hGbR27Vq6I4sQ+4H6B4rrli1bWAt2FysoKIAKE447TU1N8k54a2trOBIfPHhQX19Pz41QR4OaHE67UN5I2xKai76+vtDTtvz7iNnDGzBDCECHnJy+9+7dS8bKJm+ExfEDEELdKCUlJTQ0lDUe00rPnj2D0zFMQF8mKysL/jJZhYWFkAJ98P/N3V6NV9XCdtunuLg4PT0d/tIZLBrvRnnDwImNE4n8/HzyoFj3unLlyp49e37kUbAO8fHjx5s3bwYFBRkbG0tKSsrIyEB/Fk6F0IfFoYwRQp0KqmJonIuIiJB3UlK5iYmJLi4u0JeE7q2iomLD01xdwd3dHU67rKNQsL5vDKHmYGAMNQ3anRkZGZcvXyYXJv5qeNJr/vz5KioqEyZMGDx4sLCwMBk1DipEckkiPDycDGmYm5tbUlJCrxGhDlJdXU3GNrxw4ULj8kluPOfl5YWJuXPnGhoaWja8YY48hpiUlAQL4pCG7AM6ddBtjoyMdHJyWrhwoaio6Lhx42bOnLlmzZpdu3YlJCQ8ffqUXqYRGxsb+NGVlJTu3r3LJEKrCJpBQ4cOha4+3aNFiM1oaWlBcQ0LC/tfse5WtbW19+/fh/2BI3Hy5Mljx47V1tbeunVrfHw8DrqIuh0JoWVmZkKb89ixY/v374dW6MaNG+F0D+1SVVVVcvsLDw8Pc/uLubn5pk2byAPfMTExsCCcGrCxihDqPPX19dCIPXDgQERERGJi4rt37+hzP+IcZWVlly9fDg8Phx/04cOHbHjDUFFRETTSoKkGPWLoT0GzzdXV9dy5c+/fv6dnRQih9srOzjYxMRETEwsKCvr48SOdzQI6ktC9ZZ/3jSHUHAyM9VDQvMvNzSUXFAIDA11cXMjVhClTpkBDigxvqKqqumjRIhJUCAkJIY/RQD1YUFBArw6hjkMueN2+fTshIYE87GVnZ0fuFpeRkRk3btyQIUOkpaXV1NQWLlwI5XPbtm07d+4kQS9ynzg+5sW2oBsJnckzZ85AV83Q0FBWVnbUqFEqKirm5ubkRUftGDc1Ly9PQEAAygD1u9fV1ZE3JQwbNmzt2rUbuYutrS2d1JNw2ceH8k+GMGKGfWA35Q3vPvH29jYwMIDDbcKECaamprt374aKuqMGCEKow5GBHMkjaNDcDQ0NhRbFunXryCtC4QQkJCQELV5JSUkyvIGZmRkcjzBPRETE2bNnYSlYvLKykl4vQgi1BdRFz58/J2PJhoWFRUdHP378mA68IPbz4sWL06dPw08GP9zhw4fhV+OU12HW1tZmZGSEhITA+U5MTExeXn7NmjXh4eFwQqRnRQih1nn48CEJiUEf8NOnT3R2I9CxJT3cbnnf2Nq1a6n3jSHUHAyMca2KigoS+oJWuJ+fn729/fLly7W0tKSlpUeOHMnHx0ee9zIzM3NycoIZYLYrV65kZ2ez7YU5xDXevn0L7fLk5GTyvJejoyMZhFNGRmbs2LFkiKRZs2YZGBiQuOzevXvJ+0WgSONdb5zl48ePqamp+/bts7W1VVVVHT16NPTNoJPm5eUVGxv75MkTeoG2i4iIePnyJZ3aAGozEhvjJn369Pn3v//9559/kncw9EDwweHjDxw48KeffqLzOBmcpukSzK6gKo6OjnZwcJgxY8aYMWM0NDTc3NySkpJavm0QIfZUUFDw6NEjaGNAqQ4LC4PTk7W1NfT8oVkCrRFeXl5oNsMElHNDQ0Po28MM+/fvP3PmzPWG9+DiA+gIodarra199+7d+fPnobYJ/Qbqk/T09NLSUjoyg7oQ9EoSEhLg59izZ8/eBmfPnoUTBBcMS/js2TPodMOpTUFBQVBQcMWKFdB7evXqFT0fQgg1hQmJBQcHtyYkxujG94316dPnzz//HDt2rL+/f15eHr1nCLHAwBhnKyoqgmZ0fHz8vn37XF1dLSwsoBsvJycHxz/05OXl5bW1tS0tLd3c3KAPHxcXl5KSgu8tR12gsLAwIyMDen3k/XNWVlaLFy+eOXMmMw6nkpLS/PnzyfNeu3fvjo6OJuMalTcaoRhxFvgFk5OTd+3aZWpqqqioOHLkyBkzZtjY2ED38s6dO11/631dXd2lS5fc3d3pm4g4kJ2dHRxE5Cu1tbWls3uSjRs3wsmOn59fRERER0cH2tz0HBzFxcUlMTGRLrscAnpHV69e9fDwmDt3LrQ9NDQ0oDWCQTLETRo/yL5hwwbmQXY+Pj5yQw8UfmNjY6iod+zYERUVdfny5aysLLzbDCHUgvr6+pqaGqhhLly4QIJkISEhwcHBgYGBAQEBx48fv3btWnZ29o+/8QsRubm5d+/ejYmJga8avuSgoCD4C13RPXv2xMbGPnr0qLq6mrufLYCzEvS7ra2t4fwlJycH56y4uDh87ztCqEkPHz40NTVtR0iMQd43Rvd+O5+7u7uenh4vL6+EhAT8VVBQcHNzg8Y8Gw6Ei7odBsY4QElJSWZmZnx8/N69e6FOWbVqlaamJvTAhwwZAgf5zJkzDQ0NoYvu6+tL3jr+9OlTvH0VdTbooUHngTz15e3tDa1qKIfq6uok9CUuLq6ioqKvr0/urY6IiDh37lxqaip0/PBUxGWqqqqghQHdeKia5OXlx44dCxWUk5MTdLqgJ8/dfcsuU1paum3bNkFBwU2bNrVjtEkuBlWQiYkJPz8/VEFZWVl0Nupa0F+CRoinp6eWlhZUBbNnz4Y+yc2bN/F2HMTdmFefQlv9wIED0OyxtLSE3jg0hKChDo0iaLRDAwmaSTY2NpB7+PDhixcvQtse39iHEGoM+krQfq6pqXnx4sX169dPnDgRGhq6c+dOqD0CGmzfvh06X/7+/vv37z916lRiYmJ6ejq0usvKyuhAUI/x8uVL+AagWQjfRnh4OHxj0HImX5eHh4efn19wcDB8Y9AnTUpKgj7sx48fa2tre3i3NC8v78iRIxYWFtB/hzYbfFHYZkMIEbm5uatWrfqRkFi3e/LkCT8//+BvRBsICAhAKz02NhZv4kQMDIyxEehU37hxIyoqaseOHVZWVgsWLJCTkxs1ahR0qqE7bWJisnnz5pCQkJiYGOh749OgqAu8e/cuKyvr/Pnz0MGAtjKcQrS1taFYjhkzho+PT1FRUUdHBxLd3d3DwsLg7AIlE4dl6AmgPwkdy3Xr1k2bNg3qKFVVVXt7e+hZQY+0h/cwOxx09eH4EhQUtLOzw/c7NufNmze+vr5SUlKzZs06evQovvWKHcCvcP36dTc3NzU1NV5e3iVLluzbtw+6WPR8CPUA+fn5aWlp586dI4/RW1tbGxgYwKlTXFx82LBh0tLSWlpaZmZmW7Zs2bNnD7Tz7969+/r1a3otCCHEEjYDeXl5OTk5SUlJCQkJBw8e3LlzJ5x2AwICXF1d/fz8tm3bBv9CnQMT3t7e2xqQcBo4fvx44jf37t3L/qa4uJgOOnUyqCGZrd+8eZPZK6gwya5CJxT23NPTk0zs2LED/sIHhI+5fft2aAHCx4SPDy1A8sLpZ8+eVVRUwPcDXxR2TFoJWmh79+7V19cXERGBvyEhIY8fP6ZnQgj1AFAnr1u3TlhYGKpZTo8e6enpCQoKMrExISEh6JYOGTIEpkePHu3o6IgXWNBXDIx1C+jrQpvv8OHD0LazsLCAzvCECROGDx8uJye3YMECqIN8fHygYUdeXcAFo1ojNgc9B2j4Xrp0CXoU0K8wNzcnowNBmYQzh7Ky8uLFi21sbMjQQFevXn369GnXD4iHuhc0ieCnh54nFAY+Pj5ZWVkoJ2FhYZmZmXhfYSf58uVLcHCwqKiolZUVNE/pbNRIXV3duXPnoIhCxbV582aMwbCPsrKyU6dOQfNm/Pjx0tLS1tbWZ86cKceBcxFqqLhevXp169atkydPBgUFOTk5LV++XENDA44U6LTDITN79mxTU1PougcGBsKBk5qaisMzIoRar65BbW0tiaVBk/5Zg+zs7KRvTp8+ffAbEmdiuLLYsmULmXBxcSFhtpaROVnXwGDdBFRuZNNkiBGyS1euXCH7mZeXR/YcPgL5LPQnRB0KOiDJycnOzs6KiooSEhJr1qw5fvx4aWkpPR9CiOsUFxc7ODgICgq6u7tzR08NajNxcXFoUfPw8AwfPnzOnDkeHh7QnIYzIF7FQgwMjHWiioqKrKysmJiYnTt32traLly4UE5ObsSIEbKysrq6ujY2Nv7+/tANvnPnDg6NhboAFLPbt2+fOHEiICBgw4YNS5YsUVZW5ufn5+XlhYavnp4elEkmKPvixQtoFtOrQD0JdIGg+oK2kYqKypgxYzQ0NKCPFB8fDw0melbUoaDnf+TIkfHjxxsZGT158oTORt+Tl5fn6uoqKiqqo6Nz9uxZbPWyladPn4aGhurr648bN05bWzsoKAhDmAg1B1pu9+7di4uL27t379atW1etWgXnYklJSeZ2OisrK3LfErmdDi8ZI4Q6SXl5ObSs8KH8HuX169eRkZHLli2DNpuWlha02Z4/f07PhBDifO/fv4fus4CAgJOT07t37+hsTjZlyhSowQYPHgwtagkJiejoaHoO1ONhYKxjQEsxLS3txIkTPj4+5ubm0GsVERERFBRUU1ODTqybm9uhQ4egy4p3/aMuUFRUdOfOHSiNfn5+NjY2urq6cnJyw4cPh9MAlEwzM7OtW7eGhYWdP38+KysLToH08qgHg/IQFxfn4OAwdepUXl7exYsXBwYG3r17F0MLXSY+Pl5RURE6n/C103moLaDQnj59et68eeLi4nAWxnHJ2M2nT58uXLgAJylJSUk4STk7O0Mzqaamhp4PIdRIbW3ty5cv4ZChBmAfMWIEHFDQ2IPeh6ura0RExNWrV3GMa4TQj4PaZsmSJXQq6hm+fPly6dIlaLNJSEhMnjwZ2tW3b9+mZ0IIcaCqqipfX19hYWE4wLlyXMHDhw/LysoOHjwYpp89ewat5T179tAzoZ4NA2NtBs2C7OzsuLi4nTt3rlu3DjqfUImIiIjABPRL/fz8Tp8+nZGRwR1PniJ2VllZ+eDBAyiKQUFBdnZ2enp6CgoKI0eOZAJg0GYlbxjOzc3FwAZqzsePHxMTEx0dHZWVlXl5eRctWgSVW1paGo7j2sXgO58zZw78CtDzpPPQD8jJyYHiLSQktGTJEijq+EQFG7p///6OHTvU1dX5+Pjg5HXixAlOH9Eeoe7y5s2be/funT17dteuXdA4hHM6NA5Hjx4tJye3cOFCSAkMDIyJiYGDDrsqCKHWg8okKiqKTkU9T2pqqru7u5KSkpiYmLW1dXJyMt7VhBAnqq2tjYiIkJCQWLVqFRc/DPrlyxdRUVESGPvaMFzkzJkz3dzc/j4X6tEwMPYdZWVld+/ehfrir7/+WrJkCfQqeXl5Z8yYsXLlSk9PzxMnTqSnp2PHEnU2qL7v3Llz/PhxLy+v1atXz549Gyp3KIrKysrGxsbOzs4HDhy4fPny06dPMQCGWunRo0e7du3S0dGBgjR//vyAgADo52AwrFsUFBRYWFhAq/Tw4cMYtukknz59gq9XTU1NWloaSjuXjRHBNd68eXPo0CF9fX0+Pj5DQ8Njx459+PCBngkh1HZkPG1oSW7fvt3MzAxakmRwi5kzZ65YscLNzS06OjotLQ07NQihxkpLS8eMGYMDjSBWL1++DA4OhrOJkJCQtbX11atXsSOJEKc4f/68oqKitrZ2eno6ncd1vL29mcDY14b7wsm7jfDCCyIwMPY30NqDTmNYWJi9vf38+fOFhYXFxMQWLFiwadOm0NDQy5cv48vAUGeDQpiWlhYdHe3m5rZ8+XIVFRVeXl5xcXENDQ0LCwuo0yHr7t27eFUXtcOHDx9Onz5tZWUlKSk5adIkOzs7aBLhkxndqKqqytPTU1BQ0MPDo7Kyks5GnSAzMxN67+TJJBwHhm1BZXXs2DFDQ0P4pfT19Q8fPlxWVkbPhBD6MXDeycrKio2N3blzJ1SMc+fOhQYndH/IMBiQGBcX9/DhQ3zpLEI9XGRkpJ6eHp2KUIP8/PzAwEB1dXUREZH169dfu3YNLzcjxLbu3bunpaWlpKR08eJFOo9LvXv3buTIkawp1dXVxsbGJiYm2MRFX3t4YAyOAegNRkVFOTk5LVy4ULQBTDg6OoaHh6empuJdk6hTQXX88OHD2NjYgICAtWvXkvutBAUFZ82aZWFh4efnd+bMGSiiGLdAP6ioqOjgwYO6urrkEvO+ffuePXtGz4RJYQyYAACAAElEQVS6Vn19/dGjRyUlJc3MzPD1k10Pzu8hISHy8vLKysoHDhzAapZtwU9z4sQJU1NTqL4WLFhw6NAhbJsh1KngoIPG59mzZ6EhCmeomTNnwtEnLS0NXSR7e3toQly/fh1vz0KoR1myZElkZCSditDfvXr1aufOnaqqqqKiohs3bkxNTaXnQAh1n2fPnq1YsUJSUrIHjlJjbW1NpdTW1q5Zs2b+/PkVFRVUFuppelZgrLS09OLFi4GBgStXrpw6dSp089TU1DZs2LB3796UlBQcHAB1qo8fP2ZkZERHR2/dutXQ0HDy5MmjRo2aNm2aqampm5vb8ePHoe2Id8SjDvT8+XPonGhoaEBdt3r16rNnz1ZVVdEzoe6QmZk5a9as2bNnY4+x2yUnJxsbGwsICGzatOnRo0d0NmIbnz59iomJMTExgQoN/sbHx+PQwQh1meLi4ps3bx44cMDR0VFPT09SUhKqTWhg2NrahoSEQEWKoTKEuBX0YceOHVtSUkJnINSMly9f+vr6ysvLy8nJwQTeAohQ93r//r2Dg4OwsLCfnx90qejsHuDJkyd0UsOdyvb29qqqqngZtofj8sBYYWFhQkKCl5eXoaGhhISElJQUTHh6esbFxeEDE6hTVVVVpaenR0REODk56evrjx8/fty4cTNnzrS0tNy1axcUy9zcXHoZhDpCXl4e9ECmTp0KlZ6trW1ycjJePmYf5eXlGzduFBMTO3LkCJ2Hug+0FqBtAIeMlpbW6dOn8ZBhZ3AQHTp0SFtbW0BAwMbG5ubNm/QcCKHOV1FRAQ3do0ePOjs7L168GDpZQkJCcGDa29sfOHAgLS0Nn8RFiDvExsbq6OjQqQi1QmpqKnR84Owwb968w4cP47jxCHWx2trasLAwUVHRDRs2lJaW0tno69ctW7bMmDEDn5PpybgtMFZeXn758mVfX19DQ0M4+OXk5ExMTHbt2gWJWAugTvX06dO4uDgvLy9jY2N5eXleXl41NTVbW9s9e/ZA8SsqKqIXQKhDwbn84MGDc+fOFRYWhh4IvjyJDUVFRYmLi9vZ2WHDiz3V1NTExMTo6OiIiYm5ubkVFBTQcyB2Aj/Qzp07p02bNn78eFdX15ycHHoOhFAX+vDhQ2pq6oEDB+zt7TU1Nfn4+CZPnrxs2TLol507dw5bwghxKEtLy3379tGpCLVadXV1XFyckZERecVvUlISPQdCqBNcuXJFSUkJ+rYPHz6k8xALFxcXjI31ZBwfGKuvr8/KyoK2Gpxi5eTkREVFDQ0NoQN2+fJlfAsF6jyfPn1KS0vbu3evtbW1qqoqLy/vlClTTE1NoezFx8e/ePGCXgChzgE9jZiYGNLTWLly5fnz5/FhFzaUnZ09Z84cNTW1jIwMOg+xn5ycHEdHR0FBQWhRQHOCzkZsBo6vrVu3SkhIaGhoHDlypGeOEIIQG8rLy0tISIC2sbGx8cSJE4WFhQ0MDNzc3OLi4iCLnhshxJbg9Pr06VM6FaG2Ky0tDQsLU1FRmTRpUkBAQHFxMT0HQqgjPH/+HLqxcKDFx8fTeagpzs7OqqqqGBvrmTgyMFZZWZmUlOTp6amrqysoKKimpubo6BgTE4M3d6POA6Xu9u3bISEhFhYW06ZNGzdunIaGhoODw5EjR7Kysr58+UIvgFAny8vL27Ztm6io6IIFC6KionBsCvb0+fPnLVu2iIiIRERE9LSX3HK6T58+wa82ffp0WVnZoKAgHHyczdXU1CQkJCxdulRAQMDW1jY9PZ2eAyHUrcrLy69cuRIcHLxy5Up5eXkhIaElS5bs2LEjMTERK1iE2NODBw8kJCToVIR+DDTSrK2t+fj4TE1Nk5OT6WyEUHtVVFRs3boVmlgBAQF4w3Sb/PXXX2pqanhVrQfimMAYHN4XLlzYsmWLurq6oKAg9KN27dqVkpKC9wWjTlJTU5OZmRkaGmpmZqaoqAjttvnz52/evPnkyZOPHz+m50aoq9TV1SUmJhoYGAgLC8PJG1+XyM5u3rwpJye3cuXKd+/e0XmIc6SmplpYWMBZwNLSMi0tjc5GbKaoqMjPz09GRkZZWXnv3r146x9C7Km8vDwpKcnf35+8ChpOl+bm5vv378/Kyqqvr6fnRgh1h127dsGBSaci1BEqKiqgzofWmqysLJQ0fIAMoR905MgRaFCtXbv2zZs3dB5qBTs7Ox0dHXzsoadh68BYdXX19evX3dzc1NTUhISEjIyMQkJCoLNEz4dQByksLIyLi/vrr7/mzJnDx8dHHkY8derU8+fP6VkR6nLl5eU7d+6UlpaeNWvW0aNHP3/+TM+B2MaHDx9sbW2lpKTOnTtH5yHOVFpaGhgYOGnSpBkzZkRGRuJ9Oezv6tWrq1atIhHNzMxMOhshxE7y8/NPnz4NDe+ZM2cKCAjo6up6e3vfuHEDWzsIdSM4Eo8cOUKnItSh7t27t27dOmiwrV69GoedR6gdHj16pKmpqa6ujkfQj6irq1uxYoWxsXFtbS2dh7gXOwbGcnJydu/evWjRIiEhIWiK7dq1C4NhqPNA6dq7d+/y5culpKQmTpwI9WBISAg0zvA2AcQ+iouLXV1doUq0tLTE+pD9JSYmQn2yfv36Dx8+0HmIw9XX11+6dGnp0qVwPDo6OuJbN9hfWVkZtCQnTJgwe/bsU6dO4aAiCLG/z58/37hxw8fHhwybP2fOHDc3t2vXrmGQDKGuVFNTM3bs2Pz8fDoDoU5QXl4eHBwMDTao82NjY/HCNEKt8fHjR/LihvDwcHxxw4+DruLChQvXrVtHZyDuxS6BMSh8ycnJDg4OMjIyU6ZM2bZt25UrV7DzgzpJVlYWtLqWLFnCx8c3bdq0TZs2nT17Fh/eR2zo9evXUDHy8/Pb29tjv5T9vX//3szMTFZW9saNG3Qe4i5wbLq5uZGX/EHvvaamhp4DsZPa2tr4+HgdHR1xcfEdO3a8ffuWngMhxJbg4E1LS9u5c+fChQsFBQWhyvXz88NRbRHqAvfu3ZOTk6NTEepMUOfHxMRoaGhIS0sHBweXl5fTcyCEvklISJgwYYK5uTlezOxAHz9+nDVrloeHB52BuFQ3B8agwJ08eXL58uVCQkJ6enr79+/Py8ujZ0KoI7x8+fLgwYMmJiYCAgIqKiqOjo7x8fH46hHEtl6/fm1lZQV147Zt27ChwxGSk5OlpKScnJxwkL2eo7q6+tSpU5qamhISEl5eXkVFRfQciM08evTIzs6On5/fzMzs3r17dDZCiI1BlXvz5k1PT8/Zs2eLiYlZWFhER0eXlZXR8yGEOkJQUND69evpVIS6REZGBjTVBAQE7O3t8aXaCFHy8vKWLl2qoKBw/fp1Og/9sJKSkkmTJkEjk85A3Kh7AmOVlZXHjx83NDQUEhJatWrVmTNnqqqq6JkQ+mGfP3++dOnShg0bZGVlJ0yYYGNjExcXh4ObITYHNaS7uztUj56enniXHEeAqsbR0VFKSurKlSt0HuoZHj58uHHjRui9m5iYXL16lc5GbAaq1t27d8vIyMyZMwdfBIgQJyorK4uOjrawsBATE9PU1AwMDMRXAiPUsQwNDU+dOkWnItSFioqK3NzcREREVqxY8eDBAzoboZ6nuro6ICBASEjI19cXh4jvPE+ePBEVFb19+zadgbhOlwbGamtrL126ZGZmBsewubl5QkICDpaIOkNxcXFkZKSBgQF5d/fu3btzcnLomRBiP3V1dVB0JSQkLC0tCwsL6WzElrKyspSUlKC3hlFMVFlZuX///mnTpikoKOzZsweLBJuDdumZM2emT58+ZcqUo0ePYt8SIU5UX1+fkpKydetWOTk5OJY9PT2fPHlCz4QQajvokmC8GbGDjx8/BgcHi4uLGxgY3Llzh85GqMdIT0+fOnXq4sWLX758SeehjpaUlATVzqtXr+gMxF26KDCWm5v7119/QdNKV1f32LFj+HwY6gyFhYUhISFz584VEhJau3ZtYmIiDmiGOMjNmzeVlZXnzZt3//59Og+xpbq6ul27dgkLC+NT9ohy+/btVatW8fHxWVtb4xHN/pKTk6GBKiUlBa2Ijx8/0tkIIQ7x5MkTLy8vBQWFadOm+fr64hD9CLVbUVHR2LFj6+vr6QyEusmXL1/Cw8NlZGS0tbWh5UZnI8TVoPxv27ZNVFT05MmTdB7qNGFhYUpKStg95G6dGxirqamJiYlZsGDBhAkT/Pz88N0bqDO8f/8eWkhaWloiIiLW1tZJSUlQ8OiZEGJjnz59IgPxxcfH03mIXb19+3b+/Pnz5s3Lz8+n8xBqUFxc7O/vD00gdXX1I0eO4FPybO7+/fvLly8XFhb28PB49+4dnY0Q4hwPHjxwdXWFlhWcqY8fP463yiHUVufPn581axadilB3q6mpgVp9ypQpM2fOxL4z6iFSU1MVFRVNTEzw3fNdz8rKysLCgk5FXKSzAmMVFRVBQUGSkpIGBgbQqKqrq6PnQOjH1NfXX7p0iVzDsra2vnbtWm1tLT0TQmzvzp07cnJy5ubmOOoaB7l58yac4Dw9PfHshr4LCkliYiI0h4SEhBwdHVs5tC/eS9Rdnj9/bmdnJyAg4OzsjOExhDgaVL+XL19euXKliIgIVL+5ubn0HAihZkAr18bGhk5FiD3U19fHxcXNmDFDWVn5woULdDZC3OLz588uLi7i4uJnz56l81CX+PTp09SpUyMjI+kMxC06PjBWXFzs6uoqKipqbW2N3Q/UGUpKSnbu3Dlx4kRtbe3o6Gi8CRRxqC9fvmzZskVCQgJvduMg0A2D+gfapklJSXQeQi3Kz893c3MTExODk9fp06dbfqNVRETEjRs36FTUVYqKijZt2iQgILBt27bS0lI6GyHEUaDvEBAQMH78+EWLFuHpG6HWWLZs2b59++hUhNgM9KOVlJQ0NDSw2Yy4z+3bt+Xl5VeuXAnNGDoPdaGnT5+KiIg8ePCAzkBcoSMDYxUVFZ6enlBcXFxc3rx5Q2cj9MOeP3++YcMGYWFhBwcHfLE24mhQSc6aNQv6nHjJlYOUl5cvWbIEul4FBQV0HkKtU11dffbsWR0dHVFRUVdX1+ZegVNWViYgIICd/O4FR7qdnZ2goKCbmxv8InQ2Qoij1NbWxsbGzpgxAwfgQui7pkyZcuvWLToVIfZTV1cXHR0tKyurq6ubnp5OZyPEgaqqqpycnCQkJOLi4ug81B1OnDghJyeHLxvjSh0TGINuxr59+8TFxdevX4+D/6DO8OzZM3NzczgxBAQE4IhziNNlZWVNmDDBx8eHzkBsLCMjY+LEiZs3b8a3GKIOkZubCx0eISGhxYsXnzt3rvGwnJA+YsQIjI11u/z8fBsbG/iltm/fji0QhLjA5cuX58yZo6qqev36dToPIdTwGidogeApD3EQKLQHDx6UlJQ0MjJ69OgRnY0Q58jKylJQUDAzM8Pb8tiKpaWlg4MDnYo4XwcExuCgnTlz5sKFC3HgRNQZ4GSwYcMGCQmJoKCgz58/09kIcZr4+HgREZGYmBg6A7Gx6Oho+NXwji3U4eC8FhUVNWvWLCkpKV9fX9YH7m/dusXDw8PLy4uxMXbw6tWrdevWCQsLw8+EYzgjxAUSEhIUFBSWLFkCRzedh1DPlpubO378eDoVIbb35cuX4OBgUVFRCwuLwsJCOhsh9lZfX797927obpw8eZLOQ92tvLxcUlISn6XmPj8UGKupqXFzc5OQkIiOjqbzEOoIkZGRYmJiLi4uHz58oPMQ4kB79uyBfmZmZiadgdgVNE/d3d1lZGQeP35M5yHUcbKysmxtbfn5+U1MTK5cuUISofE9ZMgQPj4+jI2xiefPn69cuRJ+lyNHjjR+yA8hxFmgMxsSEiIqKgp/8YhGiJGYmLho0SI6FSEOUVlZ6eHhISgo6OXlhTczIU7x9u1bPT292bNn4/06bOv8+fNycnJYq3CZ9gfGCgsL586du3jxYnxBDuoMcFbQ19dXV1fPycmh8xDiTJGRkRMnTsTXU3EQaPSYmppqamq+e/eOzkOoE1RUVOzfv19ZWRna3Lt37/bx8Rk9evSwYcMwNsZWUlNToVqYNm1aUlISnYcQ4jSvXr1asGDB/Pnzi4uL6TyEeqTw8HAbGxs6FSGOkp+fv2rVKikpKbyPH7G/S5cuSUhIeHh44Fsb2Nzq1as3b95MpyJO1s7AWGZmJnnbU319PZ2H0A/LyMgYP368l5dXbW0tnYcQZzp79ixUm8+ePaMzELsqLCxUVVW1sLCorq6m8xDqZHfu3NHT0xs5cuTw4cMHDx4Mf/n5+TE2xlbi4+Pl5eV1dXUfPHhA5yGEOEpdXR30O6SkpNLT0+k8hHoed3d3b29vOhUhDnT79m01NbVZs2bdvXuXzkOIDVRXVzs5OY0fP/7mzZt0HmI/ZWVloqKiOJgQN2lPYAxOLVAO4uPj6QyEOgKcD0RERM6dO0dnIMSxkpKSxMTE8OIpB7l//76UlJS/vz+dgXqexMREFxeXv7rKxo0btbW1BQQExowZM3r06MHfDB06dOTIkcuXL6cXQN3H1dV106ZNUL1bWlriqywQ4nTQ+4A+SEpKCp2BUA8DJ7XDhw/TqQhxpvr6+mPHjklKSpqZmb1+/ZrORqj75OTkqKioLFu2rLy8nM5D7Co0NFRfX59ORRyrzYGxjIwM6DAkJyfTGQh1hMzMTChg169fpzMQ4lhPnz4VFha+c+cOnYHYFZzjoCKKi4ujM1DPY29v36ur/PzzzwMHDvzvf//LBMMag1yYjV4SdaupU6c6ODgICQkFBgbik+4IcbQrV65AAwDfBYt6OF1dXRwrGHGZqqoqT09PaK3t3r0bXyqJ2EF0dDQ0OSIiIugMxN6qq6vl5OTwLMk12hYYy8/Pl5CQSEhIoDMQ6ggFBQVSUlL4MCLiJnDWnD59OjZ3OAic40RFRW/fvk1noJ7nzZs3/RqYm5tvRKiRtWvXDh8+vFevXsrKys+fP9fV1YUKHy+pI8TRoCcC/RF8IyzqyWbMmJGRkUGnIsT5Xrx4oa2tPWvWLBwJDXWjmpoaBwcHOTm57OxsOg9xAmgrTps2DUPs3KENgbGqqqqpU6fu2bOHzkCoI1RWViorKwcGBtIZCHEyFxcXIyMjOhWxqzNnzoiJieF1bUSEhYX16tVLS0urHKFmPHv2bNiwYVBOLl26BGXm2LFjoqKiPj4++BZehDgX9EemT5/+5csXOgOhnkFOTg7fi4y42MGDB4WFhYOCgugMhDpfUVGRhobG0qVLy3H4RE6mqakZHR1NpyIO1IbAmJWVlaWlJZ2KUEeor683NDS0tramMxDiZFeuXJGSkiotLaUzEFsir4J7+PAhnYF6qi1btvTq1Wv9+vV0MAQhFmvXroVy4u7uTooNdHehp2RgYFCO3V2EONby5csdHBzoVIR6BlFR0eLiYjoVIS7y+vVrNTU1ExOTiooKOg+hTpOWliYpKenr64u30HG6ixcvTp8+nU5FHKi1gbETJ05Mnjz548ePdAZCHWHnzp0aGho1NTV0BkIc68uXL9LS0vhGRk4BjVQREREcQRGx+uuvv3r16rVx40Y6EoIQCyghUE6gtDAlB9ozjo6OsrKyeMc9QhwKDm1oxV28eJHOQKgHGDly5OfPn+lUhLhLdXW1ra2tgoJCbm4unYdQJzh9+rSIiMj58+fpDMSB6uvrFRUVr1+/TmcgTtOqwFhJSYmYmNj9+/fpDIQ6QkpKChQwHMofcZldu3bhIIqcoqioSEJCAhupiIKBMdQajQNjRGRkJFQsjx49otIRQhzh6tWrEydO/PTpE52BELfj4eGhkxDiUqS1hlc7UWfbsWOHtLQ0vlSMm0RERCxZsoRORZymVYExKyurzZs306kIdYSSkhIpKSm8HxNxmdLSUmFhYbz7jCNUV1fPmTPH19eXzkA9HgbGUGs0FxgDp06dwnvLEOJcK1as8PLyolMR4naDBw+mkxDiXvHx8aKioikpKXQGQh2hpqbG0tJy1qxZb9++pfMQJ/v8+TNUHXjRj9N9PzCWlZUlISFRWVlJZyDUEVauXOns7EynIsThHBwc7O3t6VTElqAKWrp0KQ7zjRrDwBhqjRYCYyAuLg4a0nl5eXQGQojtvX79WkBAoKysjM5AiKvx8PBgwxj1KFevXhUREUlPT6czEPoxVVVVBgYGixcvhgk6D3E+R0fHHTt20KmIo3w/MGZkZLRnzx46FaGOkJCQICcnhyOYIy5TWFgoKChYUlJCZyD2k5KSIiEhUVpaSmcghIEx1DotB8bA3r17FRUVYU46AyHE9qytrfGhMdTTDBkypK6ujk5FiKslJiaKi4vjwx+oA71//15DQ2PNmjU1NTV0HuIKKSkp06ZNo1MRR/lOYOzx48cSEhIYt0Cdoby8XFJS8tatW3QGQhzOw8MDHxfjCJ8+fZo0adK5c+foDIQaYGAMtcZ3A2NfG24nNDAwwBvwEeI4ubm5IiIieEkL9SjDhw+vrq6mUxHidocPH5aRkXn//j2dgVDblZaWqqiotNxBQJyurq4OA+qc7juBsc2bN7u7u9OpCHUER0dHW1tbOhUhDgfdSDExsadPn9IZiP1s377d1NSUTkXoGwyModZoTWCspqZm1qxZISEhdAZCiO3Nnj370qVLdCpC3EtISOjdu3d0KkI9gLOz8+LFi/FOJvSDoAqdNm2aq6srnYG4jp2dnb+/P52KOEdLgTHow4uKir548YLOQOiHPX/+HBvciCtFR0fr6urSqYj9vHz5ko+PD89xqAUYGEOt0ZrA2NeGOkdERCQ7O5vOQAixt9DQ0LVr19KpCHEveXl5vMkP9Uw1NTWampq+vr50BkKtVlJSoqSk5OnpSWcgbnTx4kVtbW06FXGOlgJjt27dUlVVpVMR6gimpqZ+fn50KkKcT0NDA4fm4whmZmabN2+mUxFigYEx1BqtDIyByMhIdXV1fHELQpzlyZMnMjIydCpC3Gv27Nl37tyhUxHqGQoLC0VFRTMzM+kMhFoBugYzZszYtm0bnYG4VHFxMR8fH52KOEdLgTEPD48e9eDn58+f4eQXGRl59+5dOg91qIcPH0pISHz69InOQB0NS3UXg2a0oKAgvoiC/WVnZwsJCeEI8qhlbQqM5eXl3bhxAyoBOgNxFPKW7Pv378O0l5eXv78/PUcjrQ+M1dfXa2lp7du3j87oUHjq/y44Wnva48JYKn4EHLnQZnjz5g2d0XZY9hBHWLx48fnz5+nUtsNfHzE6qTBUVFQw96QmJCTAv3/Pb6cTJ05MnToV37TX9TqpnHSZqqoq6EdYW1vTGYirSUhI9LTWXcfq3gO/pcCYjo7O5cuX6dQGt27dWrdunZqamrKysqur67Nnz+g5OEplZaW2tna/fv3++c9/QoGOjY2l50Adau3atd99XMzd3d2mkevXr9PzoWZgqe4WYWFha9asoVMbcFm1yelMTEyCg4Pp1EawIurhWhkYgyIhLCzcq0GfPn1kZWVJWAVxKGil/P7779LS0j///HNqaiqd3UjrA2NfGx49ERERKSsrozNaDZZ1cXHR1NRUV1e3t7cvKChgsvDU30p6enpwOqZTuRSWig4xd+5ccvaHhkFUVBST/vbtW2gYJCYm/m/WFmHZQxzB1tYWOjV0aiN4PkKt0amFoba2dsyYMX5+fj4+Pry8vB34UL6RkZGXlxed2jrUmeLz58/YhfyuTi0nXaOmpkZfX3/ZsmVQLOm8VqCuPDx8+JCeA7ErAwODmJgYPPDbgR0O/JYCY7BPrI0bVt7e3qqqqtAMWrdu3Z9//jl48OAPHz7QM3EOqLn+7//+7+rVq/iOzS7w5s0bAQGB7z6oMXbs2FGjRul9M2/evF69egUEBNDzoWZgqe4Wurq68fHxdGoDLqs2OVpubq6IiEhVVRWd0QhWRD1cawJjN27c6N+//x9//BEREXH//v3g4GBo1f3nP/958uQJPSviEKWlpXv37jUyMkpJSaHzmtKmwNjXhlc0t35mCpSr0aNHwxnE1tbWwcFhzJgxcEK5ffs2ycVTfyv1qOAElooOYW5ufvTo0a8NDQOoHJh0Q0NDOPydnZ3/N2uLsOwhjrB7925HR0c69e/wfIRaqbMLQ3Jy8pQpU5SUlK5cuULn/YCCggIhIaFXr17RGa1AnSnev3+PXcjv6uxy0gXWrl2ro6Pz5csXOqN1Ro0aJS4uvmTJktmzZ0OBiYmJoedA7Mrd3X379u144LcDOxz4zQbGKisr4UelU5vi5+cHP3bHnoS6UlVV1a+//rplyxY6o+fpmoII9cL69evp1Ea6t07pgq+iQzbR3EqwVHcLKKV8fHytCbdwerXZsZorxp3HxsamlTcAYkXUGh2yku/qmq1QWhMYmzt3bu/eveFwZlIOHToES1lYWLDM1U5Q5OikhsQm09ukQ1bCaN/a2rFIC9q3Dx2irYGxt2/ftvtSC3SV4fzOPHMMqxo+fLiUlBQcIN176u+WI7Tdek5wontLBTfZvHkzedCctWFw7do1qP8xMNYkLHscLTExcdGiRXTq3/XM81GnrpzddMiH7d7C8IN8fX0NDQ3p1Fbo3i4kpUN+xxZ0yPo5upwQnp6eM2fOrKyspDNa7Y8//ti1axdMZGRkYGCMs4SGhm7YsAEP/LZikwO/2cBYQUEBNGvo1KZAm6lPnz55eXkwDZ9HRkbmH//4h5iYGDOmhIaGBh8LcXFxJt3R0RHKzX/+8x9oRTFP68OqtLS0BjXQ1tZ+/fo1Sc/Pz1+wYAFUFrB+WM/nz59JOgNWyHyhBw4cYDbU5F4xUlNTobBGRUUZGxtLSkqampq+//YwU1v3sLkdgHTmYID1t/sbYL7JKVOmXLp0iSQ2+enauicvXryYMWPGL7/8MmrUqJMnT5LETqKionLz5k06tZGW65TmvqKvDV8Ia3kjh6usrCxrIoiNjW3y+2zyq2jyl7p165ampmZ5eTlMi4iIhIeHf22oEC0sLMhSTe5JC5vowJ8MSzXIysqCHwjWACvftGkTSexUcXFxixcvplObwunV5tdmttjcgTZ9+nRmQehgQDocPl+bKcZN7pKNjc3kyZOZg8jPz2/q1Klkuq3IQ6ulpaV0RlOwImLSmzzKmlwJqya/oua+hx8vJ1T614ZXWsJ60tPTmZQ2+W5gDPYNjmXYPSpdWFj43//+N0zIy8sL/J26ujqkL126lEr39vYmy0IWHLb+/v5Q/P75z3+S741kBQYGwjkUmo9wUEPj+9vW/j/23jyupu1//M/7fe/9fO/0vsP7/b4XVyFJs0oZkkRkKm4ZklIRSoYiY8SVUgjJnDkZKplCpUGUqRQlDYiEIoVUosH5vT5n/ZzPuevsfTrNZ3g9/ziPfV6vtddee+01vF77tffa/5cbWG5r1qzhCSdOnEi2o6KioJAkeseWCQ83NzdNTc2XL1+Sv3AR4XT27t3LeBToUDDRwPX96aefXFxcoGfx8gkJCfm/01NR8fb2JvLXr1+7urr+8ccf33zzDVy4M2fO8HaBQ8CxYODipYQpzMjIiPyFzFVVVXkZQjGInK0MpCbJ9tu3b2Ff/kp2cnIi2/Hx8Sp/r382FRuNDYxxuO8QQ1FpaUM8evQIDmRpackvhM4OwitXrgif+hn7C2MPJelJ3+Qfl/Lz8/m77f79+4m8yT20wUmnwXmcbWhiO0pGRgYcxcDAAJqZkpKSsbExtCKeUSqkNgTHXiJnG7UYT4etVETFeCIN1gBbmXkIbxWM58WWJ1v52QrfhPxJ02pxg5BN3ijgiOR2Fc8wqKurg6ysra1hFuAFxtjKhm0P216T2167AAN+//79aSkfUjwfsZWEMXN+2BoeY1ti9NF4J0tosCExZsJ4OLaTZcu5wZNlPDRj1YnYGDh8Rjubp8BYVDZ5i/Dp0ycoTGJiIq1oCOEupOA1Onv2LJzm119/3alTp4ULF5JkbFdNcHcfH58xY8YQ7eTJk5csWUK2Ga8jW7aiyDl/960Y8+dHfNpJg5NaM4mIiOjbt29paSmtaAxQkyQYRgXGGGuMw1S9gnUCozTjXRS20YYfSOPl5cXhhkDAPZwzZ45gAqkZ9HjpCwsLwVsHHxx81dWrV4u4Kubx48dhBsSOT2C8TIzNWEw6Pmtg7MGDB9B/aCkfZWVlcOH79Onz22+/HT16lAh9fX1Pnjx5//59Q0ND3l1LDQ2NsWPHxnJxdnb+9ttveXJwJGbNmhUWFgbuwTfffFNRUQHNDqpDVVX1zJkzUMWwAYeor6+vra3V1tb+9ddfN23alJ2dDQ1IsIFChnPnziXbW7Zs4R2IsVQ8oqKi4ErAWUDZHB0d4crxblU0qoQkPWMBQA49CjZgaINjNa0GSHpoXlBgTU1NSEMyYTy7RpUEMod2M2zYsNu3b8M17dixI0ncGoAVC9dRlKWfhYwpQqoImDBhwsiRI1NSUpYtWwa7kDkADHRofvb29j/99BNpii9fvhSsT7aqYLxSJSUlvXr1cnV1hQQggTkGzg5Gh7179wopiZBDtOAlw1YNwPDXtWvX8PBwOBx/W2o9wG4ICAigpXxIzbDJdkS2jgbX5fr16xyuUaWgoAB/wbNla8aMRbp48SLsFcu1AGBHuLKrVq36/0vTSLy9vVeuXElLWcCBiCcX7GVsmfBgqyK2emh+O6HkwJ07dyAfUZ7GYKTBwFh8fLwc910BSg4GGcjz8vKgbGDSTZ06Ff7CtYPtnTt3QoLBgwd36dJlLRcYOviPAio4nc6dO4N9bGRkBCpe+MrBwQEyCQkJIat6Qg/l7dK9e/eNGzeCpSjHvSdFhOChwcaTJ0+g3qAZkNUd2TLhQd54CwoKIn83b978z3/+Mzc3l/EocGpg3fr5+YEtDu0TzpeXD1QLnMgOLpDD/PnziRwu/VdffTVlyhToStDsO3ToABeaqOAQkHNgYCD5C4WEv1AV5O+rV6/gL1jSUGlQhu+//57I2crAq4FybmCMqmQSoQQ5tFIRVWw0ITBWVVUF4zP4vbRCKJGRkXCgPXv28AtJr9y1a5fwqV+wv7D1UJJecGomXjpcFOizkAO0BA77OMB4RCFyxkmnwXmccWgicsaj6OrqggqGUDhTFRUVOKKenp6ioiKnodoQHHuJXI5p1OKwnA5bqYiK8USE14CQMvMQ3ioEz0tInmzlZyt8E/IXbHWNqkkhJWGUNwrIAUZvDp9hABPuzz//DPMXf2CMrWzY9rDtNbnttQvgRCgpKQlZ9V1a5yO2krBlzg9jw+MwtSU2H02D3QEUbEhsmQgejuQgeLJsOTd4soyHZqs6ERsDh89oZ/MUBItKMmGUtxRxcXEDBw6sqamhFUKBmQJM0IAvwEWR47s/LniNcnJy4DQfPXrk7+8v98XnZbtqgruDJ6impka0BgYGYBhz2K8jW7aiyDl8l4ktfx5i1U6ET2rNBBxtGKDAV6IVjeH58+dQ4Hv37nH+HhhjqzHG6hWsE+LWkRZVz3cXhW204QfSkGAYNLk//vjj1q1bggmkY9DjT29jY6Ourn7p0iXY6+uvvwZjjyQQzrlz56ZPn44dn8NymdiasZh0fNbAWH5+PtQsLeUDjm1ubv7f//4XSuPh4cH/Gl1lZeXy5ct//PFH8ldIRZMrx+HG8aD0p06dunnzphyfjQV2FfxNTU2F84eNRYsWETkjJMN8LitWrKD6NlUqHkePHoWc4+PjyV+4HvLy8mS7USXkpRcsALlIMEaA3wL9pGk1QNLDwATdBtoZGIgkAUGwzkUvCalb6GbXrl2DEQ22m/xwfYMEBQXx4tjCEXI/WkgVAfr6+lAVHO7a6HJf7gIT1q5dCy2W91ewPtmqgvFKcbhT4Pfffw9dFOYAsMj//PNPGEZ5+TOWRPghWuqSYasGYJIYMWIEh3shYJYiwlZl3LhxSUlJtJQPqRk22Y5I/gp2NNCS7gxt8vfff5fj3r5ha8aMRSJm3MSJEzlcs+Of//wn2I68Q4gOePjQMJ5x39UTBRyISCaMvYwtEx7Cq0iwHuSa3U6IHE4fhMRQbu3A2MGDB+X4Ykg8wOWQ41q35C9YY3LcMZmXQHjMBkxMsCPJXzA94SKSbR5gicIuO3bsIH9hl/79+8PGvn37eAcCIdkRrMwuXbrw3gDjQWXCo7S09D//+Q/sTv5Cyxw5cmQ501EePHgA7hAMViQleBFgqX/J5n+jg8rKymQbzFwSGHv48CHsAi4QkRcUFHTo0AEGRvKXBMYGDBhA/pIV9nmBsadPn8Lf4OBg2IZeQwJjQsogvJJJ9CswMBDyEVHFRhMCY0BISMj48eNpqVD2798PB6KeXH7x4gUIvby8Gpz6qf4ipIcKjku89ORhWJgXyI3IJvRQRjmBmnQanMcZhyYiFzzKq1evoLHFxMRw+JazAycfygzNUnhtMI69bKMWSckROB0NlpmdqBhPRHgNCCkzjwZbBdlu0KLgpRe8dmyFb0L+gq2OIFiTjS0Jo7xRwIUmH1QnhkFxcTHYciRURgXGBMuGbY+Dba8Zba+9gBmKv1FRSOt8xFYStsz5YWx4PC1/W2Lz0di6KmNDYsuE0Jym2+DJMh6areqENwYhRrugpyBYVCHyFgSqjrwxLDowU0B5LL9ADFre/XGCoKOdnp6+dOnSH374AeqEw37VCPy7g98BG8TL490fZ7uObNkKkTNeJrb8eYhVOxE+qTWHwsJCcNaa8FohxenTp8GcII8j8AfG2GqMsXoJ/HXCdheFbbThR4M7/KakpHzzzTcXLlyg1VI06BE5lAQMNjjZ7du3EyEk4D2QIRxoulZWVtjxOSyXia0Zi0nHZw2MlZSUaGpq0lIm4IShfJcuXYJtcA/gNMA6V1RUbNAW55fX1tbCKACX4cSJE5BbWloakUNNwd/w8HAiJ0MDG5Dh//zP//yby3fffcc7EGOpeJAQJe911KCgIPhLFstuVAlJesYCkIvk6urar1+/Q4cONa0GSHropZAMModmQRIwnl2jSkKOCLurf+HkyZMkfYszc+bMiIgIWsqEkPvRQqoIqvHXX38lr0rsEeF+NFWfbFXBeKU43Ic0J0yYQL4uAECd827Ws5VEyCFa8JJhq+ZwH++ClJDJ999/L2QQbClqamqg0VZwn5FpEEkfNtmOSP4KdjRwrSHz8vJya2trDw8POe7tG7ZmzFYkcLO//vprMFZGjhxpYWHBy79RgJUjuAiAEHAgIvkw9jK2THgIqSIOUz20SDsBOWx/9dVX//nPf8BWa+3A2NmzZyGBv78/JXdzcyPnTv42NjDGUwEwfIEP8+zZs3LuK1Mwns+YMcPU1BR2CQgI4O0CvRWawU8//TRp0iTIkAg7deo0ZcoU6DjHjx/nZciWCT8uLi7QwLKzs8HkhTTHjh0rZzoKeSarY8eO5NLAYAuuFy+T0aNHDx06lGzzAmPgVsEufn5+vGSqqqpKSkpkGw6hrKwsx7WwCwoKIMNRo0bxAmM5OTlyXI+rnC8wJqQMkNu//vWv4VyGDRtGVTIUDw4BHWTNmjW//PKLKCo2ljcpMAZWvpGREc8TEIXLly/LCXzNiAQ4Q0JChE/9gv1FSA8VHJcA6FAgIQ9N//jlRmQTeiijnHHSaXAeZxyaiFzwKNByoKhlZWUcvuAEnA6c1MGDB4XXBuPYyzZqcVhOhz8fxuCE4IkIrwEhZeYhvFUInpeQPBlrlcgZC9+E/AVbHVtNNrYkjPJGMWTIEOiAnC+Gga2tLeRWz32j5R9/D4wJlg3bHgfbXjPaXnuxYcMGX19fWvoFaZ2P2ErCljk/jA2Pw9SWSG6CPhpbV2VsSGyZCB6Ow3KyRM6Ws5CTZTw0W9UJbwzfshvtgp6CYFGFyFuQJ0+eqKmpvXz5klawI8SF5LBcI2gzIIRkYGlXcr9TxXbVBHcnxrCjoyPYolCZ5P4423Vky1aInPEyseXPQ6zaifBJrcmUcx2HAwcO0IrGY2JiMnbsWLLNHxhjqzHG6iVQdcJ4F4VttOEH0pA7DOAz0jouUjPoETl43DDdwCGIvQeAvwy7k23hREdHg9ONHZ/DcpnYmrGYdHzWwBjYGd26dRPlleHs7Gw57r2GxMRE2Ni3bx+H++HBBm1xfnlmZqYc9737q1evynEfByZyGGLkuCtFALBBuhkbjAdiKxUPcp8F2jH5O2/ePOj8Hz584DSyhFR66kzBBYLWBgPckSNHmlYDJP38+fNLS0vBF/r1118/ffrEdnaNKgmJ6PLW3WpVtLW1RfzavJAxRUgVHTt2DAZ9YrWIcj+aqk+2qmC8UrDt7+8PHfXKlStwUHAewGfu1atXdXU1h70kohyi+ZcMWzWH+9AK7LtgwYKePXsKeW22pYCjgzVDS1mQ9GGT7Yjkr2BHg4nw559/9vb2/u2338iUxnsTSLAZMxaJw11eAIyVWbNmQWMmr5k3FmhdMARB76AV7OBAxJML9jK2THgIqSIOUz20SDsh8qqqKihw9+7d09PT5VozMEYejgN7lJKPGDECmitcVvK3OYExyBy0MHWWlZUZGhqCbQcnCKcs9/fAWOfOnaGtdurUCRo5WR0RhD/88ANYq1A5kZGRJKWQTPgh8TBPT08nJycwJWGvcqajnDt3To5rxwd+Aa4UyaGkpASuL2/5xP/5Ehg7ffq0HN9iiYCOjo6CggLZhkO4u7tDsZcuXbp582YzMzMbGxteYIyMaVC2cr7AmJAykAIv47JkyRKqkkePHg11q6ysDJdJMDDGqGKjaYExICYmBjosubcuCtBUYECmVnRYtGgRjACPHj0Scern9RchPVRwXAIhtAdF7spvHIEn9BvbQyk526TT4DzOODQRueBRyBdxyIvdvODEvXv3QHj79m3htcHLjX/sZRu12E6HsVQ8FeOJCK8BIWXmIWKraNCioNI3OEFQ6UXMv5UMQja56MDUCY2fvG4OhgFsQ6fjPSFLBcYEy4Ztj4Ntr6ltrx2BShDyIJq0zkdsJWHLnB/GhsfYlth8NMYiEblgQ2LMhPFwJAfRc27wZBkPzVZ1DTYGNqNd0FMQLKoQecuybt26eV++3ywKQlxItmtEgPEc5pT169dzWK4a4+4wSZ0/f97W1nbx4sVdu3blf3FE8DoyZtugXPAyseXPQ6zaifBJrWnU1dVNnjxZsCM3AfISOXlsmvP3wBhbjTFWL4GqE8a7KGyXmx8N7rtEcInhQGB10GopGvSIHBpGWloadEDei01GRkYgJ9vCOXjwIPiw2PE5LJeJrRmLScdnDYwBgwYNYlsmFXosXJiKiorCwkJ7e/v/9//+X35+PrnZcebMGThnQ0ND6HvkPVAhFa2qqgqn9/r1azs7O5AXFRV9/PgRrBzY/f79++Bv9O/fX0lJCYS1tbVaWlodO3aEqnz58uW5c+eggnjl4WUoeCC2UvHTp08fsOrevHlz+fLlzp07T5gwgcgbVUKSXrAARC7H/UYIbFN9r7H5z5w588GDB87OziTmz3Z2jSpJLXcNUGVl5ZiYGDgQHPTp06ckfctSXl4OzZGWsiBkTGGrIrCYdXR0hgwZ8pgL+IqwC7RMUnscps5D1SdbVTBeKWgw4JFCH+N8+bQPHBS6IgxnQkoi5BAte8lkvFXX1NSoqKgYGxvX19cLf222pTh58iRvPVxGpGnYZDsi0Qp2NDj0PO7nuJ2cnPLy8uS4t2/YmjFjkQjm5uawL+zCH2cSnZCQELAbaKlQcCDiFVKwl7FlwoOtiohWsB5apJ2A3NHRMTU1Fc69S5curf3GGKCnp/fDDz8UFBTwJHBQ6DW85QHLmxcYg9P/97//DRvHjx+X4/obsA3mGWxv4fuYFlnkkJiMYJfz8oHW0rt3799++w3agPBMKDQ1NRUUFH755Rc3NzciETwKXCYwXkeMGPG3PbmQQCzYu+Tv/3wJjJF7wTY2NkReXFz81VdfQSslf+EQnp6e0LzBuIeKhT7LHxiD5g0VS9aE5AXGhJRBeCX/8ccfkBsMdPCXCoyxqdhocmAMsLCwgItCS9nx9/eH84UODuN5dXU1uCVQt67crwxyhE79gv1FSA8VHJcuXLjQqVMnuOgkE96NyCb0UEE546QjyjzOODQRueBRALBCTUxMUlJSIFtoYOD9Qj/9/fffYU4RXhuCYy+RM45ajKdD0oPLSgbklStXwoWDDXKTl/FEGqwBIWXmR0irEDwvIXmy1Spj4ZuWf2sYhELkogMjFVwLsg2GAeTG+0Y6R4TAGAfbHra9pra9dqSyshLarZDFMKRyPmIrCVvm/DA2PMa2xOajMRaJyAUbEmMmjIdrQs7CT5bx0GxVxxHaGIQY7YKegmBRhchbFjhBXV3d1L8vGCsEIS4k4zWCYTw7OxuqKzIyErrVunXrOCxXjXF33oE4fCuqsV1HxmyFyxkvE1v+PMSnnTQ4qTWNFStWWFtbk3XemgP47GZmZjCsgZ9OZmqywMa+fftAxVZjjNVLMqTqhMN0F4XtcvPDSwNu17/+9a8nT54IJpCOQY8/PVwLaIcPHz6EzghaET9sD31206ZN2PE5LJeJrRlzxKPjCwuMCVn1bvbs2eADyHH597//HRISwuGeP1j8IIE+4+Pj89133xEXQlNTk/d4RUBAAMjJNhQdZhc4GWgBP/30E+9YUE3q6uok8969e2d8+TI5NE04GSKH+hJ8l5nxQGyl4ic3N1dNTa0Dl1GjRkGvJvLGlpCxAEQOPYSEPeEiNbkGIB8ihFa4efNmDvvZNbYkMMYN5n7YA0ryyy+/nD17lshbFujz0ChpKQuMYwpvsVfGKpoxYwaRUPCWRyePVfLyFKxPDktVMF4pMMd//vnnt2/fwja4AeSrjIsWLYIEMCT9rQRfICVhPESLXzIZb9UbNmyA2QKGXQ53aWAhg2BLsZELLeVDyoZNtiNymDoaTIdQEpiocnJywLOVa1JfAMiydbze2ihgXuzXr5/gN2OFgwMR2WbsZWyZ8MNYRQTBemiRdkLqU15eHhyVmzdvQgHgL2x8OU7jECUwFh0d/dVXX8HViYuLA7sQzFY4Olhj4CTw0jQ2MPb111+vXr06MzPTw8MDMocLCnKybBE0SMiN9NBZs2bxdoECREVFrVmzBuSwL/8h0tLSoDzjx48XngmFL/dzwXJ8C0IyHmXKlCkw2C5YsADs1NjY2N27d5dzI2dgEP/++++RX4Cz+PPPPy9dugRaU1NTaJ8wYF65csXS0hKyOnr0KO8Qnp6eUKUg/OGHH2Dm4gXGAgMD4SwsLCxISl5gjK0MJDchlQx/eZ86owJjbCo2mhMYg7qCfi341IIQwL/68ccf/8kF6sTLy4vnk7NN/Wz9ha2HCo5LMH5OmjQJTpYkgNnB39+fbDe2hwrKGScdUeZxtqGJ8SjAhQsXfv31106dOnXt2hXalYKCAjRF8uEoDnttMI69HPZRi/F0SHqSOT/EwWM8EVFqgK3M/LC1CrbzYsuTrVYZC89pUv5E2LIGoRC56Jw6dYr3YA1kBYM8We6GANYddEOyzVY2bHvY9prW9toXOzs7tttBBOmbjzjsJWHMnB/GhsfWlhh9NLYisTUkwUzYDtfYnBs8WcFDc9irTkhjkGM32gU9BcaisslbHJgIhg8fLmIURIgLyXiN1q1bB50IhDBNzJ49G9JwWK4a4+68AwEDBw4k98c5LNeRMVvhcrbLxJg/P2LSTkSZ1BrLoUOH4Nyp4ETTYLt7ADg7O3PYa4yxejkCdcJhuovCdrn54aX5+PEjeHaGhoZUAmka9HjpoXqVlJQgQ7DuwMckKRtk7ty5x48fx45PELxMHPZmLA4dX1hg7MCBA/xPw1FA38jiQh4340GedocNGCN49gojGtzIZH19fWFhoeAEU1JSUsr9nioFVBNZor1RiFIqSEOpmlZC0Wmp/EU5O1GAfclziK1EfHw8jCy0tBlQVQQzip6eHp/+fzukHN/9aNGhqkL4lRJElJK0SG03mAm26jbDxcVFcK15CukbNtmO2CgabMY8YP4Dk4utMMLZsWPH5MmTaWlLgANRg5m0cTtpQUQJjAGXLl3q3r07sfMAHR2dW7du8ScggTGoeZ7E2Ni4X79+ZJvEbDw8PMhfMDQVFBQgEzmuuTl+/PiX3HekACsrq6+4wMUdPXo0JNi0aRPJjRwabFNIT15f4z8EOEJyX+JPbJlQ5OfngylpYGDAkzAeBS4KWOGQG8i//vpr8u7XrFmzSEoKEuKCdjhs2LAO3DXrv//+e3AJ+A+xatUq2ICaP3jwIGzY2tqSvcCcBVsZSkVSQl/44YcfyDZjGUhubJUMqm+//fY+d81J4NdffxVFxUZzAmMc7qoR1GdaGgTGgby8PHAkGIcCwalfOGLSQ0WZdJoPVF1NTQ1Zzq6OC5VAsDYaO/YSGjydZr7Pyo9gmQURbBXCz0uUPIXTUvk3WJNtAIyWQhaNERFsezyEn5coeQqnpfJvsCalnoiICHt7e1r6d6RyPuKwl0RI5kIaHltbapqPRiGYCdvhGouQkyUIHprDXnWNbQxiCPiSAQEBtLRJCF6jT58+QcsRcVkUwd2F0OB1bCYN5i997eTKlStaWlqCr402DbAxBJ9C5nDfNSeBMQJbjTFWL0Vz7qIIQfoGPR4vXrwQ8sK0IGZmZsnJybRUAMFyYscntG/HFxYYy8/P19HREfEKNQHSi2ipONHaJWzt/MWNuLi4xq5j1ihOnDixadMmfgl0xfnz5z98+JBf2AQae6VaryTNp7Hn0lhaO3+xZdSoUaKvrtBkZLZ6r1692qNHjw4dOjTtdTGYfZWVle/du0crWoHW6/6NvfqtVxLZQcTAGCEvLy8hIQFMW1rRSAZ/ec8pNzf32bNnlPbx48dgg8LGu3fvsrKy4JdKIAqiZEIeLQwJCaEVTEDTunv3LvySv7NmzSLeFz9Tp04lIS4C+Btw6Ldv3/IlaRZUGdqSZgbGYIDS1NQkj7MhbQPvO0+i0NixV0SgC8CAXFBQQCvailY6Lx6tnX+bUV1dDRYIDJu0oklg2+O02nnxaO38ZYeKigqwn8vb716VZIENT+oB4xmuMhpsMg54fGC3N3k9EkGWLVtmwvStemNj4xUCH+VqLM28iyIcHPQIMEsqKSmRT7wjkoiwwBgwZMiQFnmajJEdO3ZcuHCBlooTrV3C1s5f3IBBedKkSbRUEpCmK9Xa59La+Yst6urqr7+89tt6yGz1Zmdnb9iwgfe12MayZMkS3jcPJBeZvfrtSKMCYy0FLzDWXoDhZ2ho+P333+vp6THGzBokMDDQysqKEvr7+9vZ2VFC6aCZgTEON4wNLnFNTQ2tQFqHkydPkgWNRUFax97WPq/Wzr/NiIqKEj2U1SDY9jitf16tnb9M4ejoePjwYVqKMIENTxYICwtDg02WKSkpATdN+BqzYkUz76IIBwc9QmRkpLW1NS1FJIcGAmNBQUHz58+npQjSJG7dujVu3DhaiiCST319vby8PPzSCkQMAHNQTU2N8ZVtBBFOuwTGSByXlrYhycnJlpaWS5cu5a1biAin+YExYPr06Y1dUBFBkDZg9uzZ+/fvp6UIIhvcvHnTwMAAfRwE4WFvb+/n50dLERngw4cPI0eO3LJlC61AZJsFCxY0f8FtpB1pIDBWVlamqqr66tUrWoEgjScjI2P48OG0FEEkn7dv3zIuDI20OzU1NaampkePHqUVCCIC7RIYQySOFgmMvXnzRldX99KlS7QCQZD2o7CwsFevXuW4lBwiw4wZM+bixYu0FEFklZKSkt69e1+9epVWIFJNfX29g4ODFCxCg7Qs0DC0tbXz8/NpBSI5NBAYA1ZxoaUI0ngqKyuVlJTI1wIRRJp4/PjxgAEDaCkiBvj4+IAJS0sRRDQwMIaIQosExoD09HQNDY3c3FxagSBIO7Fs2bLmf+EDQSSaCxcumJmZ0VIEkWGuX7+upaVVWFhIKxDpZcmSJVZWVriKJkJx7tw5nCIlnYYDY69evVJVVS0qKqIVCNJ4jI2Ns7KyaCmCSDjp6ekt+P0JpKWIi4vT0dHBRRSRJoOBMUQUWiowBkRERPTr1+/ly5e0AkGQNge8YCUlpYKCAlqBILJEfX39oEGDWukTNQgioezbt2/o0KHl+D6xbLBp0yZTU9PKykpagcg8w4YNi4mJoaWIRNFwYIzDHQVmzJhBSxGk8bi5uQUHB9NSBJFwrly5YmVlRUuRdiUvL09DQyMtLY1WIIjIYGAMEYUWDIwB27dvNzQ0LCkpoRUIgrQtXl5e7u7utBRBZI/ExMT+/ft/+vSJViCIDOPp6WlhYfHx40dagUgXhw4dGjBgwOvXr2kFIvPEx8cPHTr08+fPtAKRKEQKjIENBANBQkICrUCQRhISEuLi4kJLEUTCgeHR2tqaliLtx6tXr8CBP3nyJK1AkMaAgTFEFFo2MAYEBAQMHjwYY2MI0o68fPlSVVX12bNntAJBZJIZM2Zs3ryZliKIDPP58+fZs2c7ODjg8npSzKlTp3R1dXHZTISRcePGnT59mpYikoZIgTEgOTlZR0enrKyMViBIYygvL1dRUXn79i2tQBBJJjY21tbWlpYi7URpaamRkVFgYCCtQJBGgoExRBRaPDAGbN26VV9fPycnh1YgCNImzJ4929vbm5YiiKzy4sULNTU1XFkUQfipqalxcHCws7PD9ymlkujoaC0trby8PFqBIBzO6dOnjYyM6urqaAUiaYgaGAN8fHzs7e1pKYI0kvnz5+/Zs4eWIogkExMTg8OjmFBWVjZ06FB/f39agSCNZ+3atXJycosXL6YjIQjCh5ubG7QTPz8/ugE1D3C3NDQ0Ll++TCsQBGllkpKStLS0KioqaAWCyDB79+4dOXIkBgAQhJ/a2lonJycrK6sPHz7QOkSSSUxM1NTUzMzMpBUIwuEUFxerqqreunWLViASSCMCYzU1NWZmZgEBAbQCQRpDSkrKwIEDcRlWRJqIiopycHCgpUibU1BQYGBgsGHDBlqBIE1i//79cnJyFhYWdCQEQb7w+PHjLl26QDtpjSXHU1NTtbW1fXx8cJUeBGkzoLsZGhqGh4fTCgSReWbOnLl06VJaiiCyTV1d3cKFC01NTYuLi2kdIpkkJSVpaGiAHU4rEIS7jOrkyZNxNpQaGhEY43C/2qKnp3fhwgVagSCNwczM7NSpU7QUQSQWfGNMHLhz5462tvaRI0doBYI0kqqqqpMnT1pZWfXs2fMrLnPnzl2OIAK4ubmRqJiJiUl9fT3dklqC0tJSmF9MTU0fPXpE6xAEaQW2bt0K4z8tRRCEw6moqBg4cCB+xBdBBNm2bZuuri6+YCQFXLt2TUNDA18GQtg4ePDg4MGDq6uraQUimTQuMAbcu3cPxojk5GRagSAiA+aCjo7O+/fvaQWCSCZJSUkTJ06kpUgbEhERAXPTpUuXaAWCiMDDhw8vXry4ZcuWGTNmGBsbd+/e3crK6uTJk5WVlStWrJBDEKGYmJi8evWKblUtSnBwsLq6+rZt2/DVMQRpVfLz86Gv4YeUEISN3NxcvGWMIIyANwG9IywsjFYgkgOJit24cYNWIAiXu3fvgqGIX56TJhodGANu3rwJI0VMTAytQBCRWbp0qaenJy1FEMkkLS1tzJgxtBRpE2pqalasWGFgYJCdnU3rEISJoqKi2NjYXbt2zZs3b/jw4d26devfv7+9vb23t/eZM2fu379PxR4gsZeX118IIoCfn19CQkIrvStGUVhYaGNjY2xsnJKSQusQBGkJamtrR44cefjwYVqBIAgfV69e1dDQSE9PpxUIIvPk5uYOGjRo4cKF+DaJJEIGN4yKIWwUFBRoa2vj09hSRlMCYxxujFRPT8/Pz6+uro7WIYgIvH37tnfv3mhPI9JBTk7OkCFDaCnS+hQXF5ubm9vb25eXl9M6BOHy5s2b5OTkffv2LV26dMyYMcrKypqamtbW1qtWrTp69CjYM1VVVfQ+CCKuREZG6ujouLu7v3v3jtYhCNI81q9fb2trS0sRBBEgPj4erKl79+7RCgSRecCzcHFxMTExyc/Pp3WIGJOYmIivwyJCePHixYABA4KDg2kFIuE0MTAGlJWVTZ06dcSIEVlZWbQOQUTg6tWrenp6L1++pBUIImk8ffq0b9++tBRpZa5fv66trR0QEPD582dah8gqFRUV6enpYLB6enpOmjRJXV29V69eY8eOXb58+YEDB27evInhBETSef/+/cqVK7W0tMLDw2kdgiBNJTU1tXfv3iUlJbQCQRAmoqKioMvggg0IwsiRI0c0NDTOnj1LKxCxJCEhAa4XrsqAsFFQUNC3b999+/bRCkTyaXpgjBAREaGtre3h4VFWVkbrEKQhdu/ebWZm9unTJ1qBIBJFeXm5srIyLUVak127dmlpaV25coVWILIETB9ZWVlginh5eU2dOlVPT09RUXHEiBELFizYs2dPfHx8a3/5CUHai4yMDGjq5ubmd+/epXUIgjSSt2/f9u3bNzo6mlYgCMJOZGSkpqZmYmIirUAQhMMBJ2XAgAEeHh74gVgxJy4uDoaytLQ0WoEgXMDt0tHRCQkJoRWIVNDcwBiHe0fYx8cHxpHNmzfjYlZIY5kzZ878+fNpKYJIGl27dsWVxNuGd+/eTZ8+feTIkS9evKB1iFRTX1+fl5d3/vz5jRs3QhswMjKSl5cfOnTorFmzAgMDo6KiHj9+TO+DINLL58+fjx8/rq2t7erqiu/fI0iTgcllypQpXl5etAJBkIZISUnp3bv3kSNHaAWCINy3/B0dHYcPH/7gwQNah4gH0dHRmpqad+7coRUIwuXcuXMaGhoxMTG0ApEWWiAwRigqKlqxYgU0Fx8fn+LiYlqNICx8/PjRyspq8eLFbfPtegRpJfT19QsLC2kp0tIkJSXp6uquXr0an7yTBZ48eQK+yvbt252dnU1MTBQUFAYOHOjg4ODr6wsWak5ODn7oFEEqKyuhR6iqqgYEBOAr+AjSBPz9/S0sLHBCQZCmUVBQYGhouGbNGnTnEYSRkJAQdXX1/fv30wqkvTl//ryWllZGRgatQBAOp7a21svLS19f//79+7QOkSJaLDBGKCkpWbdunba2tpOTEy7PiojIx48fbWxs5s+fjx4pIrmMHj0a375vVWpqasAu0dHRwQVbpJXi4uL4+Pjdu3e7ubmNGDFCUVGxT58+U6dOXbNmTXh4+L179/ClTARh4+nTpzNmzADP7fTp0/jZRQQRHZh3wLTAT4shSHMoLy+fMGHClClTXr9+TesQBOFwHj9+PHr0aOgjuMy7+HDq1KnevXtjzANhpLCwEPqsvb09fqFc6mnhwBjh06dPx48fHzVq1KBBg3bu3ImeBtIgNTU1MOI4OTnV1tbSOgSRBBwcHKKiomgp0kI8fPhw+PDh06ZNe/PmDa1DJJOysrKkpKR9+/YtXbrUzMxMWVlZQ0PDysrK09PzyJEj6enp79+/p/dBEEQoN27cABfOxMQkISGB1iEIIsD9+/dh6klNTaUVCII0krq6ug0bNmhra+MEhCCM1NbWbty4UUtLC28aiAOhoaEwXuXl5dEKBOFwgoODwT7cu3cvrUCkkVYJjPHIzs729PSE4cba2josLKyiooJOgSBfqKmpmTt37rhx4/AhGkQSWblyZVBQEC1FWoJDhw6pq6vjx04lmvLy8tTUVLiU0FMmTJigpqamoqICA/7y5csPHDhw48aNt2/f0vsgCNIkLl68aGRkZGFhgbf7EUQIL1++1NPTO3v2LK1AEKSp3Lp1C7rVqlWrcM1zBGEkLS2tf//+CxcurKyspHVIWxESEqKrq5ufn08rEJmnoKBgwoQJZmZmjx49onWIlNK6gTFCbW1tQkLCvHnz1NXVp02bFhYWhq8iImwEBQWBMY23chCJY+/evStWrKClSPN49uzZ5MmTR44ciWarZFFVVZWRkXH8+PHVq1fb2Nhoa2srKSmNGjXK3d0dBvnLly/jq+QI0qrU1dWdOHECDCp7e/vc3FxajSAyD8xTw4cPDwwMpBUIgjSP8vLyGTNmmJiYZGZm0joEQbhfhwWfSF9fHz8Q0C7s378fKv/Jkye0ApFtqqurN27cqK6uHhQUhJ/MlCnaIjDG4+PHjzExMa6urpqampMmTdq3b19BQQGdCJF5rl27pq2tffjwYVqBIGLMpUuXbGxsaCnSVMAW2bt3L9gl27ZtwxVWxZxPnz5lZWWdPn3a29vb3t6+f//+3bp1GzZs2Jw5c3bu3Ald49mzZ/Q+CIK0PjU1NeDagdU9a9asnJwcWo0gsgpMW1ZWVu7u7rQCQZAWIiIiAjx6T09PXDQIQRhJTEzU09NbuHBheXk5rUNajR07doCvis4pQnHu3Dl9fX0XF5fi4mJah0g7bRoY41FbW5ucnPzXX38ZcFm9ejXMCtXV1XQ6RFZ58eLF2LFj7ezscFRCJIUHDx4YGhrSUqRJ5OXlmZmZWVhYPH78mNYh7Q3M4Dk5OZGRkevXr58+fbqRkZG8vPyQIUNmzpwZEBBw8eLFhw8f0vsgCNJ+fPjwYdeuXVpaWtBhs7KyaDWCyBgwi9nb2zs7O+PjwAjSqrx7927x4sW6urpgNNI6BEG4r44tX75cR0cnJiaG1iGtwKZNmwwNDfEeI8LP9evXR48ePXLkyBs3btA6RDZon8AYP0+ePNm/f7+tra2amtrEiRO3bdt29+5ddFQQaAN79uzR1tYODQ2ldQgifnz8+LF79+74blMzqamp8ff3V1dXDw4O/vz5M61G2hy4Cg8ePLh48eKWLVtmzpw5ZMgQeXl5IyOj6dOnr1+/PjIyMicnB5s9gog/MEkFBQWBWeXg4JCRkUGrEUQ2AP/C2dnZ3t4eZy4EaRtSU1OHDh06ZcoUfHAKQRi5efPmgAEDXFxc3rx5Q+uQlsPb2xvGotevX9MKRFZJT0+HuQl635kzZ2gdIku0f2CMR01NzY0bN/z8/MzNzVVVVadOnbpr1y5w3TFIJsvk5+dDe7CxsXn+/DmtQxAxw8DAIC8vj5YiIgNTgLGxsYODAz7G1Y48efIkOjp6+/bts2fPNjEx6dq1KzRsuCjgS5w+fTorK+vTp0/0PgiCSAjQfw8cOKCrqwt+YHJyMq1GEKmmtrbWxcXFysoKJzIEaUug6+3du1dLS2vhwoVo5COIINXV1X/99Vfv3r1PnTpF65Bm8/nz55UrV44YMeLt27e0DpFJUlNTra2t+/btGxISUlNTQ6sRGUOMAmP8VFVVJSYmrlu3jgTJwIHZtGnT1atXQU4nRaQd8qkhsBLWr19fWVlJqxFEbHB0dDx79iwtRUTgxYsXzs7Oenp658+fp3VIawI1Hxsbu2vXrvnz55uamioqKsJVmDp16po1a8LCwjIzMz98+EDvgyCIhAMe4LFjx4yMjKDXw7RVV1dHp0AQqePTp08ODg52dnYfP36kdQiCtD7v378Hd15NTc3b2/vdu3e0GkFknvT09GHDhk2aNCk/P5/WIU2lvr7e3d3d3Nwcv+WGgMtz4cKFsWPH9u/fH1whDIkhBDENjPED3suNGzcCAgJsbGxUVFRMTEyWLVsWFhb26NEjOikivbx582bp0qW6uronTpzAlwgR8WTjxo1+fn60FBHKp0+ftmzZAk4y1B5+abK1KSkpuXz5clBQ0KJFi0aNGtWzZ08tLa0pU6asWrUqJCTkzp07+IF0BJEpYmJi/vzzz759++7btw+j4IgUU1VVNWnSJCcnJ1xBEUHaF7BFwanX0NDYunUr3qdGEIq6ujrw1IhrjC83Nx+oTxcXlwkTJuArFjIOTDe7d+/W19cfOXJkZGQkPhSI8CMBgTGKvLy8Y8eOLVq0aOjQoSoqKlZWVuvWrYuKisK38mWB3NxccGuHDx8eHx9P6xCkvTl//ryDgwMtRdiBobtfv34zZsx49uwZrUOaTVlZWVJS0r59+5YtW2Zubt6rVy91dXVwDFauXHno0KGUlBS8H4EgCIf7hLKjo6OGhgZY1GhOI9LHq1evRo4c6e7ujo/WIYiY8Pjx4wULFoBd6uPjU1JSQqsRRLYBY2zmzJkDBgxITEykdYjI1NTUTJ8+3cbGBt8Ul2VgulmxYoWysrKDg8P169dpNYJIYmCMn6qqqpSUlKCgoDlz5gwePFhTU9POzs7Pzy8qKgo/SSXFXL58ecyYMSNGjIiJiaF1CNJ+FBQU6Orq0lKEiaysLCsrKxi38SM3LcXbt29v3rx54MABDw8PS0tLNTU1FRWVcePGLV++fP/+/deuXcPvOSMIIgTwGz09PVVVVWfMmAGDCa1GEMkkOztbT08vICCAViAI0t4UFRWReWfZsmVPnz6l1Qgi2yQkJPTv39/JyQkfWmoCHz9+tLGxcXR0xOXyZBO47pGRkdAG1NXV165diwECRAiSHRijqKiouHHjxp49e5ydnQcOHKiiojJx4sRVq1aFhYVlZWXhgChlJCYmmpubDxs2LCoqitYhSDuhpqb26tUrWorwUVBQ4OLioqWldejQIVzRqMmUl5enpqYePnx45cqVkyZN0tDQUFZWNjMzW7Jkyd69e2F4fP36Nb0PgiBIQ1RWVh44cGDQoEEmJiZHjx7FZ2wRiSY+Ph7mxzNnztAKBEHEhjdv3mzYsAG6qpOT061bt2g1gsgwYIatX79eVVV169ateD9TdKqqqiZMmODi4oIr5skgmZmZK1asgF5jYWERERGBvgzSIFIVGKOoqKi4ffv2wYMHly9fPmbMGOgY4OTPnj17x44dly5dKioqondAJJDExMQ///xz0KBBcKHx8xhIuzNlypTo6GhainApKSlZtmyZmprali1bcJnvRvH+/fv09PSQkBBPT09ra2stLa2ePXuOGjXK3d19z549CQkJL1++pPdBEARpBmBf2dnZqaurr1q1Kicnh1YjiHhTX1+/adMmHR2d1NRUWocgiPgBrsGhQ4eMjY2HDh16+PBh9BQQhEdBQcH06dP79euHT4SLQnl5ubm5Oa6fLGuUlpYGBQWZmJhoa2uvXbs2Pz+fToEgLEhzYEyQJ0+ewFzi7+8/bdo0AwMDZWXlMWPGLFq0aM+ePXFxcfhypeSSkZExZ84cTU3Nv/76q7CwkFYjSFuxceNGX19fWirzvH//3s/PT1VVFXooLujXIBUVFXfu3Dl27Njq1attbGx0dHR69OgxYsQINze3Xbt2xcbGvnjxgt4HQRCkFQCbCkZvGIVGjRp15MgRGMzpFAgifrx9+9ba2trS0hJf4kcQieP69eszZ85UU1NbuXLlw4cPaTWCyCpJSUnGxsYTJ07Mzc2ldcgX3rx5Y2pq6unp+fnzZ1qHSCOVlZUREREODg7KysouLi6XL1/G1wSRxiJbgTGKqqqqjIyMkydPrl271t7e3sDAgNx8nDdv3o4dO6KjozHILFmA97t+/frevXtPmzYtPj4enxBB2p64uDiwVmmpDFNeXh4QEKChoeHm5obhHEbITBQaGrpmzZqpU6fq6el1794dDHqYiXbu3Hnp0iUM9iMI0r6AQZWQkDBjxgzwOWFounHjBp0CQcSGmzdvwkwKzh3eGUEQyeXly5cbN27U1tY2Nzc/cuQIOBR0CgSRPWBeO3jwIHjWy5cvf/v2La2WGdie0yopKTE2Nl63bh2tQKSOioqKkydPkniYvb19eHh4ZWUlnQhBREOmA2OCfPz4MSsr68yZMzCYTps2zcjIqHv37kOGDJk+fbq3t/fx48dv376NrzuIOZ8+fYIh0sLCQkdHx9fXt6CggE6BIK0GuG1KSkq4AjiH+7z2hg0b1NXV58+fjw8Z8Pjw4UNmZiaYbl5eXnZ2dv369evWrduwYcNcXFy2b98eHR39+PFjeh8EQRDxoKysLCgoyNjY2MDAIDAwEBdxRcQKsL7AX9PW1o6Li6N1CIJIIPX19YmJiWAk9+rVy8nJKT4+HgPeCAJetoeHh4aGxs6dO2XztsPJkydpEYdTVFQE1mlAQACtQKSI9+/fh4eH29nZKSsrOzg4QEuoqKigEyFII8HAWAPU1tY+ePAgOjp6165dixcv/vPPPzU1NVVUVEaPHj137tytW7dGRkZmZWXh163EkCdPnqxbtw7cY0tLy7CwMFypHGkbhg8fLuMftCgtLfX29lZVVXV3d5fxyHR1dfW9e/ciIiLIe8n9+/fv2rWriYmJs7Pztm3boqKiMGSIIIgkkp6eDlYx2MPgmsJQJpv3ZRCxIicnZ9iwYQ4ODmVlZbQOQRAJ5/379yEhIWPHju3du/dff/11+/ZtOgWCyBiPHj2CKU9fXx88TVlbNhDcakpSUFDQt2/foKAgSo5IB4WFhQcPHrS2tibxMGjz+H4Y0oJgYKwpgGWWkZFx+vTpDRs2ODk5DR8+vGfPnlpaWubm5vPmzduyZcupU6fS0tLQMRMH6urqLl26NGPGDBUVFfiNjIysrq6mEyFIy+Hp6blt2zZaKhU0+HJAUVHRqlWrevXq5eHhIYMLJ5J3jmH89/b2BovNwMBAQUHBxMQEpomtW7dGRUXhlxIQBJEmwKAKCwsjD42tWbMmMzOTToEgrQ9Mvr6+vhoaGsePH6d1CIJIF0+ePNm8efOQIUP09PQwQoYgt27dGjNmzPDhw5OSkmidlPL+/fuuXbvyS/Lz8/v06RMcHMwvRCSd2traGzdueHt7Dxo0SEtLy83NLTIyEt92QFoDDIy1GKWlpWlpaREREWCrzZ0719zcXFNTU1lZediwYTNmzID+fOTIkatXrxYUFOC3r9qFysrK8PBwW1vbXr16zZkzJyYmBh9wRlqDixcvTpkyhZZKPtevXw8JCaGlX8jMzHRxcVFVVQUfVUa+dU/CYKdPnyZhsIEDB8rLyw8dOnTWrFkBAQHQDB48eCBrj+8hCCKbPH782M/Pr3///gMGDICN7OxsOgWCtA5JSUnQ6mDmlRHbA0EQwqNHjzZt2jRkyJA+ffqA95GSkkKnQBCZ4dy5czAVWltb5+Tk0Dqp4+TJkx07duT9zc3N1dbWDg0N5UuCSDBlZWXh4eGzZ89WVlYeOXLkxo0b09PT6UQI0qJgYKx1qayszMrKunjx4s6dO5csWWJlZWVgYCAvLw8GnIWFxfz586GfwyB+/fr1Z8+e0TsjrcPbt2+PHj06YcIEGGqdnJxgZsXP+SItCDSnnj17fvr0iVZIMrGxsaqqqoLf+P38+XNMTIylpSWMabt372b7EK4UwAuD+fj4MIbB8vLy8KEHBEFknIyMDG9vb319fUNDQ39/f3xNFmk9CgsLZ86cCY0NTBRahyCIzEAiZCYmJpqamm5ubhcuXMBXChAZpKamZv/+/dAL5syZ8+TJE1otRdjZ2fECY/fu3evdu/eZM2f+ngSRMGDQTkhI8PLyGjZsmJKSkqOj4/Hjx/GBJ6TNwMBY+1BUVHTr1q3w8PDNmzcvWLBg/Pjxffv27dy5c79+/SZMmAASMO9CQ0OTk5NhVsMXm1qJd+/ewSUAp1pZWRkuQVBQEPjYdCIEaTxmZmbStJoBmCny8vJz587lF378+DE4ONjQ0NDU1PT06dO1tbX8WkmHCoPBafLCYFu2bAGXG8NgCIIgQrh9+/bq1at1dXWHDBkCw6Z036NB2pjKykpfX19VVdWAgACYr2k1giAyyYsXL8A3IR+hsbKyOnjwID55jMgaMD+C0aWuru7u7l5UVESrJZ/3798rKiqSwFhaWpqmpmZUVBSdCJEEamtrU1JSNm3a9OeffyopKVlaWkLTTU1Nrauro5MiSCuDgTHxorCwMDk5+fjx4/7+/q6urhMmTBgwYICCgkLv3r1Hjx49c+bM1atXBwUFXbx4MSMjo7S0lN4faRKfPn2Kj48H60FbW9vQ0NDT0zMhIeHDhw90OgQRjY0bN3p7e9NSyeTy5cvy8vKdO3e+efMmkRQUFKxZswYMbnt7+xs3bvw9uUTCtigiDLkYBkMQBGkOt27dWrFiBdixw4cPDwwMxCeQkOZQWVm5fft2TU3N+fPnFxcX02oEQRAOB7z4qKioBQsWaGlpDRo0aOXKlbGxsfgaGSI7vHv3ztfXV0VFxdPT8/Xr17Rakjl58iTYAB07dgTzUkNDIz4+nk6BiDG1tbXp6em7du2ysbFRUlIyNTVdu3ZtYmIi3npF2hcMjEkGJSUld+7cOX/+/J49e2B6mz59+ogRI2Am6Natm4GBgaWlpaurq5+f3+HDh2NiYu7duydl819bkpWVtW3btgkTJvTs2XPSpEk7duyQhZWakZYlJSXFxMSElkogV65cUVBQgL4AXuXnz5/Bq7S1tVVXV/fy8pLcm5vV1dUwSJ46dUrw22AYBkMQBGkNYAa5du3akiVLwHYdNWrU5s2bwdyiE0kpVVVVMGPm5+dDDSQnJ0dHR584ceLYsWM7d+7csGHD+r/jx8XX15dsMEK01I4buECeJ7jAUa5xgePC0aXgjnBFRcXWrVvV1NRg4kbLHEEQEYG5Btx5KysrcGcsLCzA1E9LS0M7H5EFXr9+7enpqaKiAmbDmzdvaLVkAn25c+fOHTt21NfXv3r1Kq1GxI/KysorV66AjTphwgRFRUUTE5MVK1ZERka+e/eOToog7QQGxiSbjx8/Pn78GPze0NDQgICApUuX2tnZDR8+XENDQ15evm/fvpaWlnPmzPHx8dm/f//FixfBEHz+/DmdC8JEVVVVbGzssmXLDAwM1NXVZ86ceejQoQcPHtDpEESAuro6aDMvXrygFRIF2JoKCgpgdxobG9vb28N4MnLkSBhqJOvzaR8+fMjMzIyIiFi7di2cBXRnOCn+b4NBp0b3GEEQpG2A+TE5OXn16tUDBgzQ1dVdsmRJQkKChK6GB/MLWenh9OnT+/bt27Rp05YtW2Bm8fPz27x5s6+vL/yuW7du+/bthw8fhtkzlktKSko2l1evXpW3NJAnyRyOQg4Hx4WjQxlIeeAXCgkl3Lp1K2yABEp+5swZcCXgXMTzid33799DUVVVVSdPnnznzh1ajSAIIgIw0Vy5cgXcARMTE2VlZQcHh927d9+9exe9AES6KSoqWrx4McyhPj4+ZWVltFqiAHuga9euHZkABx88/fDw8IqKCno3pM15/fr1xYsXPT09R4wYoaioOG7cOLCH4+LipPiD9IhEg4ExqaWmpubp06fg6J48eTIwMNDDwwPsv9GjR/fp0wdmDm1tbVNT06lTp7q7u/v7+x8/fjwhISErKwtfNWOkuLgYqnHhwoX9+vXT1NR0cnI6fPgwPq+KCGH+/PkHDx6kpZJDcnIyiYoBnTp10tPTO3r0KJ1I/KiqqsrIyACb2MvLy87Orn///mA9gwMMfXbr1q0kDPb582d6NwRBEKTNyc/P37Fjh4WFRc+ePcFGPXbsmHh+Z7u8vPz27dsRERFQ2m3btoFRTQJgQUFBMN3Exsa2UpSrbSCxNDgLOJe9e/fCXAmnBue4ffv2nTt3njp1Kj09HZLRldIMXr58SYtYePv2LTgpqqqq06dPv3v3Lq1GEARpEmVlZefPn1+5ciX4CEpKSlOmTIGxPTU1Fb/sjkgrL168WLZsmYqKCvjIknvHLzQ0tFu3brxImK6urqKiIrj8GA9rd6qrq1NSUvbs2TNz5kx9fX1lZWVbW1swJkEoWQ9VI7IJBsZklOLiYvAwY2Jijhw5Qr5nNnnyZDANNTQ0OnfuDGOZubm5o6Pj0qVLQXvixIn4+PiMjAxJfwOmRXj+/HlYWBjUmIGBARnxAwICrl27Jp6P2coO9fX1CQkJfn5+f4kHYKJBP6Kl4gqYyLGxsbzKTE5Opp7GGjhwIJieRkZGQUFBb9++5av49qSyshLGMRig1qxZM3Xq1L59+4KtDOOYs7Mz+LdRUVEPHz6k90EQBEHEjHfv3kVERLi4uIBZNWbMmPZdaBF8+9u3bx84cGDfvn3g4YNXD9tXrlx59OgRHVOSAeCs4dwPHjwIsyoYAPv37z906FBmZmaTbx9fv349JCSElgqQlpY2b948aA8LFizAqRxBkNYDBrro6OjVq1ePGDFCSUnJ0tLSx8cHnAhJf7cGaXfAuQYXm/a625XFixcPHz4c3HxTU9MlS5bQarFHS0urY8eO4O936dKlX79+U6ZM8fDwoBNJMn5+fgkJCZLyGuuDBw9CQ0OXL18Ojap79+7QqFasWBEeHg6mI50UQcQbDIwhNHV1dYWFhbdu3YqMjARPeOPGja6urtbW1jDeaWtrd+S+bWZiYmJlZQXy9evXg5N89uzZa9euFRQUyNq7saWlpWA3wxxmZmamqKgIk4Gnp2dERAROBm3Mq1evoE3KiRMdOnT47bff4JdWiDFgynC4N614j2IxAsb0nDlzYIigL0MrA8NLenr60aNHwXe1tbXt06cPWGAwLrm4uGzfvh16Yn5+Pr0PgiAIIjnU1taCPclbaHHRokXnzp1rg48QwCFOnz594MAB8ppUUlJSSUkJHSNCuEDNJCcnk8BhcHAwXKBykd8nAwNDVVVVyOM1VVVVR44cGTZsGPgaAQEBYGbTKRAEQVqNioqKK1eubNmyBRyNXr16wUwEXsb+/fvv3btXV1dHp0YQdsCtpj1tseEf//jHjz/+KHF3KqC0v//++6+//vrtt99KVskbi4mJiXiuoJCbmwvWMljpEyZMUFZW7t+/v7Ozc1BQUFpamoQuio4gBAyMIY2muLg4MzMzISEhNDR006ZNy5YtmzFjhqWlpb6+fo8ePeTl5ckLZ3Z2dm5ubv7+/gcPHuRFzkR3niUOmAxSUlJ27drl6OhIXh+2srIiT5xBjdGpkZajvr6eRMUUFBSWLl1KP3jTfnh6etIicWXhwoVfcRHdCCspKaFFLUo5d+mq4ODgVatWTZkyRVtbG4aXESNGzJs3b+fOnTExMU+ePKH3QRAEQaSF/Px8cLZtbW2VlJRGjhy5bt26q1evtqzjXVRUdOTIkb179544cQLmFCoChIgC1FtYWNiBAweOHTsmfI1E8tiNtbU1reCSm5vr4eHRs2fPiRMngtfQ5DfSEARBWooHDx7A7LB48WLwNLt37z569OiVK1eGhoZmZ2fjwuyIEMChJp713Llzl4srS5YsoUXijbu7+6JFi2ipdOHm5iYvL09iY+3+3lhdXV1WVhaMgTDumZub9+jRY8CAAY6Ojtu3b09ISBDykBOCSBwYGENamI8fP5IXzqKioo4ePerv7w+TrmDkbNSoUeSds7Vr1wYEBICJGRcXl5KSIraf/m4sZWVlMTExGzdunDp1qqqqqoaGhq2trY+Pz/nz5/G9lpYFJmawHqBdSe562eLApEmToBpF+S7a06dPly1b1rLG0Js3b27evHno0CEwvGBk0NTU7NmzJ4wSCxYs2LVrV2xs7LNnz+h9EARBEBmgpqYGJggwqMAtV1JSgjkCfPKMjAw6XWO4c+cOTC4RERGlpaV0qAdpElCTZ86c2bt3b2ZmJl3d3KhYr169OnXqBBv88uLi4qCgoDFjxmhra69bt66goIBfiyAIIiZUVVXdunULxisXFxcjIyNFRUWYkjw9PcPDw7Ozs/F9MoQfcKjBrbawsKBnSgRpiMePH3fp0gXaT0JCAt2wWpk3b94kJSXBKLdw4UJTU9OuXbsaGxvDiLdnz57k5ORy6X3DAUEwMIa0NSRydvv2bfLOWWBgoLe3N/nI2ejRo/X19RUUFASDZ1u3boXE8fHxqampsHt1dTWdr3jz/PnzqKiojRs3Ojg46Orq9uzZc+zYsWBMh4SE3L17F0xtegdEZPz8/MB0WLJkCa1AGsPKlSuhGocOHUp9b4yf2traLVu2qKur379/n9Y1htLSUrC69u/f7+HhYWlpCRn26tVrzJgxixcvBlMMujm+ZIkgCIIIUlFRERMTs2LFikGDBqmqqjo5OYEd9fTpUzodO+DYg+UJEw19KwJpIRITE3ft2gVXilfn169fV1ZW7tKlCxjARFJWVhYcHAwGAMz+bm5usAveVkYQRIKAIQ5Gtj179jg7OxsbG3ft2nXYsGGurq7gyICP07KPDyISx9q1a8GtBseWniARRATALoL24+fnRzesFqWmpiYrK+vkyZN//fWXjY2NpqYmmGpjx4718PA4dOhQWloa3qJEZAcMjCHiSHV1dWFhYWpqanx8fGho6NatW8G8AFvTyspq1KhR+vr68lwYg2dxcXFgp8Lu4vzJXDCXyY0DFxcXExMTBQWFAQMGODg4+Pr6njt3LicnB28QiA7M5WA6wC+tQBoDqUYe5Htj/Ny+fbtfv34dO3Y8c+YMpRLOy5cvExISwFFcunSpubm5ioqKqqrquHHjli1btnfvXugIrb0qI4IgCCJ9FBcXg9U3Z86c3r176+npzZs37+jRo48fP6bT8fH+/XswF1+9ekXfhEBaFJjW/fz8KisrOdyomJKSUufOnWHq37ZtG1wya2trZWVlMICjo6NxyUQEQaSA6urqjIyMkJCQlStX/vnnnzDEaWtrT5061cvLKzw8PDMzUzpWxEFEhLjVy5cvp2dHBBEBaDktfncLzK379++fO3du/fr1jo6OxsbGCgoKQ4YMmTVr1vbt22NiYl68eEHvgyAyAwbGEEkF7MvCwsKUlJS4uDhwswMCAsD0JMEzc3NzfX39Xr16dezYUUNDo2/fvpaWlra2tiR+tmnTJkgfGRl57dq1Bw8ePH/+nM66zamvr8/NzYUi+fn5OTg4GBgYdO7c2dDQ0N7efs2aNWBkw2mKc5yvfcHAWItAqhGMJMHvjYF9tmDBgu7du0OHWrVq1d/3o4FeGRsbu3v3bshn1KhR4BlqampOnDhxxYoVBw4cgE6HLRlBEARpWfLz848fP+7m5jZgwABtbe3Zs2cfOnRI8OXmwMDAp0+f0ncgkFYArGuwBGDSJ8YD0KNHD0VFRbByz5w5I3ELPyAIgjSKZ8+eRUVFbdu2DeYjExOTrl279u/f387OzsvL6+TJk5mZmfg2hhSDgTGkOTQ/MAbDy717906dOuXt7Q1216BBg+Tl5QcPHuzo6Ojn53f27FmwkPHJJAThgYExRMopLi7Oz88HzxxsUxI/8/X1dXV1hRnC0tLSwMBAW1ubuOv6+vqjR48eP348aD08PPz9/Q8fPhwWFgb7ZmRkFBYWtuwn34Xz6dOn7Ozs8+fPb926dc6cOSNHjlRWVlZRURkzZsyCBQu2b98Op5OXl1dbW0vvKXtgYKxF4K9G/u+NgeWkqqqqqKjYuXNnMzMz6l3Ghw8fQlOEBgmt1NTUFJJBh5oyZYqnp2dwcHBqauq7d+/40yMIgiBIq/Ly5UuYucCQMzExAdvJxsYGbL/r169XV1fDNn37AWk1zM3Nu3btSqJiQN++fcFOAMO77T+bgSAI0u48evSIhMqcnZ1heurWrRs4TVZWVsuXLycryeNHFqUGDIwhzaFRgbGPHz9mZ2dfvHhxx44dixYtsrCw6N27NwwvMMjMmjVry5YtFy5cyM3NxfWoEEQIGBhDkP8FZiDy/lliYmJoaCiYp/7+/u7u7i4uLpaWljCvkPUbwbGHjYEDB4LQzs7O1dV1zZo1kDIkJISE0G7fvg35tFIwoKSk5Pr164cPH161apWtrS3vxTIoyerVq/fv3x8bG5uXlydrz+FiYKxF4K9G8r2xxYsXT5w4kbx5CaiqqkIHOX/+/KZNm8DMGjp0KFkCFJof9IITJ07cuXOH/5siCIIgCNK+gHV36dKltWvXmpmZwXQ2fvx4fGOsbYiLiwMbFSxnqHYVFZUePXrwbIk//vhj2rRpz549o68WgiCILPH8+fPLly/v27dvxYoVkydP1tXV7dq165AhQ6ZPn+7l5RUcHHzlypXCwkJ6N0TswcAY0hzYAmM1NTV5eXnR0dG7d+9esmTJpEmTdHR0yP1Ja2trGEZgMIEhBe0rBGksGBhDkEZQW1sL5mlubu61a9cuXrwYGhoaGBjo7+/v5uZGQmgjRoyAmUlJSQmmKHV1ddg2MzMD+dy5cyENpAwICIC9zp49y3sRDSY/+jAiA7NjTk7OhQsXtm3btnjxYisrKwMDgy5dumhpacFxoUi+vr5Hjx5NSkpq1KfpJQsMjLUI/NUIv19//bW8vHynTp3InSygc+fORkZG06ZNW7du3enTp7OysmQtBIsgCIJILmAywezm5eWF3xhrbaCGoZ7BWigqKrp79+6lS5dCQkLABnZ2dgbrtG/fvmpqat27dweTGFfyQRAE4fHhwwfwsCIjI8G1d3d3Hz9+vI6ODnhkhoaGtra2K1eu3Lt3b3R0dHZ2Nj6MKM5gYAxpDiQw5ubmFhsbGxQUBH8nT54MtlPHjh21tbXHjRu3cOHCwMDA8+fPw1DQlotaIYi0goExBGktXr58WVhYePPmzeTk5NDQUHJTYO3ata6uro6OjrwX0RQVFXlRtFGjRoHcyckJ0vj4+ED6I0eOwL6JiYnXrl17/PgxZFhfX08fSYAXL17cuHEDdtywYcPcuXPHjh0LVnWnTp369es3ceJEsLNJfI7kKebhDZjs8/PzaSkfGBhrEajAGGzPnz8frC5oOZ07dyaxsR49eoCrRu+JIAiCIJIAWFZFRUVgAsXHx9P3IZAWAuoWahjqGYxY+gL8HUhTWlpKSxEEQRA+Pn36lJeXFxMTExQU5OHhYWdnN3ToUGVlZVVVVVNTU0dHR3DcyMoxOTk55c144hZpKTAwhjSHZcuWdezYsVevXpMnT4bt3bt3R0VFQe8W87t2CCK5YGAMQcQCEkVLSUm5du1aREREaGjoli1b/P39FyxY4OrqOn78eEtLS319fT09PRKi6NOnD/wdO3YsyF1cXHiBtMOHD8O+cXFxkA9Mn5Dn+/fvySFqamry8/MvX74MadauXQt7WVhYQCZdunQBwxosbBsbG3d3d8gEcrh69erDhw/F5GG0mzdvgk1QVFREK7i0VGDs3bt3GRkZlZWVtOILVVVVmZmZBQUFUrlGs2BgjFel0AwCAwONjY1JhGzcuHH4hj6CIAgicYClRG463LhxY8eOHWBulZaW/v12BNJEoCahPqFWoW6JpMHAGIIgCNJkYJi9f//+pUuXDhw44OXl5eTkNGbMGG1t7Z49ew4ePNja2hr8+s2bN5NnYZ88eYJ31dsMDIwhzYFtKUUEQVoJDIwhiOTx+fPnQi7Xr18HSzc8PJwXSAML2NXVdfLkyZaWloMGDeK9kaakpATbIAH5pEmTXLls3LiRfCBtH5eAgABfX1+YicGwhmQDBgzo1q2bsrKykZGRlZUVpAdtUFBQREQEHDQ/P7+VPqXGCJypqqrqunXrBGN1DQbGBg4c+A8m3rx5QxLcvXtXS0tLjgvIDQ0NwXngzwES9OnTp0OHDiTNV199BdVCVIKZf/jw4ccff6SEBB0dHbILOC38+ZuamoL24cOHDe5IyeFYJAe4lJTK2dmZqAQPx4iQwBgPqPwTJ06MGzcOTh9XQEIQBEEkC15gjADT7oEDB8CwgakN5n1+FSIiUG9Qe1CHUJNQn/wqDIwhCIK0PeCgPX78OCkp6fjx4+Ahkkds+/XrJy8vDx4c+Vb6vHnz1q5du3v3buLXw0heVVVFZ4Q0FQyMIc0BA2MI0sZgYAxBZAKYYnlfR7t8+XJoaOixY8f8uZCX0qysrMBKNjY21tfXV1NTI9+Ugu0+ffqYmJgMHTp0xIgRw4YNGzJkyODBg/v27auhodGtW7c//vhDS0sLtBMnTnR2dobcDh06FBkZef369WZ+Pk0QsO+7dOkCBn1wcDD/O1tsURweAwYMgB2P8mFmZga7lJWVgTYzM/Pbb7/97bffTp06BV7B4cOHv//++19++aW4uJjsnp6e/s033/z4448HDx58+vTp3bt3wceAGmDLvL6+PiwsjGw7OTnBgVatWkX+Xrx4keyiqan5pXScCxcukHjbgwcPGtxR8FgkE19f36+//jr8C7DvrFmziIo6HBuiBMZ4VFRUwFEgATQnWocgCIIgYgkVGOPx/PlzmH/37du3e/du+AV7o6SkhE6EcIGagfrZuXNnYGBgUFAQ2JNQe3QiLhgYQxAEESvevXsH/ia4b+RD6Z6enuC/k2VpwK/v0aMHuI3wd86cOeDlwTgP7h55HPb169d0Xgg7jQqMPXv27Pr168XFxbSivBxqfseOHfPmzSOf56TViJSCgTEEaWMwMIYgCDO1tbXkvbSbN2+CTXzu3Dmwoffu3evv7+/r60veOZs4ceKYMWPAhtbQ0FBWVibLPHbloqCg8Mcff8BfRUVFFRWVPn36DB06FKy6adOmkYfUyMtnt27devToEX1sFhISEjpz0dHRiYuLI8IGoziCkaFly5bJfQmMwSl06NAhLS2Npz1z5gxo3d3dyd9x48bB38TERF4CfgQz5+fw4cOwLxU94t8FKllNTU2OCzgqvDQN7kjh4+Pz3Xff8f7KtXJgjEdFRUV5i4Y/EQRBEKSVYAuM8VNaWnrjxo09e/bs3r17586dAQEB+/fvv3LlCtgqdFIZAM4azh1qAOoBagPqBGomKSnp1atXdFIBMDCGIAgiQZRzIzHgfoaFhe3YsWP16tUuLi6Wlpb9+/dXVVUFp753796GhoYgATeTfH8BZgcSPMvKyiosLKRzlFIePnwIsyG5k8CIiIExqDd1dXVyH+Af//gH+Oz37t3jaW/duvXHH3/897//tbOz8/b2Pnv27P/tiUg1GBhDkDYGA2MIgrQwL168AMs4MzOTvJ22a9euzZs3g/U8bdq0CRMmDBs2bODAgVpaWr169erWrVuXLl06depEImpg/HXt2rV79+6g1dHRMTIyGjVqlIWFhbOzs6urq5eXF2S1ePFi8qUrBQUFSBAXF+fp6SncdBCMDPECYwCYoaNHj+bXApD+X//6F2y8fv26Q4cOJiYmVAIegpnz02B8a+fOnVCAKVOmyDUvMLZmzZqff/6Z91eurQJjCIIgCCIpiBIYE+T58+dJSUnHjh0LCAjYsmULmDT+/v7wGxQUFB4eHhsbm52dLUqgSDyBkkP54SzgXOCMeGcHZwrnC2cN5872TphwMDCGIAgiTRQVFeXl5YF/eurUqeDgYBjkly5dSoJnxsbGffr0AQ9dWVlZX19/3LhxU6dOBf993bp1kOzo0aPkU2c3b94sLCzkrcsiuZCvPEyePPnEiRO0TrTAGOTw7bff/ve//w0JCbl3797u3bu/++47cOcfPHhAEtjY2Hz//fcZGRl/2w2RATAwhiBtDAbGEAT5/9q7/6CorruP46wgDTGRQSdRQFFGY+VHiqSIJnEkqZRUEq2C4mgmIRjUNtKBGMU8tKkPWg0dFBAiUrSJNYpSTLGdJP6gkNAkpFpr1CjBanBlgwRBcNukM2lEn+/sGe6zXlhcV6Sy+379wdx7zrnnnL0ws+fuh733jmAymT755JPy8vKSkpK1a9dmZGQsXrw4ISFhxowZU6ZMkRV2SEjImDFjAgICVIqmaKHaqlWr9D126poMacGYrM5l49e//rV1rVi6dKmUy+pfNZA1va6BRjp/4IEHTnfSPQKt53xL1j2yGl60aJFcMNgZjNkaS9ZPciq0XV0wJpco58+f/+qrr7QGXRGMAQCcm2PBmC1apLR79+7CwkJZS6hHt8oo1j8LCgq2bdtWWlpaYXH48OFai9uRpakpCRlFDSfjyugyB92s5KfMVuYsM5f53454j2AMAFzN5cuX1XPQ9+/frz0EPS0t7Wc/+1lcXJxc18tFfVhYmFy8jxo1SrajoqKkPDExMTU19ZVXXlHfQpMDKysr5UL4+PHj6gY2V69e1Y/03yavUT3KXS605f3UusqeYGzWrFkGg+Evf/mLVlJSUiJHyYmS7UuXLvn4+MyfP///D7gZ8lvQF928yxb6UkfZ31u3zXo43Fa5A7p21cO4tw/BGNDHCMYA9BtXrlxZvXq1ds9GX1/fyZMny8/7779/0aJF+tadegjGdu/eLRtvvvmmde01y2dnUi7rXdVg+/btugYa6dzNyo4dO6xrbeVbaj4rV6709va+ePGi/cGYrbHkemP8+PHartv1wZh2yLBhw1577TWtmTWCMQCAc+vdYMxOX375ZW1t7fHjx1VSVV5evs0iLy9vrQ1r1qzRF1npoVb6VJ3LKGo4GVdGlznop3X7EYwBAGz597//3dDQIO9QcsG7b9++0tLSoqIieeOQ6/TU1NT58+fHxcVFR0dPnDgxIiJCXfvL1a7sPmx5EJpYsmSJtJQL6vUW6ntp77777kcW6u6OorW1VT92L6mpqRk3blxkZKTK+ZYvX/71119fsyMYMxqNAwYMiImJ0ZWHhITce++9snHixAnpITc3NzMz89FHH50+fXplZaVqk5iYmJCQoLbb29uDgoJycnLUbktLi5wQf39/T0/PsLCwvXv3qnJ11HiLhx56SPpUhW1tbXK4KldVqry5uXnhwoU+Pj7e3t4vvPCCNNM6sTW0VMmvQ23LVKU3rcpWb9ZUz/n5+WPGjLn77rvj4+MbGxtVVWFhofwZDB48+L777pO/De0QebFywkePHu3u7u7n5yfHqn60l6PYM8Nuu7I1rmMnwWQyJScny1+yOuE9r8oIxoA+RjAGoH+QlcfcuXMffPBBWXp+97vflY3g4GBZ/MkSxGAw9LB06CEYq6iokI2uWVF6erqUnz59+uDBg7KxceNGXQONdC6TUctuIUt861pb+ZbM59y5c9/5zndkvSsl9gdjtsZ69tlnpVbbdevyjTFZXhcXF8u4bjael0YwBgBwbmv/G8GYyyIYAwD0Irl4l0tg9SA0UV5eXlpa+vrrr6tg7MUXX0xNTX3uuedUbPaDH/xgokVwcLDK1UaOHKlKIiMjVRuxdOlS9ej0NWvWqH7Erl27Sjt9+OGHajhRV1enXYmLb7/9tqamJjQ0dObMmWoIf3//Z555ZsWKFT0HY5WVldJAC6g0ixYtUh9BVFVVyYZMWPqcOnWqwWDw8vJSWVFUVJTMX7Vvb2+3HigxMdHDw2PBggUFBQVy1S9HST+qSo4KDAzMzs5W/zJbXV1ttkRWsh0fHy+vXcoHDRqkGstL8PHxycrKSk9PHzBgQG5urtaJraGlKjY2VpWHh4dbV9nqzZocLi/Qz89v2bJl8nrlcC2Lkl/o4sWLd+zYIb8sKT916pQqlxcru+pulvK65I9B9TNixIg1FqtXr7Zzht12ZWtcx06C6kQGeuqpp9ws9yVS5d0iGAP6GMEYgH5A1iKyivX19Q0ICJg0adKrr756+PBhdVOFG6Y4PQRjRqNRNn76059a14onn3zS3d39P//5j6y8pcGzzz6ra6Dp2rk1W/mWHDJv3rygoCBZT1+7mWDM1liyDps1a5a262bjGWMHDhxws6zCtZYagjEAgHMjGOtLBGMAgDvHN998owKt8+fPa1nXnj17VABWUFCgBWMrV65UaZlITk7WUrTZs2eraE0JDAxU97BRG4rsjhgxwtPTs4dg7I033pBr7eLiYl35L3/5SymvsDz1UzZ+9KMfqa8W7dixQ3Z37txpth3MnDlzZsCAATNnzlRVRqPRYDDMmDFD7cpRkydPlo2tW7fKIer7Z3Ie3Cy3xpHtpUuXqmDsH//4h/STkpKiDgwJCZkyZYrWSbdDqyqVCeXn50s/WlUPvVmTw+XU1dbWqt2wsDA5vdc3MR85ckS63bRpk7mz27Fjx+raODzDrl1prMc1OzSECA4OHj16tGxkZma6EYwBdxiCMQB3ur17944fP17WGbJ8NJlMutobpjhd8yQtGJPtSZMm3XvvvWpbkWWlu7u7rH1lu6OjIzQ01MPD47PPPtMaWOvauTVb+Vbzo18AAA/zSURBVJZ0KOUHDhxQJbcYjJ07d04W37Jc00rcbARj27Ztk6qcnBytpYZgDADg3AjG+hLBGADAucnVukrFRowYMWHCBHVjPfVRQw/B2B//+EdpIO+SuvK0tDQp//vf//6HP/xBNg4ePKjKL1y44O7unpSUZLakL4MHD/6hRXR0tDbQO++8I9tZWVlabzIZLe+Ro4YNGzZnzhxvb++EhIT29nYp/Oyzz+QQGctsFYy9/fbbUiivKMRCCkeNGqV10u3Qqio2NtZoNA4ZMiQzM9PHx0dV9dCbNeu0SSxcuFBer8lkMlu+1lZcXJycnBwTEyNd5eXlmTu7lTlrhyg3TK1szbBrV92Oa3boJJg7sy75/c6dO9eNYAy4wxCMAbij1dXVyTpP3bC7WzdMcbrmSdbB2AcffODh4REWFvbxxx+3tbUdOHBAlmteXl5aTCUlBoNh6NChv/vd7+rr62tra2WRFBERoWql89GjR1dauXjxojaQrXxLCmfOnKmV2B+MdR1r165dsgqX6ckCS2vpdn0wJuv18vLy9PR0f3//kSNHyjpPa6khGAMAODeCsb5EMAYAcGIffvhhQEDAmDFjvve9702dOlWuyr/55ptrdjxj7OTJk9Lg+eef15U/8cQT7u7ura2tH330kTQoKSlR5S0tLXfdddesWbPMlvTFz8/vZQv19Ac1kFzsy7Z6PpYSHh4u01Pb6qikpCRfX98JEyaoGwPW1NSoDxzMVsHYn/70JymcM2dOfqctW7ZYd9J1aFUVGxsrr2jcuHEyfy0T6qE3a7pgTPqRoxoaGi5dujRlypShQ4empKTk5ua6dQZUqtsVK1b8fxcWNwzGbM1Q15WtcVU/N3sSlEceeUTdEtONYAy4wxCMAejfbpjiyCpEVqvWJWq10dbWpnZlOSgrWrdOERERsli0bl9VVfXAAw+oWlnQBAcH/+QnP1FV0rl2oFJWVqYduH37dimRRadWcs1yiKen59mzZ7WSDRs2SLMzZ85oJbYO7DpWSEjIj3/842PHjlm3lEkuWbLE+igZUdbB0vL48ePWLTUEYwAA50Yw1pcIxgAAzkqlYsOHD1+wYIHuAd43DMZERETEPffcYzQatZJPPvnE3d1d3fywsbHRy8vrhRdeUFX79+936wxvbGU/n376qWw//fTTqqqpqcnDw+Pxxx9Xu1Gdt1I8evSoNHvppZdke+PGjTKiulujFoydPn3aYDA88cQT6kBrtoZWVf7+/tLb3r17ZVfLhHrozZouGFP/9Ssbu3btklE2b94s23V1dbKtHlEm29JtaGiodojiwAy77crWuGaHhhAlJSXqtHMrReAORDAGoH/rrRRHFiiHDh2S9Y2+olNra6s0sL7pojMhGAMAODeCsb5EMAYAcEo1NTVBQUHLly+3vuOLxp5gbP/+/R4eHqGhoX/+85/Pnz9fXl4+cuRILy+vo0ePqgbz58+X3dLS0oqKiu9///t33XWXegRXD8FMTEyMt7d3dnZ2dXV1XFycW+djydRRMta+fftUMLNq1ar8/Hzpf/bs2aqBFoyJBQsWuLu7v/jiix9//LGMXlRUpHVia2ipcrPcEUftWmdCtnqzJocPHDhQZnXixImMjAw5M3Jupfy9996TbpOSksrKyqZNm+ZmuSmOOiQhIUF25WW+++67r7/+uvp2nWMz7NpVD+M6MERLS0tgYKD8wbS2thKMAXcggjEA/RspTq8gGAMAOLcbBmOTJ08ecD31n9RwAMEYAMD5nDlzpqioqId/lrUnGBMHDx4MDAx06xQeHn7o0CGt1mQyRUdHyzpEqnx9fcvLy1X5Y489NmnSJLWtgpmMjAy1KxOTQwwGgxQOGjRo3bp1qlwdpUbx8fGJj483Go2RkZHTp0///PPPVYOUlJR77rlHbV+4cOGZZ55Rz0QfOHCg9rWzHoaWKi8vL3WHRjFkyBCtylZv1qKiogICAuQMuFluzyMz1FZf8+bN87BITk6OjY2VBhs2bJDyL774Yvbs2er8yNCvvPKK2dEZdtuVrXEdGEIWn26WO/3ItgrGmpqaVJtuEYwBfYxgDED/RorTKwjGAADO7YbBWGRkpJ+f31Yr6gH1cADBGADABdkZjCmnT5+uqqpqaGjQV1h88cUX6oti9mtsbDx58uStr15aWlqOHTsmP/UVDum5N+1rWHV1dSaTSVdbX1+vvmJ1+fJleWnyU6tqamrqlRdr7q6rHsa9rQjGgD5GMAagfyPF6RUEYwAA52ZPMBYSEqIvvZ6tT0Zsld8KW33aKu/WZQt96e1HMAYAcEE3FYzB3OUZYy6OYAzoYwRjAPo3UpxeQTAGAHBuDgdjiYmJCQkJ+fn5Y8aMufvuu+Pj4xsbG1VVS0tLamqqv7+/p6dnWFiYeuK69VFqu729PSgoKCcnR6tasmSJ2q6srBw/frx1lWNjjbd46KGHMjMzVWFhYWF0dPTgwYPvu+++l19+2bqxAxMzmUzJyckRERHSXspveJNJgjEAgAsiGLtZ6enpsrzRl7oqgjGgjxGMAejfSHF6BcEYAMC52ROMjR079tSpU7rHP0RFRXl5efn5+S1btmzq1KnyFqnlTImJiR4eHgsWLCgoKHjwwQcNBkNVVZV2VA9PaI+NjVXl6qEa1lWOjRUYGJidnf3www/LIdXV1VL43HPPLV68eMeOHXFxcVKoPffCsYmpTmQOTz31lNuNHh1vJhgDALgkgjHcCoIxoI8RjAHo30hxegXBGADAudkTjLl1uv/++9evX6/Ko6Kihg8frj3nIywsbOLEiWbLg+4HDBgwc+ZMVW40Gg0Gw4wZM7Sjbpg/5efnDxo0SFfl2FiTJ0+Wja1bt0pvlZWVqlw5cuSIFG7atElr7MDEgoODR48ebe58dDzBGAAAXRGM4VYQjAF9jGAMQP9GitMrCMYAAM7NnmBs7NixNTU1+fn5ISEh8lb4zjvvmLs8/WLhwoXu7u4mk0lqpU1WVpZWFRQUJD2obTlq8ODBP7SIjo7umj8ZjcYhQ4ZkZmb6+PhYVzk21rBhw+bMmePt7Z2QkKCeHt/c3FxcXJycnBwTEyPH5uXlaY0dmJj6pCYtLW3u3LluBGMAAHSHYAy3gmAM6GMEYwD6t6ysLFk6pKen6ytwM37xi1/IaVyzZs01gjEAgDOyJxjTnjFWXl4ub4UZGRnmLmHV888/L1UNDQ2qTX5+vlYVHh4eEBCgtuUoPz+/ly1kldI1f5J+xo0b19ra2kMwdlNjJSUl+fr6Tpgw4dSpU5cuXZoyZcrQoUNTUlJyc3Pdrg/GHJiYeOSRRwwGg5eXF8EYAADdIhjDrSAYA/oYwRiA/q2qqkqWDiNHjmxpadHXwW4JCQlyGt94441rBGMAAGd0U8HY5s2b5a1w3bp15i5h1YQJE4YOHSobn376qbR5+umnVXlTU5OHh8fjjz+udq2P6nrHQn9/f3d3971798puD8GY/WOpWykePXpUmr300ku7du2SDXkVUlhXVyfbubm5WmMHJlZSUqJ65laKAADYQjCGW0EwBvQxgjEA/VtHR8e0adNk9RAQELBy5cr/xc1btmyZh0Vzc/M1gjEAgDPauHHj+fPn9Z9AWImMjBw1atTOnTvT0tL8/Pz8/f3Pnj1rtsRFAwcOXLVq1YkTJzIyMuTtcvny5eqQmJgYb2/v7Ozs6urquLg4efeUw1VVz/mT7GoPDNMFY46NFRoaum/fPpVayeHvvfeebCQlJZWVlall0uLFi7XGNzuxlpaWwMDAoKCg1tZWe4KxhoaGoqIi/S8AAABnpy6lCcbgGIIxoI8RjAHo95qbm9WHPrgVP//5z9X5JBgDADif9vb21atXy5pB/yFEp0mTJsnbn6en5/Dhw5988smamhpVHhUVFRAQEB4eLrUGgyE+Pv7LL79UVWfOnImOjpZCqRo0aJD6hpny2GOPSYdqW+VP6saMqsrLy+vUqVNqd8iQIVqVw2Opt3IfHx85xGg0SuG8efPUf70kJyfHxsZK7YYNG1Tjm53Y2rVrpVlZWZlsq2CsqalJtelKzrDM7auvvtL/AgAAcHYEY7gVBGNAHyMYA+AMOjo6qqqqpk+fLsuIRx99VH0RCnZavXp1RUWFdjKtnzcGAIDTuHTpUl5eXmVlpf5ziB5pX7Gqq6szmUz6arO5sbHx5MmT7e3t+oqb17tj1dfXq692Xb58WY6Sn/oWvU3O7Wuvvfavf/1Lf+oBAHABchEtl9IrVqzQv0ECdkhLS5O/n6ysLP0fFoDbg2AMgPPgeWO9wvp5YwAAOJOOjo6//e1vmzZteuutt1pbW/UfSHRH99yv26ovx+pFciblfG7evPnYsWP6Mw4AgMuQi2i5lJ49e7b+nRK4kfr6+hEjRsjfT1VVlf4PC8DtQTAGwHnwvLFbp3veGAAAzkcWDA0NDdu2bSsuLt69e/e5c+f0H05YSU9PT01N1ZfeHn051q2T8yZnb8uWLdu3b79w4YL+LAMA4GLkIlpdTaekpPwPYLe0tDSVik2bNk2Wqfo/LAC3B8EYAKfC88Z6hfa8MQAAnFhHR0dLS8uePXu2bt1aVFQkPz/44IOLFy/qIyBYyJmR81NYWFhQUCDn6q233mpra9OfUwAAXJhcSuuvrgH7TJs2jX9QBvoSwRgAZ6OeN5aVlaX/MhTsoHveGAAALkLWD19//fWRI0e2bNlSVFRUWFiYl5f329/+trq6+uzZs/qMyAXIq5bXLmdAzoOcjeLi4q1btx4+fFjOkv7cAQCATnJBLZfV+ittwLasrKyqqiq+Kwb0MYIxAAAAALjO1atXr1y50tra+te//rW0tDQ/Pz8vLy8nJ2f9+vXys7i4uKysrKKiora2trm5WZ8p9RMyc5m/vAp5LfKK1KvLzc3duHFjQUHB73//+0OHDrW1tcmp0J8dAAAAAOjPCMYAAAAAwC4dHR1Xrlwxm82ff/75+++/X1ZWVlRUlJ2dvX79+g0bNqxdu1Y2tJ8FBQXbtm0rLS2tsDh8+HCtxe3I0lTKJWQUNZyMK6PLHHSzysnJkanKnH/zm9/s2bOnurq6vr7+n//8J/+nDAAAAMBFEIwBAAAAQO+4evWqCs++/fZbs9lcX19/+vTp9y3efvvtNy0KCgpetbLOyq9+9Su1sdZK11ph3YOQPqXnnTt3yigyVnV1tYx77tw5mYNMRqbEF78AAAAAQCEYAwAAAAAAAAAAgEsgGAMAAAAAAAAAAIBLIBgDAAAAAAAAAACASyAYAwAAAAAAAAAAgEsgGAMAAAAAAAAAAIBLIBgDAAAAAAAAAACASyAYAwAAAAAAAAAAgEsgGAMAAAAAAAAAAIBLIBgDAAAAAAAAAACASyAYAwAAAAAAAAAAgEsgGAMAAAAAAAAAAIBLIBgDAAAAAAAAAACASyAYAwAAAAAAAAAAgEsgGAMAAAAAAAAAAIBLIBgDAAAAAAAAAACAS/g/JfglwgeYzBkAAAAASUVORK5CYII=;" vertex="1" parent="1">
          <mxGeometry y="600" width="1242" height="174.05" as="geometry" />
        </mxCell>
      </root>
    </mxGraphModel>
  </diagram>
</mxfile>
